<svg width="375" height="380" viewBox="0 0 375 380" fill="none" xmlns="http://www.w3.org/2000/svg">
<g clip-path="url(#clip0_0_5395)">
<g clip-path="url(#clip1_0_5395)">
<path fill-rule="evenodd" clip-rule="evenodd" d="M0 190V380H375V0H0V190Z" fill="#10CFF0"/>
<path fill-rule="evenodd" clip-rule="evenodd" d="M0 190V380H375V0H0V190Z" fill="url(#paint0_linear_0_5395)"/>
</g>
<g clip-path="url(#clip2_0_5395)">
<mask id="mask0_0_5395" style="mask-type:luminance" maskUnits="userSpaceOnUse" x="0" y="0" width="375" height="380">
<path fill-rule="evenodd" clip-rule="evenodd" d="M375 380V0H0V190V380H375Z" fill="white"/>
</mask>
<g mask="url(#mask0_0_5395)">
</g>
<g opacity="0.7" clip-path="url(#clip3_0_5395)">
<path fill-rule="evenodd" clip-rule="evenodd" d="M432.001 133.98C432.001 125 409.421 124.05 408.581 124.72C406.191 119.31 399.461 119.04 399.021 118.19C394.321 110.11 385.731 115.12 384.801 114.65C373.931 107.4 366.301 112.5 365.071 116.6C348.291 115.34 343.231 130.43 343.101 130.13C336.441 126.45 329.361 137.79 329.001 137.98C328.641 138.16 419.091 136.9 419.091 136.9C419.091 136.9 432.181 136.45 432.001 133.98Z" fill="white"/>
<path fill-rule="evenodd" clip-rule="evenodd" d="M432.001 133.98C432.001 125 409.421 124.05 408.581 124.72C406.191 119.31 399.461 119.04 399.021 118.19C394.321 110.11 385.731 115.12 384.801 114.65C373.931 107.4 366.301 112.5 365.071 116.6C348.291 115.34 343.231 130.43 343.101 130.13C336.441 126.45 329.361 137.79 329.001 137.98C328.641 138.16 419.091 136.9 419.091 136.9C419.091 136.9 432.181 136.45 432.001 133.98Z" fill="url(#paint1_linear_0_5395)"/>
</g>
<g opacity="0.64" clip-path="url(#clip4_0_5395)">
<g clip-path="url(#clip5_0_5395)">
<g filter="url(#filter0_i_0_5395)">
<path fill-rule="evenodd" clip-rule="evenodd" d="M21 180H82V309H21V180Z" fill="#2CBCE8"/>
</g>
<g filter="url(#filter1_i_0_5395)">
<path fill-rule="evenodd" clip-rule="evenodd" d="M11 188.38V309H21V180L11 188.38Z" fill="#13A8D6"/>
</g>
<path fill-rule="evenodd" clip-rule="evenodd" d="M33 194H43V207H33V194Z" fill="#3ED2FF"/>
<path fill-rule="evenodd" clip-rule="evenodd" d="M33 223H43V236H33V223Z" fill="#3ED2FF"/>
<path fill-rule="evenodd" clip-rule="evenodd" d="M33 254H43V267H33V254Z" fill="#3ED2FF"/>
<path fill-rule="evenodd" clip-rule="evenodd" d="M61 194H71V207H61V194Z" fill="#3ED2FF"/>
<path fill-rule="evenodd" clip-rule="evenodd" d="M61 223H71V236H61V223Z" fill="#3ED2FF"/>
<path fill-rule="evenodd" clip-rule="evenodd" d="M61 254H71V267H61V254Z" fill="#4ED6FF"/>
</g>
<g clip-path="url(#clip6_0_5395)">
<g filter="url(#filter2_i_0_5395)">
<path fill-rule="evenodd" clip-rule="evenodd" d="M107 266H148V352H107V266Z" fill="#2CBCE8"/>
</g>
<g filter="url(#filter3_i_0_5395)">
<path fill-rule="evenodd" clip-rule="evenodd" d="M100 271.58V352H107V266L100 271.58Z" fill="#13A8D6"/>
</g>
<path fill-rule="evenodd" clip-rule="evenodd" d="M118 276H125V284H118V276Z" fill="#3ED2FF"/>
<path fill-rule="evenodd" clip-rule="evenodd" d="M118 296H125V304H118V296Z" fill="#3ED2FF"/>
<path fill-rule="evenodd" clip-rule="evenodd" d="M114 316H121V324H114V316Z" fill="#4ED6FF"/>
<path fill-rule="evenodd" clip-rule="evenodd" d="M134 276H141V284H134V276Z" fill="#3ED2FF"/>
<path fill-rule="evenodd" clip-rule="evenodd" d="M134 296H141V304H134V296Z" fill="#3ED2FF"/>
<path fill-rule="evenodd" clip-rule="evenodd" d="M134 316H141V324H134V316Z" fill="#4ED6FF"/>
</g>
</g>
<g opacity="0.59" clip-path="url(#clip7_0_5395)">
<g clip-path="url(#clip8_0_5395)">
<g filter="url(#filter4_i_0_5395)">
<path fill-rule="evenodd" clip-rule="evenodd" d="M304 187H365V316H304V187Z" fill="#2CBCE8"/>
</g>
<g filter="url(#filter5_i_0_5395)">
<path fill-rule="evenodd" clip-rule="evenodd" d="M365 316H375V195.38L365 187V316Z" fill="#13A8D6"/>
</g>
<path fill-rule="evenodd" clip-rule="evenodd" d="M343 201H353V214H343V201Z" fill="#3ED2FF"/>
<path fill-rule="evenodd" clip-rule="evenodd" d="M343 230H353V243H343V230Z" fill="#3ED2FF"/>
<path fill-rule="evenodd" clip-rule="evenodd" d="M343 261H353V274H343V261Z" fill="#3ED2FF"/>
<path fill-rule="evenodd" clip-rule="evenodd" d="M315 201H325V214H315V201Z" fill="#3ED2FF"/>
<path fill-rule="evenodd" clip-rule="evenodd" d="M315 230H325V243H315V230Z" fill="#3ED2FF"/>
<path fill-rule="evenodd" clip-rule="evenodd" d="M315 261H325V274H315V261Z" fill="#4ED6FF"/>
</g>
<g clip-path="url(#clip9_0_5395)">
<g filter="url(#filter6_i_0_5395)">
<path fill-rule="evenodd" clip-rule="evenodd" d="M273 251H314V337H273V251Z" fill="#2CBCE8"/>
</g>
<path fill-rule="evenodd" clip-rule="evenodd" d="M314 337H321V256.58L314 251V337Z" fill="#13A8D6"/>
<path fill-rule="evenodd" clip-rule="evenodd" d="M296 261H303V269H296V261Z" fill="#3ED2FF"/>
<path fill-rule="evenodd" clip-rule="evenodd" d="M296 281H303V289H296V281Z" fill="#3ED2FF"/>
<path fill-rule="evenodd" clip-rule="evenodd" d="M300 301H307V309H300V301Z" fill="#4ED6FF"/>
<path fill-rule="evenodd" clip-rule="evenodd" d="M280 261H287V269H280V261Z" fill="#3ED2FF"/>
<path fill-rule="evenodd" clip-rule="evenodd" d="M280 281H287V289H280V281Z" fill="#3ED2FF"/>
<path fill-rule="evenodd" clip-rule="evenodd" d="M280 301H287V309H280V301Z" fill="#4ED6FF"/>
</g>
</g>
<g opacity="0.7" clip-path="url(#clip10_0_5395)">
<path fill-rule="evenodd" clip-rule="evenodd" d="M95.2716 119.73C94.8016 119.48 89.8116 109.79 81.0416 114.64C80.8816 115.05 74.2116 95.1198 52.1216 96.7898C48.3416 97.6598 45.1816 83.0598 26.1416 94.2198C24.9116 94.8298 13.6116 88.2198 7.42162 98.8898C6.85162 99.9998 -2.01838 100.36 -5.15838 107.5C-6.26838 106.62 -35.9884 107.87 -35.9884 119.73C-36.2284 122.98 -28.1984 125 -28.1984 125H126.002C126.002 125 103.132 114.45 95.2716 119.73Z" fill="white"/>
<path fill-rule="evenodd" clip-rule="evenodd" d="M95.2716 119.73C94.8016 119.48 89.8116 109.79 81.0416 114.64C80.8816 115.05 74.2116 95.1198 52.1216 96.7898C48.3416 97.6598 45.1816 83.0598 26.1416 94.2198C24.9116 94.8298 13.6116 88.2198 7.42162 98.8898C6.85162 99.9998 -2.01838 100.36 -5.15838 107.5C-6.26838 106.62 -35.9884 107.87 -35.9884 119.73C-36.2284 122.98 -28.1984 125 -28.1984 125H126.002C126.002 125 103.132 114.45 95.2716 119.73Z" fill="url(#paint2_linear_0_5395)"/>
</g>
<g clip-path="url(#clip11_0_5395)">
<path fill-rule="evenodd" clip-rule="evenodd" d="M236.71 333.372C246.25 333.372 390.69 353.002 390.69 353.002C390.69 353.002 468.73 333.372 399.35 307.962C364.36 295.142 306.72 289.622 236 299.282C213.25 302.392 167 316.042 167 316.042C167 316.042 227.16 333.372 236.71 333.372Z" fill="#D8D8D8"/>
<g filter="url(#filter7_i_0_5395)">
<path fill-rule="evenodd" clip-rule="evenodd" d="M236.71 333.372C246.25 333.372 390.69 353.002 390.69 353.002C390.69 353.002 468.73 333.372 399.35 307.962C364.36 295.142 306.72 289.622 236 299.282C213.25 302.392 167 316.042 167 316.042C167 316.042 227.16 333.372 236.71 333.372Z" fill="url(#paint3_linear_0_5395)"/>
</g>
</g>
<g clip-path="url(#clip12_0_5395)">
<path fill-rule="evenodd" clip-rule="evenodd" d="M-21.8332 360.493C-21.8332 360.493 132.417 339.453 142.607 339.453C152.797 339.453 217.047 320.893 217.047 320.893C217.047 320.893 42.9968 285.013 -31.0832 312.233C-105.173 339.453 -21.8332 360.493 -21.8332 360.493Z" fill="#D8D8D8"/>
<g filter="url(#filter8_i_0_5395)">
<path fill-rule="evenodd" clip-rule="evenodd" d="M-21.8332 360.493C-21.8332 360.493 132.417 339.453 142.607 339.453C152.797 339.453 217.047 320.893 217.047 320.893C217.047 320.893 42.9968 285.013 -31.0832 312.233C-105.173 339.453 -21.8332 360.493 -21.8332 360.493Z" fill="url(#paint4_linear_0_5395)"/>
</g>
</g>
<g clip-path="url(#clip13_0_5395)">
<g filter="url(#filter9_i_0_5395)">
<path fill-rule="evenodd" clip-rule="evenodd" d="M289 276C285.13 276 282 279.79 282 284.46C282 289.13 285.13 292.92 289 292.92C292.87 292.92 296 289.13 296 284.46C296 279.79 292.87 276 289 276Z" fill="#0FBE49"/>
</g>
<path fill-rule="evenodd" clip-rule="evenodd" d="M288.065 283.135L288.245 284.795V287.715L286.615 286.635L288.245 289.495V296.615H289.485V288.375L291.535 286.635L289.485 287.205V284.455L291.535 282.605L289.485 283.415V279.385L288.675 284.795L288.065 283.135Z" fill="#0C9216"/>
<path fill-rule="evenodd" clip-rule="evenodd" d="M285.262 280.391C285.413 280.069 285.262 279.416 285.262 279.416L284.85 280.722C284.85 280.722 285.112 280.713 285.262 280.391Z" fill="#7AFFA6"/>
<path fill-rule="evenodd" clip-rule="evenodd" d="M285.152 288.36C285.302 288.682 285.564 288.691 285.564 288.691C285.564 288.691 285.401 288.293 285.32 288.038C285.24 287.783 285.152 287.385 285.152 287.385C285.152 287.385 285.002 288.038 285.152 288.36Z" fill="#7AFFA6"/>
<path fill-rule="evenodd" clip-rule="evenodd" d="M293.117 282.975C293.267 283.297 293.529 283.306 293.529 283.306C293.529 283.306 293.598 282.651 293.529 282.43C293.46 282.21 293.117 282 293.117 282C293.117 282 292.967 282.653 293.117 282.975Z" fill="#7AFFA6"/>
<path fill-rule="evenodd" clip-rule="evenodd" d="M292.383 287.898C292.533 288.22 292.795 288.229 292.795 288.229C292.795 288.229 292.638 288.118 292.569 287.898C292.499 287.678 292.383 286.923 292.383 286.923C292.383 286.923 292.233 287.576 292.383 287.898Z" fill="#7AFFA6"/>
</g>
<g clip-path="url(#clip14_0_5395)">
<path fill-rule="evenodd" clip-rule="evenodd" d="M-12.0039 424.73H397.046C397.046 424.73 406.746 327.74 397.046 337.35C387.336 346.96 345.246 293.45 212.206 315.86C79.1661 338.27 -12.0039 305 -12.0039 305V424.73Z" fill="#D8D8D8"/>
<g filter="url(#filter10_i_0_5395)">
<path fill-rule="evenodd" clip-rule="evenodd" d="M-12.0039 424.73H397.046C397.046 424.73 406.746 327.74 397.046 337.35C387.336 346.96 345.246 293.45 212.206 315.86C79.1661 338.27 -12.0039 305 -12.0039 305V424.73Z" fill="url(#paint5_linear_0_5395)"/>
</g>
</g>
<g clip-path="url(#clip15_0_5395)">
<path fill-rule="evenodd" clip-rule="evenodd" d="M11.9644 271.74L6.84424 308.172C6.60904 309.845 7.44996 311.478 8.93386 312.273L10.7491 313.224L17.151 267.672L14.6611 268.504C13.221 268.978 12.176 270.235 11.9644 271.74Z" fill="#FED696"/>
<g clip-path="url(#clip16_0_5395)">
<path fill-rule="evenodd" clip-rule="evenodd" d="M27.1726 392.043L31.5001 392.651L49.8709 261.935L45.0758 264.654L27.1726 392.043Z" fill="#FFBC5C"/>
<path fill-rule="evenodd" clip-rule="evenodd" d="M27.1726 392.043L31.5001 392.651L49.8709 261.935L45.0758 264.654L27.1726 392.043Z" fill="url(#paint6_linear_0_5395)"/>
</g>
<g clip-path="url(#clip17_0_5395)">
<g clip-path="url(#clip18_0_5395)">
<path fill-rule="evenodd" clip-rule="evenodd" d="M48.75 263.968C48.9037 262.874 49.915 262.112 51.0089 262.266L64.3451 264.14C65.4389 264.294 66.201 265.305 66.0473 266.399L48.3723 392.163C48.2186 393.257 47.2072 394.019 46.1134 393.865L32.7772 391.991C31.6834 391.837 30.9213 390.826 31.075 389.732L48.75 263.968Z" fill="#F1952F"/>
<g filter="url(#filter11_i_0_5395)">
<path fill-rule="evenodd" clip-rule="evenodd" d="M48.75 263.968C48.9037 262.874 49.915 262.112 51.0089 262.266L64.3451 264.14C65.4389 264.294 66.201 265.305 66.0473 266.399L48.3723 392.163C48.2186 393.257 47.2072 394.019 46.1134 393.865L32.7772 391.991C31.6834 391.837 30.9213 390.826 31.075 389.732L48.75 263.968Z" fill="url(#paint7_linear_0_5395)"/>
</g>
</g>
<mask id="mask1_0_5395" style="mask-type:luminance" maskUnits="userSpaceOnUse" x="31" y="262" width="36" height="132">
<path fill-rule="evenodd" clip-rule="evenodd" d="M48.3755 392.163L66.0504 266.399C66.2035 265.31 65.4375 264.293 64.3483 264.14L51.0093 262.266C49.92 262.113 48.9036 262.879 48.7505 263.968L31.0755 389.732C30.9224 390.821 31.6884 391.838 32.7777 391.991L46.1166 393.865C47.2059 394.019 48.2224 393.253 48.3755 392.163Z" fill="white"/>
</mask>
<g mask="url(#mask1_0_5395)">
<g filter="url(#filter12_f_0_5395)">
<path fill-rule="evenodd" clip-rule="evenodd" d="M64.6882 311.157L36.9678 303.545L40.2663 324.336L59.6491 337.239L64.6882 311.157Z" fill="#C66C0E"/>
</g>
</g>
</g>
<g clip-path="url(#clip19_0_5395)">
<path fill-rule="evenodd" clip-rule="evenodd" d="M18.943 267.924C16.7545 267.616 14.7328 269.14 14.4252 271.328L9.13666 308.958C8.82909 311.147 10.3526 313.169 12.541 313.476L89.98 324.36C92.1685 324.667 94.1902 323.144 94.4978 320.955L99.7863 283.325C100.094 281.136 98.5705 279.115 96.382 278.807L18.943 267.924Z" fill="#F1952F"/>
<g filter="url(#filter13_i_0_5395)">
<path fill-rule="evenodd" clip-rule="evenodd" d="M18.943 267.924C16.7545 267.616 14.7328 269.14 14.4252 271.328L9.13666 308.958C8.82909 311.147 10.3526 313.169 12.541 313.476L89.98 324.36C92.1685 324.667 94.1902 323.144 94.4978 320.955L99.7863 283.325C100.094 281.136 98.5705 279.115 96.382 278.807L18.943 267.924Z" fill="url(#paint8_linear_0_5395)"/>
</g>
</g>
</g>
<g clip-path="url(#clip20_0_5395)">
<g clip-path="url(#clip21_0_5395)">
<g filter="url(#filter14_i_0_5395)">
<path fill-rule="evenodd" clip-rule="evenodd" d="M-5 379.94C-5 379.94 36.75 382.06 40 379.94C40 342.8 -5 333 -5 333V379.94Z" fill="#197F4D"/>
</g>
<g filter="url(#filter15_i_0_5395)">
<path fill-rule="evenodd" clip-rule="evenodd" d="M34 371.505V381.005C34 381.005 41.73 380.675 62 379.955C57.12 352.265 39.1 367.275 39.1 367.275L34 371.505Z" fill="#10C44C"/>
</g>
<g filter="url(#filter16_i_0_5395)">
<path fill-rule="evenodd" clip-rule="evenodd" d="M106 380.592C87.72 360.892 62 381.652 62 381.652C62 381.652 104.53 382.702 106 380.592Z" fill="#0CA23E"/>
</g>
<g filter="url(#filter17_i_0_5395)">
<path fill-rule="evenodd" clip-rule="evenodd" d="M109.9 382.399C109.9 382.399 153.61 384.099 155 380.999C132.64 364.999 108 380.999 108 380.999L109.9 382.399Z" fill="#0CA23E"/>
</g>
<g filter="url(#filter18_i_0_5395)">
<path fill-rule="evenodd" clip-rule="evenodd" d="M221.66 374.226L235.5 377.996L252 367.676C252 367.676 250.15 353.536 239.61 350.456C229.07 347.376 219 365.106 219 365.106L221.66 374.226Z" fill="#0CA23E"/>
</g>
<g filter="url(#filter19_i_0_5395)">
<path fill-rule="evenodd" clip-rule="evenodd" d="M292 370.787L300.67 384.997L323 381.647C323 381.647 326.48 363.107 312.56 358.287C298.64 353.467 292 368.567 292 368.567V370.787Z" fill="#0CA23E"/>
</g>
<g filter="url(#filter20_i_0_5395)">
<path fill-rule="evenodd" clip-rule="evenodd" d="M332.234 375.958C328.249 379.736 326 382.597 326 382.597L329.23 381.967L331.87 384.997L388.82 380.517C388.82 380.517 395.18 365.707 388.82 361.707C365.969 351.181 345.504 364.181 334.508 373.878L328.445 349.911L332.234 375.958ZM335.204 318C335.184 318.14 335.484 318.7 336.044 319.59C335.544 318.42 335.234 317.83 335.204 318ZM351.904 361H367.004L364.564 358.87C364.564 358.87 340.854 327.2 336.044 319.59C339.444 327.43 351.904 361 351.904 361Z" fill="#0CA23E"/>
</g>
<g clip-path="url(#clip22_0_5395)">
<g filter="url(#filter21_i_0_5395)">
<path fill-rule="evenodd" clip-rule="evenodd" d="M320.198 292.968C320.198 292.968 322.453 322.883 324.031 323.458C325.61 324.032 336.896 328.14 336.896 328.14L330.041 331.945L345.915 357.304L359.578 362.277L354.011 365.848C354.011 365.848 376.807 384.382 379.397 383.26C381.977 382.135 383.94 376.741 383.94 376.741C383.94 376.741 373.63 373.872 373.159 341.339C372.697 308.809 320.198 292.968 320.198 292.968Z" fill="#24CD31"/>
</g>
<path fill-rule="evenodd" clip-rule="evenodd" d="M367.63 355.57C368.96 355.57 365.51 353 365.51 353C365.51 353 350.7 356.17 345 353C352.39 357.56 366.3 355.57 367.63 355.57Z" fill="#32F040"/>
<path fill-rule="evenodd" clip-rule="evenodd" d="M326 300.49C326 300.49 343.37 320.17 349.28 328.5C369.97 357.66 377.29 373.67 377.29 376C377.29 380.49 379.45 367.46 379.45 367.46C379.45 367.46 360.39 337.92 349.28 324C338.17 310.08 326 300.49 326 300.49Z" fill="#32F040"/>
<g filter="url(#filter22_i_0_5395)">
<path fill-rule="evenodd" clip-rule="evenodd" d="M349.862 283.017C347.856 284.893 350.082 353.92 383.345 374.818L390.9 374.325C390.9 374.325 395.621 316.813 349.862 283.017Z" fill="#059B52"/>
</g>
<path fill-rule="evenodd" clip-rule="evenodd" d="M371.764 338.001C372.721 338.925 372.024 334.68 372.024 334.68C372.024 334.68 359.169 326.672 357.271 320.433C359.419 328.846 370.807 337.078 371.764 338.001Z" fill="#14B366"/>
<path fill-rule="evenodd" clip-rule="evenodd" d="M365.925 318.746C365.986 317.878 367.945 308.923 365.249 303.903C367.094 307.761 364.316 317.25 364.316 317.25C364.316 317.25 365.865 319.614 365.925 318.746Z" fill="#14B366"/>
<path fill-rule="evenodd" clip-rule="evenodd" d="M382.104 364.827C386.096 373.678 385.283 363.402 385.283 363.402L354.977 290.115C354.977 290.115 378.111 355.976 382.104 364.827Z" fill="#14B366"/>
</g>
<g filter="url(#filter23_i_0_5395)">
<path fill-rule="evenodd" clip-rule="evenodd" d="M49.4992 382.998C49.4992 382.998 55.3521 386.203 55.0382 382C54.9249 380.544 54.4005 384.094 55.0331 378.505C56.2215 367.981 59.0326 346.219 59.0326 346.219C52.9999 359.503 37.1094 385.999 37.1094 385.999L49.4992 382.998Z" fill="#0CA23E"/>
</g>
<g filter="url(#filter24_i_0_5395)">
<path fill-rule="evenodd" clip-rule="evenodd" d="M84.0013 387.762C84.0013 387.762 83.2486 374.6 83.9944 369.318C85.9012 355.972 89.4251 348.893 88.8904 349.348C75.575 359.465 67.4262 388.203 67.4262 388.203L84.0013 387.762Z" fill="#0CA23E"/>
</g>
<g filter="url(#filter25_i_0_5395)">
<path fill-rule="evenodd" clip-rule="evenodd" d="M269 386.68C269 386.68 270.04 393.36 277.65 386.68C285.26 380 275.14 351.5 275.14 351.5L271.07 378L269 386.68Z" fill="#0CA23E"/>
</g>
<g filter="url(#filter26_i_0_5395)">
<path fill-rule="evenodd" clip-rule="evenodd" d="M167 386.27C167 386.27 314.32 400.79 307.72 383.6C301.12 366.41 269.84 368.01 267.82 367.76C251.18 349.25 238.12 365.93 235.58 371.99C233.04 378.06 235.85 350.6 204 350.6C172.15 350.6 167 383.6 167 383.6V386.27Z" fill="#0CA23E"/>
</g>
</g>
<g clip-path="url(#clip23_0_5395)">
<g filter="url(#filter27_i_0_5395)">
<path fill-rule="evenodd" clip-rule="evenodd" d="M326.68 343.01C326.33 342.93 325.97 343.09 325.8 343.41C325.64 343.71 325.28 343.85 324.96 343.71L324.85 343.67C324.48 343.51 324.05 343.68 323.9 344.05L323.88 344.1C323.71 344.5 323.25 344.71 322.84 344.56L322.32 344.38C321.79 344.2 321.26 344.68 321.4 345.23L323.57 353.61C328.75 359.41 334.33 353.15 332.72 350.59C331.1 348.04 329.99 342 329.99 342L328.73 343.06C328.49 343.27 328.17 343.34 327.87 343.27L326.68 343.01Z" fill="#FF1E1E"/>
</g>
<g clip-path="url(#clip24_0_5395)">
<mask id="mask2_0_5395" style="mask-type:luminance" maskUnits="userSpaceOnUse" x="321" y="342" width="13" height="14">
<path fill-rule="evenodd" clip-rule="evenodd" d="M326.68 343.01C326.33 342.93 325.97 343.09 325.8 343.41C325.64 343.71 325.28 343.85 324.96 343.71L324.85 343.67C324.48 343.51 324.05 343.68 323.9 344.05L323.88 344.1C323.71 344.5 323.25 344.71 322.84 344.56L322.32 344.38C321.79 344.2 321.26 344.68 321.4 345.23L323.57 353.61C328.75 359.41 334.33 353.15 332.72 350.59C331.1 348.04 329.99 342 329.99 342L328.73 343.06C328.49 343.27 328.17 343.34 327.87 343.27L326.68 343.01Z" fill="white"/>
</mask>
<g mask="url(#mask2_0_5395)">
<path fill-rule="evenodd" clip-rule="evenodd" d="M330.66 353.989C328.97 353.989 328.05 351.749 326.3 353.079C324.94 354.109 323.69 353.459 323.21 352.889C323.64 354.039 324.55 356.989 324.55 356.989L332.92 357.359C332.92 357.359 336.06 352.389 336.06 351.989C336.06 351.589 332.92 346.909 332.92 346.909L332.21 345.429C332.21 345.429 329.22 343.959 330.21 347.539C331.21 351.109 332.35 353.989 330.66 353.989ZM323 352.469C323 352.569 323.08 352.729 323.21 352.889C323.08 352.539 323 352.359 323 352.469Z" fill="#931A1A"/>
</g>
</g>
</g>
</g>
<g clip-path="url(#clip25_0_5395)">
<g filter="url(#filter28_i_0_5395)">
<path fill-rule="evenodd" clip-rule="evenodd" d="M-6.07 324.926C-6.07 327.756 -6.07 339.866 -3.86 342.166C-1.65 344.466 -16 373.256 -16 373.256L5.97 379.736C5.97 379.736 16.07 383.676 28.93 374.996C41.79 366.326 30 364.446 40.01 356.756C50.03 349.076 36.45 342.166 36.45 342.166C36.45 342.166 31.58 340.606 40.01 334.936C48.44 329.266 33.94 324.926 33.94 324.926C33.94 324.926 37.92 321.716 33.94 318.886C29.96 316.046 25.21 323.396 25.21 323.396C25.21 323.396 30.97 311.156 20.34 303.576C9.71 295.996 -6.07 305.606 -6.07 305.606C-6.07 305.606 -6.07 322.086 -6.07 324.926Z" fill="#0CA23E"/>
</g>
<path fill-rule="evenodd" clip-rule="evenodd" d="M5.37862 334.196C6.49405 333.472 19.2438 327.565 22.9496 319.721C19.8957 325.484 5.75688 330.886 5.75688 330.886C5.75688 330.886 4.2548 334.926 5.37862 334.196Z" fill="#068630"/>
<path fill-rule="evenodd" clip-rule="evenodd" d="M6.57528 324.302C6.87447 325.598 8.60252 321.658 8.60252 321.658C8.60252 321.658 2.18224 307.941 3.98877 301.674C1.20803 309.9 6.2761 323.006 6.57528 324.302Z" fill="#068630"/>
<path fill-rule="evenodd" clip-rule="evenodd" d="M-0.0553427 399.516C-1.07675 397.422 -1.5159 379.823 4.29725 344.544C5.95749 334.467 12.9424 309.164 12.9424 309.164C12.9424 309.164 6.19907 323.123 2.32458 340.5C-1.5589 357.881 -5.74043 392.787 -5.74043 392.787C-5.74043 392.787 1.91294 403.551 -0.0553427 399.516Z" fill="#068630"/>
<g filter="url(#filter29_i_0_5395)">
<path fill-rule="evenodd" clip-rule="evenodd" d="M-6.0708 373.069C-6.0708 373.069 -2.1008 380.029 3.9892 377.659C40.4792 355.339 38.2492 334.839 25.4592 328.999C17.0692 325.159 6.7492 336.929 -5.4908 364.309C-5.6808 364.739 -6.0708 365.619 -6.0708 365.619V373.069Z" fill="#197F4D"/>
</g>
<path d="M9.43 362.66C9.43 362.66 10.77 351.09 8 346" stroke="#026D38" stroke-linecap="round"/>
<path d="M18.7742 347.57C18.7742 347.57 23.5782 345.721 28.9341 343.509" stroke="#026D38" stroke-linecap="round"/>
<path d="M0 372.17C0 372.17 25.35 340.39 25.35 335" stroke="#026D38" stroke-linecap="round"/>
<g filter="url(#filter30_i_0_5395)">
<path fill-rule="evenodd" clip-rule="evenodd" d="M-4.60331 382.048L-1.03166 387.764C-1.03166 387.764 16.6841 376.411 25.5898 369.395C34.4987 362.366 36.8052 351.81 28.2133 347.156C19.6129 342.507 14.9973 346.216 8.57713 354.945C2.16226 363.682 -4.60331 382.048 -4.60331 382.048Z" fill="#24CD31"/>
</g>
<path d="M0 380.996L26.96 352.146" stroke="#16AE22" stroke-linecap="round"/>
<path d="M23.8486 355.739C23.8486 355.739 29.5886 353.949 30.8786 354.999" stroke="#16AE22" stroke-linecap="round"/>
</g>
</g>
</g>
<defs>
<filter id="filter0_i_0_5395" x="21" y="180" width="61" height="130" filterUnits="userSpaceOnUse" color-interpolation-filters="sRGB">
<feFlood flood-opacity="0" result="BackgroundImageFix"/>
<feBlend mode="normal" in="SourceGraphic" in2="BackgroundImageFix" result="shape"/>
<feColorMatrix in="SourceAlpha" type="matrix" values="0 0 0 0 0 0 0 0 0 0 0 0 0 0 0 0 0 0 127 0" result="hardAlpha"/>
<feOffset dy="1"/>
<feGaussianBlur stdDeviation="1.5"/>
<feComposite in2="hardAlpha" operator="arithmetic" k2="-1" k3="1"/>
<feColorMatrix type="matrix" values="0 0 0 0 0.223529 0 0 0 0 0.819608 0 0 0 0 1 0 0 0 1 0"/>
<feBlend mode="normal" in2="shape" result="effect1_innerShadow_0_5395"/>
</filter>
<filter id="filter1_i_0_5395" x="11" y="180" width="10" height="130" filterUnits="userSpaceOnUse" color-interpolation-filters="sRGB">
<feFlood flood-opacity="0" result="BackgroundImageFix"/>
<feBlend mode="normal" in="SourceGraphic" in2="BackgroundImageFix" result="shape"/>
<feColorMatrix in="SourceAlpha" type="matrix" values="0 0 0 0 0 0 0 0 0 0 0 0 0 0 0 0 0 0 127 0" result="hardAlpha"/>
<feOffset dy="1"/>
<feGaussianBlur stdDeviation="1.5"/>
<feComposite in2="hardAlpha" operator="arithmetic" k2="-1" k3="1"/>
<feColorMatrix type="matrix" values="0 0 0 0 0.137255 0 0 0 0 0.733333 0 0 0 0 0.917647 0 0 0 1 0"/>
<feBlend mode="normal" in2="shape" result="effect1_innerShadow_0_5395"/>
</filter>
<filter id="filter2_i_0_5395" x="107" y="266" width="41" height="87" filterUnits="userSpaceOnUse" color-interpolation-filters="sRGB">
<feFlood flood-opacity="0" result="BackgroundImageFix"/>
<feBlend mode="normal" in="SourceGraphic" in2="BackgroundImageFix" result="shape"/>
<feColorMatrix in="SourceAlpha" type="matrix" values="0 0 0 0 0 0 0 0 0 0 0 0 0 0 0 0 0 0 127 0" result="hardAlpha"/>
<feOffset dy="1"/>
<feGaussianBlur stdDeviation="1.5"/>
<feComposite in2="hardAlpha" operator="arithmetic" k2="-1" k3="1"/>
<feColorMatrix type="matrix" values="0 0 0 0 0.223529 0 0 0 0 0.819608 0 0 0 0 1 0 0 0 1 0"/>
<feBlend mode="normal" in2="shape" result="effect1_innerShadow_0_5395"/>
</filter>
<filter id="filter3_i_0_5395" x="100" y="266" width="7" height="87" filterUnits="userSpaceOnUse" color-interpolation-filters="sRGB">
<feFlood flood-opacity="0" result="BackgroundImageFix"/>
<feBlend mode="normal" in="SourceGraphic" in2="BackgroundImageFix" result="shape"/>
<feColorMatrix in="SourceAlpha" type="matrix" values="0 0 0 0 0 0 0 0 0 0 0 0 0 0 0 0 0 0 127 0" result="hardAlpha"/>
<feOffset dy="1"/>
<feGaussianBlur stdDeviation="1.5"/>
<feComposite in2="hardAlpha" operator="arithmetic" k2="-1" k3="1"/>
<feColorMatrix type="matrix" values="0 0 0 0 0.137255 0 0 0 0 0.733333 0 0 0 0 0.917647 0 0 0 1 0"/>
<feBlend mode="normal" in2="shape" result="effect1_innerShadow_0_5395"/>
</filter>
<filter id="filter4_i_0_5395" x="304" y="187" width="61" height="130" filterUnits="userSpaceOnUse" color-interpolation-filters="sRGB">
<feFlood flood-opacity="0" result="BackgroundImageFix"/>
<feBlend mode="normal" in="SourceGraphic" in2="BackgroundImageFix" result="shape"/>
<feColorMatrix in="SourceAlpha" type="matrix" values="0 0 0 0 0 0 0 0 0 0 0 0 0 0 0 0 0 0 127 0" result="hardAlpha"/>
<feOffset dy="1"/>
<feGaussianBlur stdDeviation="1.5"/>
<feComposite in2="hardAlpha" operator="arithmetic" k2="-1" k3="1"/>
<feColorMatrix type="matrix" values="0 0 0 0 0.223529 0 0 0 0 0.819608 0 0 0 0 1 0 0 0 1 0"/>
<feBlend mode="normal" in2="shape" result="effect1_innerShadow_0_5395"/>
</filter>
<filter id="filter5_i_0_5395" x="365" y="187" width="10" height="130" filterUnits="userSpaceOnUse" color-interpolation-filters="sRGB">
<feFlood flood-opacity="0" result="BackgroundImageFix"/>
<feBlend mode="normal" in="SourceGraphic" in2="BackgroundImageFix" result="shape"/>
<feColorMatrix in="SourceAlpha" type="matrix" values="0 0 0 0 0 0 0 0 0 0 0 0 0 0 0 0 0 0 127 0" result="hardAlpha"/>
<feOffset dy="1"/>
<feGaussianBlur stdDeviation="1.5"/>
<feComposite in2="hardAlpha" operator="arithmetic" k2="-1" k3="1"/>
<feColorMatrix type="matrix" values="0 0 0 0 0.137255 0 0 0 0 0.733333 0 0 0 0 0.917647 0 0 0 1 0"/>
<feBlend mode="normal" in2="shape" result="effect1_innerShadow_0_5395"/>
</filter>
<filter id="filter6_i_0_5395" x="273" y="251" width="41" height="87" filterUnits="userSpaceOnUse" color-interpolation-filters="sRGB">
<feFlood flood-opacity="0" result="BackgroundImageFix"/>
<feBlend mode="normal" in="SourceGraphic" in2="BackgroundImageFix" result="shape"/>
<feColorMatrix in="SourceAlpha" type="matrix" values="0 0 0 0 0 0 0 0 0 0 0 0 0 0 0 0 0 0 127 0" result="hardAlpha"/>
<feOffset dy="1"/>
<feGaussianBlur stdDeviation="1.5"/>
<feComposite in2="hardAlpha" operator="arithmetic" k2="-1" k3="1"/>
<feColorMatrix type="matrix" values="0 0 0 0 0.223529 0 0 0 0 0.819608 0 0 0 0 1 0 0 0 1 0"/>
<feBlend mode="normal" in2="shape" result="effect1_innerShadow_0_5395"/>
</filter>
<filter id="filter7_i_0_5395" x="167" y="294.38" width="261.09" height="59.6221" filterUnits="userSpaceOnUse" color-interpolation-filters="sRGB">
<feFlood flood-opacity="0" result="BackgroundImageFix"/>
<feBlend mode="normal" in="SourceGraphic" in2="BackgroundImageFix" result="shape"/>
<feColorMatrix in="SourceAlpha" type="matrix" values="0 0 0 0 0 0 0 0 0 0 0 0 0 0 0 0 0 0 127 0" result="hardAlpha"/>
<feOffset dy="1"/>
<feGaussianBlur stdDeviation="8"/>
<feComposite in2="hardAlpha" operator="arithmetic" k2="-1" k3="1"/>
<feColorMatrix type="matrix" values="0 0 0 0 0.560784 0 0 0 0 0.972549 0 0 0 0 0.478431 0 0 0 1 0"/>
<feBlend mode="normal" in2="shape" result="effect1_innerShadow_0_5395"/>
</filter>
<filter id="filter8_i_0_5395" x="-61.7739" y="302.034" width="278.821" height="59.459" filterUnits="userSpaceOnUse" color-interpolation-filters="sRGB">
<feFlood flood-opacity="0" result="BackgroundImageFix"/>
<feBlend mode="normal" in="SourceGraphic" in2="BackgroundImageFix" result="shape"/>
<feColorMatrix in="SourceAlpha" type="matrix" values="0 0 0 0 0 0 0 0 0 0 0 0 0 0 0 0 0 0 127 0" result="hardAlpha"/>
<feOffset dy="1"/>
<feGaussianBlur stdDeviation="8"/>
<feComposite in2="hardAlpha" operator="arithmetic" k2="-1" k3="1"/>
<feColorMatrix type="matrix" values="0 0 0 0 0.560784 0 0 0 0 0.972549 0 0 0 0 0.478431 0 0 0 1 0"/>
<feBlend mode="normal" in2="shape" result="effect1_innerShadow_0_5395"/>
</filter>
<filter id="filter9_i_0_5395" x="282" y="276" width="14" height="17.9199" filterUnits="userSpaceOnUse" color-interpolation-filters="sRGB">
<feFlood flood-opacity="0" result="BackgroundImageFix"/>
<feBlend mode="normal" in="SourceGraphic" in2="BackgroundImageFix" result="shape"/>
<feColorMatrix in="SourceAlpha" type="matrix" values="0 0 0 0 0 0 0 0 0 0 0 0 0 0 0 0 0 0 127 0" result="hardAlpha"/>
<feOffset dy="1"/>
<feGaussianBlur stdDeviation="3.5"/>
<feComposite in2="hardAlpha" operator="arithmetic" k2="-1" k3="1"/>
<feColorMatrix type="matrix" values="0 0 0 0 0.0784314 0 0 0 0 0.843137 0 0 0 0 0.2 0 0 0 1 0"/>
<feBlend mode="normal" in2="shape" result="effect1_innerShadow_0_5395"/>
</filter>
<filter id="filter10_i_0_5395" x="-12.0039" y="305" width="413.361" height="120.73" filterUnits="userSpaceOnUse" color-interpolation-filters="sRGB">
<feFlood flood-opacity="0" result="BackgroundImageFix"/>
<feBlend mode="normal" in="SourceGraphic" in2="BackgroundImageFix" result="shape"/>
<feColorMatrix in="SourceAlpha" type="matrix" values="0 0 0 0 0 0 0 0 0 0 0 0 0 0 0 0 0 0 127 0" result="hardAlpha"/>
<feOffset dy="1"/>
<feGaussianBlur stdDeviation="5"/>
<feComposite in2="hardAlpha" operator="arithmetic" k2="-1" k3="1"/>
<feColorMatrix type="matrix" values="0 0 0 0 0.282353 0 0 0 0 1 0 0 0 0 0.45098 0 0 0 1 0"/>
<feBlend mode="normal" in2="shape" result="effect1_innerShadow_0_5395"/>
</filter>
<filter id="filter11_i_0_5395" x="31.0552" y="262.246" width="35.0117" height="132.639" filterUnits="userSpaceOnUse" color-interpolation-filters="sRGB">
<feFlood flood-opacity="0" result="BackgroundImageFix"/>
<feBlend mode="normal" in="SourceGraphic" in2="BackgroundImageFix" result="shape"/>
<feColorMatrix in="SourceAlpha" type="matrix" values="0 0 0 0 0 0 0 0 0 0 0 0 0 0 0 0 0 0 127 0" result="hardAlpha"/>
<feOffset dy="1"/>
<feGaussianBlur stdDeviation="1.5"/>
<feComposite in2="hardAlpha" operator="arithmetic" k2="-1" k3="1"/>
<feColorMatrix type="matrix" values="0 0 0 0 1 0 0 0 0 0.788235 0 0 0 0 0.54902 0 0 0 1 0"/>
<feBlend mode="normal" in2="shape" result="effect1_innerShadow_0_5395"/>
</filter>
<filter id="filter12_f_0_5395" x="34.2495" y="300.827" width="33.1568" height="39.1309" filterUnits="userSpaceOnUse" color-interpolation-filters="sRGB">
<feFlood flood-opacity="0" result="BackgroundImageFix"/>
<feBlend mode="normal" in="SourceGraphic" in2="BackgroundImageFix" result="shape"/>
<feGaussianBlur stdDeviation="1.35914" result="effect1_foregroundBlur_0_5395"/>
</filter>
<filter id="filter13_i_0_5395" x="9.09717" y="267.885" width="90.7285" height="57.5146" filterUnits="userSpaceOnUse" color-interpolation-filters="sRGB">
<feFlood flood-opacity="0" result="BackgroundImageFix"/>
<feBlend mode="normal" in="SourceGraphic" in2="BackgroundImageFix" result="shape"/>
<feColorMatrix in="SourceAlpha" type="matrix" values="0 0 0 0 0 0 0 0 0 0 0 0 0 0 0 0 0 0 127 0" result="hardAlpha"/>
<feOffset dy="1"/>
<feGaussianBlur stdDeviation="1.5"/>
<feComposite in2="hardAlpha" operator="arithmetic" k2="-1" k3="1"/>
<feColorMatrix type="matrix" values="0 0 0 0 1 0 0 0 0 0.788235 0 0 0 0 0.54902 0 0 0 1 0"/>
<feBlend mode="normal" in2="shape" result="effect1_innerShadow_0_5395"/>
</filter>
<filter id="filter14_i_0_5395" x="-5" y="333" width="45" height="48.8818" filterUnits="userSpaceOnUse" color-interpolation-filters="sRGB">
<feFlood flood-opacity="0" result="BackgroundImageFix"/>
<feBlend mode="normal" in="SourceGraphic" in2="BackgroundImageFix" result="shape"/>
<feColorMatrix in="SourceAlpha" type="matrix" values="0 0 0 0 0 0 0 0 0 0 0 0 0 0 0 0 0 0 127 0" result="hardAlpha"/>
<feOffset dy="1"/>
<feGaussianBlur stdDeviation="4"/>
<feComposite in2="hardAlpha" operator="arithmetic" k2="-1" k3="1"/>
<feColorMatrix type="matrix" values="0 0 0 0 0.192157 0 0 0 0 0.898039 0 0 0 0 0.223529 0 0 0 1 0"/>
<feBlend mode="normal" in2="shape" result="effect1_innerShadow_0_5395"/>
</filter>
<filter id="filter15_i_0_5395" x="34" y="363.213" width="28" height="18.792" filterUnits="userSpaceOnUse" color-interpolation-filters="sRGB">
<feFlood flood-opacity="0" result="BackgroundImageFix"/>
<feBlend mode="normal" in="SourceGraphic" in2="BackgroundImageFix" result="shape"/>
<feColorMatrix in="SourceAlpha" type="matrix" values="0 0 0 0 0 0 0 0 0 0 0 0 0 0 0 0 0 0 127 0" result="hardAlpha"/>
<feOffset dy="1"/>
<feGaussianBlur stdDeviation="1.5"/>
<feComposite in2="hardAlpha" operator="arithmetic" k2="-1" k3="1"/>
<feColorMatrix type="matrix" values="0 0 0 0 0.466667 0 0 0 0 0.972549 0 0 0 0 0.2 0 0 0 0.5 0"/>
<feBlend mode="normal" in2="shape" result="effect1_innerShadow_0_5395"/>
</filter>
<filter id="filter16_i_0_5395" x="62" y="372.104" width="44" height="10.8105" filterUnits="userSpaceOnUse" color-interpolation-filters="sRGB">
<feFlood flood-opacity="0" result="BackgroundImageFix"/>
<feBlend mode="normal" in="SourceGraphic" in2="BackgroundImageFix" result="shape"/>
<feColorMatrix in="SourceAlpha" type="matrix" values="0 0 0 0 0 0 0 0 0 0 0 0 0 0 0 0 0 0 127 0" result="hardAlpha"/>
<feOffset dy="1"/>
<feGaussianBlur stdDeviation="3.5"/>
<feComposite in2="hardAlpha" operator="arithmetic" k2="-1" k3="1"/>
<feColorMatrix type="matrix" values="0 0 0 0 0.0784314 0 0 0 0 0.843137 0 0 0 0 0.2 0 0 0 1 0"/>
<feBlend mode="normal" in2="shape" result="effect1_innerShadow_0_5395"/>
</filter>
<filter id="filter17_i_0_5395" x="108" y="373.888" width="47" height="9.97656" filterUnits="userSpaceOnUse" color-interpolation-filters="sRGB">
<feFlood flood-opacity="0" result="BackgroundImageFix"/>
<feBlend mode="normal" in="SourceGraphic" in2="BackgroundImageFix" result="shape"/>
<feColorMatrix in="SourceAlpha" type="matrix" values="0 0 0 0 0 0 0 0 0 0 0 0 0 0 0 0 0 0 127 0" result="hardAlpha"/>
<feOffset dy="1"/>
<feGaussianBlur stdDeviation="3.5"/>
<feComposite in2="hardAlpha" operator="arithmetic" k2="-1" k3="1"/>
<feColorMatrix type="matrix" values="0 0 0 0 0.0784314 0 0 0 0 0.843137 0 0 0 0 0.2 0 0 0 1 0"/>
<feBlend mode="normal" in2="shape" result="effect1_innerShadow_0_5395"/>
</filter>
<filter id="filter18_i_0_5395" x="219" y="350.097" width="33" height="28.8994" filterUnits="userSpaceOnUse" color-interpolation-filters="sRGB">
<feFlood flood-opacity="0" result="BackgroundImageFix"/>
<feBlend mode="normal" in="SourceGraphic" in2="BackgroundImageFix" result="shape"/>
<feColorMatrix in="SourceAlpha" type="matrix" values="0 0 0 0 0 0 0 0 0 0 0 0 0 0 0 0 0 0 127 0" result="hardAlpha"/>
<feOffset dy="1"/>
<feGaussianBlur stdDeviation="3.5"/>
<feComposite in2="hardAlpha" operator="arithmetic" k2="-1" k3="1"/>
<feColorMatrix type="matrix" values="0 0 0 0 0.0784314 0 0 0 0 0.843137 0 0 0 0 0.2 0 0 0 1 0"/>
<feBlend mode="normal" in2="shape" result="effect1_innerShadow_0_5395"/>
</filter>
<filter id="filter19_i_0_5395" x="292" y="357.338" width="31.3867" height="28.6592" filterUnits="userSpaceOnUse" color-interpolation-filters="sRGB">
<feFlood flood-opacity="0" result="BackgroundImageFix"/>
<feBlend mode="normal" in="SourceGraphic" in2="BackgroundImageFix" result="shape"/>
<feColorMatrix in="SourceAlpha" type="matrix" values="0 0 0 0 0 0 0 0 0 0 0 0 0 0 0 0 0 0 127 0" result="hardAlpha"/>
<feOffset dy="1"/>
<feGaussianBlur stdDeviation="3.5"/>
<feComposite in2="hardAlpha" operator="arithmetic" k2="-1" k3="1"/>
<feColorMatrix type="matrix" values="0 0 0 0 0.0784314 0 0 0 0 0.843137 0 0 0 0 0.2 0 0 0 1 0"/>
<feBlend mode="normal" in2="shape" result="effect1_innerShadow_0_5395"/>
</filter>
<filter id="filter20_i_0_5395" x="326" y="317.972" width="65.6465" height="68.0254" filterUnits="userSpaceOnUse" color-interpolation-filters="sRGB">
<feFlood flood-opacity="0" result="BackgroundImageFix"/>
<feBlend mode="normal" in="SourceGraphic" in2="BackgroundImageFix" result="shape"/>
<feColorMatrix in="SourceAlpha" type="matrix" values="0 0 0 0 0 0 0 0 0 0 0 0 0 0 0 0 0 0 127 0" result="hardAlpha"/>
<feOffset dy="1"/>
<feGaussianBlur stdDeviation="3.5"/>
<feComposite in2="hardAlpha" operator="arithmetic" k2="-1" k3="1"/>
<feColorMatrix type="matrix" values="0 0 0 0 0.0784314 0 0 0 0 0.843137 0 0 0 0 0.2 0 0 0 1 0"/>
<feBlend mode="normal" in2="shape" result="effect1_innerShadow_0_5395"/>
</filter>
<filter id="filter21_i_0_5395" x="320.198" y="292.968" width="63.7422" height="91.3418" filterUnits="userSpaceOnUse" color-interpolation-filters="sRGB">
<feFlood flood-opacity="0" result="BackgroundImageFix"/>
<feBlend mode="normal" in="SourceGraphic" in2="BackgroundImageFix" result="shape"/>
<feColorMatrix in="SourceAlpha" type="matrix" values="0 0 0 0 0 0 0 0 0 0 0 0 0 0 0 0 0 0 127 0" result="hardAlpha"/>
<feOffset dy="1"/>
<feGaussianBlur stdDeviation="1.5"/>
<feComposite in2="hardAlpha" operator="arithmetic" k2="-1" k3="1"/>
<feColorMatrix type="matrix" values="0 0 0 0 0.584314 0 0 0 0 1 0 0 0 0 0.529412 0 0 0 1 0"/>
<feBlend mode="normal" in2="shape" result="effect1_innerShadow_0_5395"/>
</filter>
<filter id="filter22_i_0_5395" x="349.334" y="283.018" width="41.7036" height="92.8008" filterUnits="userSpaceOnUse" color-interpolation-filters="sRGB">
<feFlood flood-opacity="0" result="BackgroundImageFix"/>
<feBlend mode="normal" in="SourceGraphic" in2="BackgroundImageFix" result="shape"/>
<feColorMatrix in="SourceAlpha" type="matrix" values="0 0 0 0 0 0 0 0 0 0 0 0 0 0 0 0 0 0 127 0" result="hardAlpha"/>
<feOffset dy="1"/>
<feGaussianBlur stdDeviation="1.5"/>
<feComposite in2="hardAlpha" operator="arithmetic" k2="-1" k3="1"/>
<feColorMatrix type="matrix" values="0 0 0 0 0.109804 0 0 0 0 0.792157 0 0 0 0 0.458824 0 0 0 1 0"/>
<feBlend mode="normal" in2="shape" result="effect1_innerShadow_0_5395"/>
</filter>
<filter id="filter23_i_0_5395" x="37.1094" y="346.219" width="21.9233" height="40.7803" filterUnits="userSpaceOnUse" color-interpolation-filters="sRGB">
<feFlood flood-opacity="0" result="BackgroundImageFix"/>
<feBlend mode="normal" in="SourceGraphic" in2="BackgroundImageFix" result="shape"/>
<feColorMatrix in="SourceAlpha" type="matrix" values="0 0 0 0 0 0 0 0 0 0 0 0 0 0 0 0 0 0 127 0" result="hardAlpha"/>
<feOffset dy="1"/>
<feGaussianBlur stdDeviation="1"/>
<feComposite in2="hardAlpha" operator="arithmetic" k2="-1" k3="1"/>
<feColorMatrix type="matrix" values="0 0 0 0 0.0784314 0 0 0 0 0.843137 0 0 0 0 0.2 0 0 0 1 0"/>
<feBlend mode="normal" in2="shape" result="effect1_innerShadow_0_5395"/>
</filter>
<filter id="filter24_i_0_5395" x="67.4263" y="349.327" width="21.5186" height="39.876" filterUnits="userSpaceOnUse" color-interpolation-filters="sRGB">
<feFlood flood-opacity="0" result="BackgroundImageFix"/>
<feBlend mode="normal" in="SourceGraphic" in2="BackgroundImageFix" result="shape"/>
<feColorMatrix in="SourceAlpha" type="matrix" values="0 0 0 0 0 0 0 0 0 0 0 0 0 0 0 0 0 0 127 0" result="hardAlpha"/>
<feOffset dy="1"/>
<feGaussianBlur stdDeviation="1"/>
<feComposite in2="hardAlpha" operator="arithmetic" k2="-1" k3="1"/>
<feColorMatrix type="matrix" values="0 0 0 0 0.0784314 0 0 0 0 0.843137 0 0 0 0 0.2 0 0 0 1 0"/>
<feBlend mode="normal" in2="shape" result="effect1_innerShadow_0_5395"/>
</filter>
<filter id="filter25_i_0_5395" x="269" y="351.5" width="11.4849" height="39.1484" filterUnits="userSpaceOnUse" color-interpolation-filters="sRGB">
<feFlood flood-opacity="0" result="BackgroundImageFix"/>
<feBlend mode="normal" in="SourceGraphic" in2="BackgroundImageFix" result="shape"/>
<feColorMatrix in="SourceAlpha" type="matrix" values="0 0 0 0 0 0 0 0 0 0 0 0 0 0 0 0 0 0 127 0" result="hardAlpha"/>
<feOffset dy="1"/>
<feGaussianBlur stdDeviation="3.5"/>
<feComposite in2="hardAlpha" operator="arithmetic" k2="-1" k3="1"/>
<feColorMatrix type="matrix" values="0 0 0 0 0.0784314 0 0 0 0 0.843137 0 0 0 0 0.2 0 0 0 1 0"/>
<feBlend mode="normal" in2="shape" result="effect1_innerShadow_0_5395"/>
</filter>
<filter id="filter26_i_0_5395" x="167" y="350.6" width="140.936" height="42.3994" filterUnits="userSpaceOnUse" color-interpolation-filters="sRGB">
<feFlood flood-opacity="0" result="BackgroundImageFix"/>
<feBlend mode="normal" in="SourceGraphic" in2="BackgroundImageFix" result="shape"/>
<feColorMatrix in="SourceAlpha" type="matrix" values="0 0 0 0 0 0 0 0 0 0 0 0 0 0 0 0 0 0 127 0" result="hardAlpha"/>
<feOffset dy="1"/>
<feGaussianBlur stdDeviation="3.5"/>
<feComposite in2="hardAlpha" operator="arithmetic" k2="-1" k3="1"/>
<feColorMatrix type="matrix" values="0 0 0 0 0.0784314 0 0 0 0 0.843137 0 0 0 0 0.2 0 0 0 1 0"/>
<feBlend mode="normal" in2="shape" result="effect1_innerShadow_0_5395"/>
</filter>
<filter id="filter27_i_0_5395" x="321.377" y="342" width="11.625" height="14.999" filterUnits="userSpaceOnUse" color-interpolation-filters="sRGB">
<feFlood flood-opacity="0" result="BackgroundImageFix"/>
<feBlend mode="normal" in="SourceGraphic" in2="BackgroundImageFix" result="shape"/>
<feColorMatrix in="SourceAlpha" type="matrix" values="0 0 0 0 0 0 0 0 0 0 0 0 0 0 0 0 0 0 127 0" result="hardAlpha"/>
<feOffset dy="1"/>
<feGaussianBlur stdDeviation="1.5"/>
<feComposite in2="hardAlpha" operator="arithmetic" k2="-1" k3="1"/>
<feColorMatrix type="matrix" values="0 0 0 0 1 0 0 0 0 0.517647 0 0 0 0 0.517647 0 0 0 1 0"/>
<feBlend mode="normal" in2="shape" result="effect1_innerShadow_0_5395"/>
</filter>
<filter id="filter28_i_0_5395" x="-16" y="300.663" width="59.6968" height="80.9648" filterUnits="userSpaceOnUse" color-interpolation-filters="sRGB">
<feFlood flood-opacity="0" result="BackgroundImageFix"/>
<feBlend mode="normal" in="SourceGraphic" in2="BackgroundImageFix" result="shape"/>
<feColorMatrix in="SourceAlpha" type="matrix" values="0 0 0 0 0 0 0 0 0 0 0 0 0 0 0 0 0 0 127 0" result="hardAlpha"/>
<feOffset dy="1"/>
<feGaussianBlur stdDeviation="3.5"/>
<feComposite in2="hardAlpha" operator="arithmetic" k2="-1" k3="1"/>
<feColorMatrix type="matrix" values="0 0 0 0 0.0784314 0 0 0 0 0.843137 0 0 0 0 0.2 0 0 0 1 0"/>
<feBlend mode="normal" in2="shape" result="effect1_innerShadow_0_5395"/>
</filter>
<filter id="filter29_i_0_5395" x="-6.0708" y="328.29" width="40.0078" height="50.8604" filterUnits="userSpaceOnUse" color-interpolation-filters="sRGB">
<feFlood flood-opacity="0" result="BackgroundImageFix"/>
<feBlend mode="normal" in="SourceGraphic" in2="BackgroundImageFix" result="shape"/>
<feColorMatrix in="SourceAlpha" type="matrix" values="0 0 0 0 0 0 0 0 0 0 0 0 0 0 0 0 0 0 127 0" result="hardAlpha"/>
<feOffset dy="1"/>
<feGaussianBlur stdDeviation="4"/>
<feComposite in2="hardAlpha" operator="arithmetic" k2="-1" k3="1"/>
<feColorMatrix type="matrix" values="0 0 0 0 0.192157 0 0 0 0 0.898039 0 0 0 0 0.223529 0 0 0 1 0"/>
<feBlend mode="normal" in2="shape" result="effect1_innerShadow_0_5395"/>
</filter>
<filter id="filter30_i_0_5395" x="-4.60352" y="345.138" width="38.1968" height="43.626" filterUnits="userSpaceOnUse" color-interpolation-filters="sRGB">
<feFlood flood-opacity="0" result="BackgroundImageFix"/>
<feBlend mode="normal" in="SourceGraphic" in2="BackgroundImageFix" result="shape"/>
<feColorMatrix in="SourceAlpha" type="matrix" values="0 0 0 0 0 0 0 0 0 0 0 0 0 0 0 0 0 0 127 0" result="hardAlpha"/>
<feOffset dy="1"/>
<feGaussianBlur stdDeviation="3"/>
<feComposite in2="hardAlpha" operator="arithmetic" k2="-1" k3="1"/>
<feColorMatrix type="matrix" values="0 0 0 0 0.87451 0 0 0 0 0.984314 0 0 0 0 0.341176 0 0 0 0.5 0"/>
<feBlend mode="normal" in2="shape" result="effect1_innerShadow_0_5395"/>
</filter>
<linearGradient id="paint0_linear_0_5395" x1="16.1977" y1="-28.1141" x2="16.1977" y2="340.684" gradientUnits="userSpaceOnUse">
<stop stop-color="#01ACF8"/>
<stop offset="1" stop-color="#75F6FD"/>
</linearGradient>
<linearGradient id="paint1_linear_0_5395" x1="329.49" y1="107.405" x2="329.49" y2="137.998" gradientUnits="userSpaceOnUse">
<stop stop-color="white" stop-opacity="0.01"/>
<stop offset="1" stop-color="#84E3FF"/>
</linearGradient>
<linearGradient id="paint2_linear_0_5395" x1="-58.323" y1="85.3411" x2="-58.323" y2="125" gradientUnits="userSpaceOnUse">
<stop stop-color="white" stop-opacity="0.01"/>
<stop offset="1" stop-color="#84E3FF"/>
</linearGradient>
<linearGradient id="paint3_linear_0_5395" x1="-124.834" y1="280.314" x2="-116.048" y2="377.129" gradientUnits="userSpaceOnUse">
<stop stop-color="#C8FB54"/>
<stop offset="1" stop-color="#2BDE57"/>
</linearGradient>
<linearGradient id="paint4_linear_0_5395" x1="193.199" y1="271.791" x2="184.374" y2="345.536" gradientUnits="userSpaceOnUse">
<stop stop-color="#C8FB54"/>
<stop offset="1" stop-color="#2BDE57"/>
</linearGradient>
<linearGradient id="paint5_linear_0_5395" x1="-85.144" y1="135.37" x2="-95.6556" y2="411.168" gradientUnits="userSpaceOnUse">
<stop stop-color="#C8FB54"/>
<stop offset="1" stop-color="#12DA58"/>
</linearGradient>
<linearGradient id="paint6_linear_0_5395" x1="-49.1145" y1="805.191" x2="-13.6104" y2="810.249" gradientUnits="userSpaceOnUse">
<stop stop-color="#FCB260"/>
<stop offset="1" stop-color="#FFBB70"/>
</linearGradient>
<linearGradient id="paint7_linear_0_5395" x1="3.93572" y1="507.415" x2="69.4351" y2="517.779" gradientUnits="userSpaceOnUse">
<stop stop-color="#FFA94A"/>
<stop offset="1" stop-color="#D47913"/>
</linearGradient>
<linearGradient id="paint8_linear_0_5395" x1="-12.4704" y1="270.059" x2="-9.78614" y2="324.716" gradientUnits="userSpaceOnUse">
<stop stop-color="#FFB665"/>
<stop offset="1" stop-color="#D47913"/>
</linearGradient>
<clipPath id="clip0_0_5395">
<rect width="375" height="380" fill="white"/>
</clipPath>
<clipPath id="clip1_0_5395">
<rect width="375" height="380" fill="white"/>
</clipPath>
<clipPath id="clip2_0_5395">
<rect width="375" height="380" fill="white"/>
</clipPath>
<clipPath id="clip3_0_5395">
<rect width="102.999" height="26.9949" fill="white" transform="translate(329 111)"/>
</clipPath>
<clipPath id="clip4_0_5395">
<rect width="137" height="172" fill="white" transform="translate(11 180)"/>
</clipPath>
<clipPath id="clip5_0_5395">
<rect width="71" height="129" fill="white" transform="translate(11 180)"/>
</clipPath>
<clipPath id="clip6_0_5395">
<rect width="48" height="86" fill="white" transform="translate(100 266)"/>
</clipPath>
<clipPath id="clip7_0_5395">
<rect width="102" height="150" fill="white" transform="translate(273 187)"/>
</clipPath>
<clipPath id="clip8_0_5395">
<rect width="71" height="129" fill="white" transform="translate(304 187)"/>
</clipPath>
<clipPath id="clip9_0_5395">
<rect width="48" height="86" fill="white" transform="translate(273 251)"/>
</clipPath>
<clipPath id="clip10_0_5395">
<rect width="161.998" height="35" fill="white" transform="translate(-35.9985 90)"/>
</clipPath>
<clipPath id="clip11_0_5395">
<rect width="261.088" height="58.6179" fill="white" transform="translate(167 294.382)"/>
</clipPath>
<clipPath id="clip12_0_5395">
<rect width="278.823" height="58.4569" fill="white" transform="translate(-61.7734 302.033)"/>
</clipPath>
<clipPath id="clip13_0_5395">
<rect width="14" height="20.6154" fill="white" transform="translate(282 276)"/>
</clipPath>
<clipPath id="clip14_0_5395">
<rect width="413.361" height="119.727" fill="white" transform="translate(-12.0039 305)"/>
</clipPath>
<clipPath id="clip15_0_5395">
<rect width="88.5795" height="132" fill="white" transform="translate(14.0498 256.901) rotate(8)"/>
</clipPath>
<clipPath id="clip16_0_5395">
<rect width="4.3745" height="132" fill="white" transform="translate(45.5435 261.327) rotate(8)"/>
</clipPath>
<clipPath id="clip17_0_5395">
<rect width="17.4675" height="131" fill="white" transform="translate(49.0283 261.987) rotate(8)"/>
</clipPath>
<clipPath id="clip18_0_5395">
<rect width="17.4673" height="131" fill="white" transform="translate(49.0283 261.987) rotate(8)"/>
</clipPath>
<clipPath id="clip19_0_5395">
<rect width="86.2" height="46" fill="white" transform="translate(14.9819 267.367) rotate(8)"/>
</clipPath>
<clipPath id="clip20_0_5395">
<rect width="417.921" height="108.999" fill="white" transform="translate(-5 283)"/>
</clipPath>
<clipPath id="clip21_0_5395">
<rect width="417.921" height="108.999" fill="white" transform="translate(-5 283)"/>
</clipPath>
<clipPath id="clip22_0_5395">
<rect width="114.905" height="101.197" fill="white" transform="translate(298.016 283)"/>
</clipPath>
<clipPath id="clip23_0_5395">
<rect width="11.6195" height="14" fill="white" transform="translate(321.38 342)"/>
</clipPath>
<clipPath id="clip24_0_5395">
<rect width="11.6195" height="14" fill="white" transform="translate(321.38 342)"/>
</clipPath>
<clipPath id="clip25_0_5395">
<rect width="59.6962" height="80.3343" fill="white" transform="translate(-16 300.666)"/>
</clipPath>
</defs>
</svg>
