<svg width="151" height="152" viewBox="0 0 151 152" fill="none" xmlns="http://www.w3.org/2000/svg">
<g clip-path="url(#clip0_0_5590)">
<g filter="url(#filter0_i_0_5590)">
<path fill-rule="evenodd" clip-rule="evenodd" d="M75.5 0C33.8 0 0 34.03 0 76C0 117.97 33.8 152 75.5 152C117.2 152 151 117.97 151 76C151 34.03 117.2 0 75.5 0Z" fill="black" fill-opacity="0.01"/>
</g>
<g filter="url(#filter1_f_0_5590)">
<path fill-rule="evenodd" clip-rule="evenodd" d="M34.9143 21.0302C31.5652 23.6468 29.6487 26.7812 30.6276 28.0341C31.6127 29.2949 35.1176 28.1936 38.4667 25.577C41.8157 22.9605 43.7401 19.8199 42.7551 18.5591C41.7762 17.3062 38.2633 18.4136 34.9143 21.0302Z" fill="white"/>
</g>
</g>
<defs>
<filter id="filter0_i_0_5590" x="0" y="0" width="151" height="152" filterUnits="userSpaceOnUse" color-interpolation-filters="sRGB">
<feFlood flood-opacity="0" result="BackgroundImageFix"/>
<feBlend mode="normal" in="SourceGraphic" in2="BackgroundImageFix" result="shape"/>
<feColorMatrix in="SourceAlpha" type="matrix" values="0 0 0 0 0 0 0 0 0 0 0 0 0 0 0 0 0 0 127 0" result="hardAlpha"/>
<feOffset/>
<feGaussianBlur stdDeviation="12"/>
<feComposite in2="hardAlpha" operator="arithmetic" k2="-1" k3="1"/>
<feColorMatrix type="matrix" values="0 0 0 0 1 0 0 0 0 1 0 0 0 0 1 0 0 0 1 0"/>
<feBlend mode="normal" in2="shape" result="effect1_innerShadow_0_5590"/>
</filter>
<filter id="filter1_f_0_5590" x="27.6533" y="15.3247" width="18.0777" height="15.9502" filterUnits="userSpaceOnUse" color-interpolation-filters="sRGB">
<feFlood flood-opacity="0" result="BackgroundImageFix"/>
<feBlend mode="normal" in="SourceGraphic" in2="BackgroundImageFix" result="shape"/>
<feGaussianBlur stdDeviation="1.35914" result="effect1_foregroundBlur_0_5590"/>
</filter>
<clipPath id="clip0_0_5590">
<rect width="151" height="152" fill="white"/>
</clipPath>
</defs>
</svg>
