<svg width="50" height="50" viewBox="0 0 50 50" fill="none" xmlns="http://www.w3.org/2000/svg">
<g clip-path="url(#clip0_0_6321)">
<g clip-path="url(#clip1_0_6321)">
<path fill-rule="evenodd" clip-rule="evenodd" d="M25 0C11.19 0 0 11.19 0 25C0 38.81 11.19 50 25 50C38.81 50 50 38.81 50 25C50 11.19 38.81 0 25 0Z" fill="#FDE4B9"/>
<path fill-rule="evenodd" clip-rule="evenodd" d="M25 0C11.19 0 0 11.19 0 25C0 38.81 11.19 50 25 50C38.81 50 50 38.81 50 25C50 11.19 38.81 0 25 0Z" fill="url(#paint0_linear_0_6321)"/>
</g>
<g clip-path="url(#clip2_0_6321)">
<path fill-rule="evenodd" clip-rule="evenodd" d="M25.0035 3.56348C13.1635 3.56348 3.56348 13.1635 3.56348 25.0035C3.56348 36.8435 13.1635 46.4335 25.0035 46.4335C36.8435 46.4335 46.4335 36.8435 46.4335 25.0035C46.4335 13.1635 36.8435 3.56348 25.0035 3.56348Z" fill="#FDE4B9"/>
<path fill-rule="evenodd" clip-rule="evenodd" d="M25.0035 3.56348C13.1635 3.56348 3.56348 13.1635 3.56348 25.0035C3.56348 36.8435 13.1635 46.4335 25.0035 46.4335C36.8435 46.4335 46.4335 36.8435 46.4335 25.0035C46.4335 13.1635 36.8435 3.56348 25.0035 3.56348Z" fill="url(#paint1_linear_0_6321)"/>
</g>
<g clip-path="url(#clip3_0_6321)">
<path fill-rule="evenodd" clip-rule="evenodd" d="M25.0001 6.10938C14.2901 6.10938 5.6001 14.7994 5.6001 25.5094C5.6001 36.2194 14.2901 44.9094 25.0001 44.9094C35.7101 44.9094 44.4001 36.2194 44.4001 25.5094C44.4001 14.7994 35.7101 6.10938 25.0001 6.10938Z" fill="#FDE4B9"/>
<path fill-rule="evenodd" clip-rule="evenodd" d="M25.0001 6.10938C14.2901 6.10938 5.6001 14.7994 5.6001 25.5094C5.6001 36.2194 14.2901 44.9094 25.0001 44.9094C35.7101 44.9094 44.4001 36.2194 44.4001 25.5094C44.4001 14.7994 35.7101 6.10938 25.0001 6.10938Z" fill="url(#paint2_linear_0_6321)"/>
</g>
</g>
<defs>
<linearGradient id="paint0_linear_0_6321" x1="53.4827" y1="56.9655" x2="53.4827" y2="0" gradientUnits="userSpaceOnUse">
<stop stop-color="#FE8102"/>
<stop offset="1" stop-color="#FEEFAD"/>
</linearGradient>
<linearGradient id="paint1_linear_0_6321" x1="-13.8219" y1="-10.7843" x2="-12.7896" y2="66.8564" gradientUnits="userSpaceOnUse">
<stop stop-color="#FE8102"/>
<stop offset="1" stop-color="#FEEFAD"/>
</linearGradient>
<linearGradient id="paint2_linear_0_6321" x1="47.1027" y1="50.3146" x2="47.1027" y2="6.10938" gradientUnits="userSpaceOnUse">
<stop stop-color="#FE8102"/>
<stop offset="1" stop-color="#FEEFAD"/>
</linearGradient>
<clipPath id="clip0_0_6321">
<rect width="50" height="50" fill="white"/>
</clipPath>
<clipPath id="clip1_0_6321">
<rect width="50" height="50" fill="white"/>
</clipPath>
<clipPath id="clip2_0_6321">
<rect width="42.8728" height="42.8728" fill="white" transform="translate(3.56348 3.56348)"/>
</clipPath>
<clipPath id="clip3_0_6321">
<rect width="38.8001" height="38.8001" fill="white" transform="translate(5.6001 6.10938)"/>
</clipPath>
</defs>
</svg>
