<svg width="42" height="42" viewBox="0 0 42 42" fill="none" xmlns="http://www.w3.org/2000/svg">
<g clip-path="url(#clip0_0_5772)">
<g opacity="0.55" clip-path="url(#clip1_0_5772)">
<path fill-rule="evenodd" clip-rule="evenodd" d="M21 0C9.4 0 0 9.4 0 21C0 32.6 9.4 42 21 42C32.6 42 42 32.6 42 21C42 9.4 32.6 0 21 0Z" fill="#00C757"/>
</g>
<g clip-path="url(#clip2_0_5772)">
<mask id="mask0_0_5772" style="mask-type:luminance" maskUnits="userSpaceOnUse" x="0" y="0" width="42" height="42">
<path fill-rule="evenodd" clip-rule="evenodd" d="M21 42C32.6 42 42 32.6 42 21C42 9.4 32.6 0 21 0C9.4 0 0 9.4 0 21C0 32.6 9.4 42 21 42Z" fill="white"/>
</mask>
<g mask="url(#mask0_0_5772)">
<path fill-rule="evenodd" clip-rule="evenodd" d="M27.8533 13.4476C27.9633 13.7976 28.5133 13.6876 28.8033 14.1076C29.0933 14.5176 29.0133 15.2076 29.5933 15.5576C30.1733 15.9076 31.6933 15.3276 31.7733 15.8076C31.8533 16.2976 31.5433 19.7076 31.5433 19.7076L36.6733 18.2676C36.6733 18.2676 34.7433 14.6376 34.6833 13.5076C34.6233 12.3876 33.9233 8.40757 32.4133 8.35757C30.9133 8.30757 28.0933 8.86757 27.8233 9.96757C27.5633 11.0076 28.0233 11.3876 28.0233 11.7976C28.0133 12.1976 27.7433 13.0976 27.8533 13.4476Z" fill="#FFE1C8"/>
<path fill-rule="evenodd" clip-rule="evenodd" d="M26.4798 9.14602C27.1998 12.226 30.9798 9.94602 31.3798 11.666C31.3898 11.666 31.5198 13.936 31.0598 14.376C30.5998 14.816 29.2798 13.986 28.8198 14.066C28.4498 14.136 27.7498 18.036 30.4698 17.396C33.1898 16.756 31.4998 11.566 33.1598 11.176C34.0098 10.976 33.9898 14.646 35.1498 14.376C36.2198 14.126 37.0998 12.416 36.4498 9.62602C35.7298 6.58602 33.0798 5.92602 31.1598 6.37602C28.9998 6.87602 27.9398 6.94602 27.7598 6.16602C27.0798 6.32602 26.1498 7.74602 26.4798 9.14602Z" fill="#0B224E"/>
<path fill-rule="evenodd" clip-rule="evenodd" d="M12.0809 30.2628C10.4409 30.1228 9.55088 30.7628 10.8909 31.2028C12.2409 31.6428 13.2209 32.8628 15.3009 32.9728C16.5109 33.0328 19.3909 32.9728 19.3909 32.9728L17.6809 30.8928C17.6809 30.8928 16.7809 30.7228 16.3409 30.6528C15.9009 30.5828 13.7209 30.3928 12.0809 30.2628Z" fill="#FFE1C8"/>
<path fill-rule="evenodd" clip-rule="evenodd" d="M27.5649 41.9104C27.5649 41.9104 31.9949 54.4804 33.5249 56.2204C34.7049 57.5704 41.0849 66.3704 41.0849 66.3704L44.1849 64.4904C44.1849 64.4904 40.4249 56.3704 37.9149 52.5904C37.4949 49.6704 35.9849 40.0504 33.7849 37.1104L27.5649 41.9104Z" fill="#0B224E"/>
<path fill-rule="evenodd" clip-rule="evenodd" d="M35.5899 34.7035C34.2399 34.4335 32.8299 34.1735 31.4899 34.4935C30.5899 34.7035 29.6799 35.1835 28.7999 34.9335C28.4499 34.8335 28.0599 34.6335 27.7599 34.8335C27.7499 34.8435 27.7299 34.8535 27.7199 34.8735C27.5799 34.9935 27.5199 35.1835 27.4599 35.3735C26.1799 39.8835 25.6199 46.5935 25.3999 52.6835C25.1199 60.3435 25.1499 68.3835 25.1499 68.3835L28.6699 68.4035C28.6699 68.4035 30.7299 58.6935 30.8899 53.4135C32.0299 50.4035 34.3599 44.2035 35.4199 41.3435C36.1199 39.4535 36.2999 37.3935 36.2199 35.3735C36.2099 35.2335 36.1999 35.0835 36.1199 34.9635C36.0099 34.7935 35.7899 34.7435 35.5899 34.7035Z" fill="#102B5E"/>
<path fill-rule="evenodd" clip-rule="evenodd" d="M33.5223 17.2837C27.8923 17.8137 27.5423 24.6437 27.1623 28.7337C27.1023 29.3237 27.0523 29.8637 26.9823 30.3137C26.6923 32.0937 25.7423 34.4537 25.1023 36.5437C24.4623 38.6337 24.1223 40.4637 25.0623 41.1937C26.9423 42.6737 29.8923 40.3237 32.1723 40.1937C34.4523 40.0537 38.4823 42.0737 37.2723 39.1837C36.0623 36.2937 37.6723 32.8037 38.4823 25.0737C39.2923 17.3537 34.9223 17.1537 33.5223 17.2837Z" fill="#00C757"/>
<path fill-rule="evenodd" clip-rule="evenodd" d="M31.5325 21.1445C29.9125 22.6745 28.5625 26.7345 27.8925 27.9145C27.7125 28.2245 27.4625 28.4945 27.1625 28.7345C27.1025 29.3245 27.0525 29.8645 26.9825 30.3145C26.6925 32.0945 25.7425 34.4545 25.1025 36.5445C27.8825 36.3645 32.2025 36.1745 33.6625 33.3745C35.2025 30.4145 35.6125 20.9245 35.6125 20.9245C35.0825 20.9245 33.1525 19.6145 31.5325 21.1445Z" fill="#08AC50"/>
<path fill-rule="evenodd" clip-rule="evenodd" d="M31.074 21.4209C30.534 22.3209 29.334 29.0709 26.714 30.0809C24.104 31.0809 18.594 30.5509 17.664 30.4209C16.724 30.2809 16.854 33.3709 17.664 33.4409C18.464 33.5109 26.104 35.5409 30.274 34.1109C34.434 32.6809 35.924 22.9609 35.924 22.9609C35.924 16.3809 32.014 19.8709 31.074 21.4209Z" fill="#00C757"/>
</g>
<g clip-path="url(#clip3_0_5772)">
<path fill-rule="evenodd" clip-rule="evenodd" d="M12.0898 13C15.5498 13 18.5798 15.11 19.1898 17.94C18.9698 17.92 18.7398 17.9 18.5098 17.9C15.1698 17.9 12.5298 20.4 12.5298 23.47C12.5298 23.99 12.6098 24.48 12.7498 24.95C12.5298 24.97 12.3098 24.98 12.0898 24.98C11.3349 24.98 10.7051 24.8475 9.98577 24.6962C9.86657 24.6712 9.7449 24.6456 9.6198 24.62L7.1598 25.86L7.8698 23.74C6.0998 22.51 5.0498 20.92 5.0498 18.99C5.0498 15.64 8.2198 13 12.0898 13ZM12.9722 23.3911C12.9722 20.5711 15.6122 18.2811 18.9622 18.2811C22.1222 18.2811 24.9422 20.5711 24.9422 23.3911C24.9422 24.9811 23.8822 26.3811 22.4722 27.4411L23.0022 29.2011L21.0722 28.1411C20.3722 28.3211 19.6622 28.5011 18.9622 28.5011C15.6122 28.5011 12.9722 26.2111 12.9722 23.3911Z" fill="url(#paint0_linear_0_5772)"/>
</g>
</g>
</g>
<defs>
<linearGradient id="paint0_linear_0_5772" x1="19.3806" y1="28.266" x2="19.9556" y2="19.6935" gradientUnits="userSpaceOnUse">
<stop stop-color="#89F8BA"/>
<stop offset="1" stop-color="white"/>
</linearGradient>
<clipPath id="clip0_0_5772">
<rect width="42.0003" height="42.0003" fill="white"/>
</clipPath>
<clipPath id="clip1_0_5772">
<rect width="42" height="42" fill="white"/>
</clipPath>
<clipPath id="clip2_0_5772">
<rect width="42.0003" height="42.0003" fill="white"/>
</clipPath>
<clipPath id="clip3_0_5772">
<rect width="19.89" height="16.2" fill="white" transform="translate(5.0498 13)"/>
</clipPath>
</defs>
</svg>
