<svg width="345" height="145" viewBox="0 0 345 145" fill="none" xmlns="http://www.w3.org/2000/svg">
<mask id="mask0_0_8558" style="mask-type:luminance" maskUnits="userSpaceOnUse" x="0" y="0" width="345" height="145">
<path fill-rule="evenodd" clip-rule="evenodd" d="M0 8C0 3.58173 3.58172 0 8 0H337C341.418 0 345 3.58172 345 8V137C345 141.418 341.418 145 337 145H8C3.58172 145 0 141.418 0 137V8Z" fill="white"/>
</mask>
<g mask="url(#mask0_0_8558)">
<path fill-rule="evenodd" clip-rule="evenodd" d="M39.0778 110.681L34.9716 98L29.7579 114.101C29.2055 114.315 28.6563 114.531 28.1103 114.747L21.8764 90L14.1093 120.834C-12.8913 133.729 -29.0044 148.953 -29.0044 162.98C-29.0044 196.13 60.9856 223 171.996 223C283.006 223 372.996 196.13 372.996 162.98C372.996 150.809 360.865 137.738 340.018 126.068L334.207 103L329.733 120.763C327.223 119.566 324.619 118.39 321.925 117.237L317.079 98L313.131 113.676C276.838 99.7776 226.997 90 171.996 90C155.986 90 140.415 90.8284 125.487 92.3456L119.606 69L113.373 93.7441C85.5734 97.3413 60.3285 103.311 39.0778 110.681Z" fill="#0DA24E"/>
<path fill-rule="evenodd" clip-rule="evenodd" d="M39.0778 110.681L34.9716 98L29.7579 114.101C29.2055 114.315 28.6563 114.531 28.1103 114.747L21.8764 90L14.1093 120.834C-12.8913 133.729 -29.0044 148.953 -29.0044 162.98C-29.0044 196.13 60.9856 223 171.996 223C283.006 223 372.996 196.13 372.996 162.98C372.996 150.809 360.865 137.738 340.018 126.068L334.207 103L329.733 120.763C327.223 119.566 324.619 118.39 321.925 117.237L317.079 98L313.131 113.676C276.838 99.7776 226.997 90 171.996 90C155.986 90 140.415 90.8284 125.487 92.3456L119.606 69L113.373 93.7441C85.5734 97.3413 60.3285 103.311 39.0778 110.681Z" fill="url(#paint0_linear_0_8558)"/>
</g>
<defs>
<linearGradient id="paint0_linear_0_8558" x1="-9.87462" y1="-35.5465" x2="-68.4506" y2="252.218" gradientUnits="userSpaceOnUse">
<stop stop-color="#6DD400"/>
<stop offset="1" stop-color="#00C757"/>
</linearGradient>
</defs>
</svg>
