<svg width="375" height="212" viewBox="0 0 375 212" fill="none" xmlns="http://www.w3.org/2000/svg">
<g clip-path="url(#clip0_0_7577)">
<g clip-path="url(#clip1_0_7577)">
<g clip-path="url(#clip2_0_7577)">
<g clip-path="url(#clip3_0_7577)">
<path fill-rule="evenodd" clip-rule="evenodd" d="M0 0H375V212H0V0Z" fill="#10CFF0"/>
<path fill-rule="evenodd" clip-rule="evenodd" d="M0 0H375V212H0V0Z" fill="url(#paint0_linear_0_7577)"/>
</g>
<g clip-path="url(#clip4_0_7577)">
<mask id="mask0_0_7577" style="mask-type:luminance" maskUnits="userSpaceOnUse" x="0" y="0" width="375" height="212">
<path fill-rule="evenodd" clip-rule="evenodd" d="M375 212V0H0V212H375Z" fill="white"/>
</mask>
<g mask="url(#mask0_0_7577)">
<path fill-rule="evenodd" clip-rule="evenodd" d="M357.5 112C351.15 112 346 117.15 346 123.5C346 129.85 351.15 135 357.5 135C363.85 135 369 129.85 369 123.5C369 117.15 363.85 112 357.5 112Z" fill="#FBF890"/>
</g>
<g clip-path="url(#clip5_0_7577)">
<g clip-path="url(#clip6_0_7577)">
<path fill-rule="evenodd" clip-rule="evenodd" d="M84.0086 130.807L113.569 141.817L177.659 154.907L210.049 146.877L321.829 141.817C321.829 141.817 350.479 128.737 361.799 124.247C339.279 126.497 231.439 118.027 164.419 110.257C91.3686 101.787 72.5386 113.467 72.5386 113.467L84.0086 130.807ZM365.719 123.377C367.379 122.227 365.529 122.767 361.799 124.247C363.829 124.047 365.159 123.757 365.719 123.377Z" fill="#1CEA82"/>
<g clip-path="url(#clip7_0_7577)">
<mask id="mask1_0_7577" style="mask-type:luminance" maskUnits="userSpaceOnUse" x="72" y="107" width="295" height="48">
<path fill-rule="evenodd" clip-rule="evenodd" d="M84.0086 130.807L113.569 141.817L177.659 154.907L210.049 146.877L321.829 141.817C321.829 141.817 350.479 128.737 361.799 124.247C339.279 126.497 231.439 118.027 164.419 110.257C91.3686 101.787 72.5386 113.467 72.5386 113.467L84.0086 130.807ZM365.719 123.377C367.379 122.227 365.529 122.767 361.799 124.247C363.829 124.047 365.159 123.757 365.719 123.377Z" fill="white"/>
</mask>
<g mask="url(#mask1_0_7577)">
<path fill-rule="evenodd" clip-rule="evenodd" d="M114.012 98.09C111.192 98.09 66.3421 95 66.3421 95L51.7021 118.72L98.3221 125.3L165.772 146.88C165.772 146.88 238.892 139.43 233.302 139C121.172 123.09 116.842 103.72 116.842 103.72C116.842 103.72 116.842 98.09 114.012 98.09Z" fill="#06D787"/>
</g>
</g>
</g>
<g clip-path="url(#clip8_0_7577)">
<path fill-rule="evenodd" clip-rule="evenodd" d="M-15.2456 194.633L201.944 199.553C201.944 199.553 206.944 142.823 201.944 142.823C196.954 142.823 101.314 121.323 68.2144 112.473C35.1144 103.613 -6.65561 130.183 -6.65561 130.183L-15.2456 194.633Z" fill="#5BE67C"/>
<g clip-path="url(#clip9_0_7577)">
<mask id="mask2_0_7577" style="mask-type:luminance" maskUnits="userSpaceOnUse" x="-16" y="110" width="221" height="90">
<path fill-rule="evenodd" clip-rule="evenodd" d="M-15.2456 194.633L201.944 199.553C201.944 199.553 206.944 142.823 201.944 142.823C196.954 142.823 101.314 121.323 68.2144 112.473C35.1144 103.613 -6.65561 130.183 -6.65561 130.183L-15.2456 194.633Z" fill="white"/>
</mask>
<g mask="url(#mask2_0_7577)">
<path fill-rule="evenodd" clip-rule="evenodd" d="M30.75 103.719L-29 120.939L-41 169.219L-15.25 203.279C-15.25 203.279 94.6 169.219 99.83 169.219C105.07 169.219 106.31 154.909 67.04 138.229C27.77 121.549 44.67 103.719 44.67 103.719H30.75Z" fill="#00A850"/>
</g>
</g>
</g>
<g clip-path="url(#clip10_0_7577)">
<path fill-rule="evenodd" clip-rule="evenodd" d="M-8.69434 184.774V218.744L385.436 215.614L376.656 118.724C376.656 118.724 351.766 128.284 322.386 128.284C293.006 128.284 54.9457 164.474 54.9457 164.474L-8.69434 184.774Z" fill="#5BDF25"/>
<g clip-path="url(#clip11_0_7577)">
<mask id="mask3_0_7577" style="mask-type:luminance" maskUnits="userSpaceOnUse" x="-9" y="118" width="395" height="101">
<path fill-rule="evenodd" clip-rule="evenodd" d="M-8.69434 184.774V218.744L385.436 215.614L376.656 118.724C376.656 118.724 351.766 128.284 322.386 128.284C293.006 128.284 54.9457 164.474 54.9457 164.474L-8.69434 184.774Z" fill="white"/>
</mask>
<g mask="url(#mask3_0_7577)">
<path fill-rule="evenodd" clip-rule="evenodd" d="M332 175H353L342.5 133L332 175Z" fill="#00A850"/>
<path fill-rule="evenodd" clip-rule="evenodd" d="M317 186H338L327.5 144L317 186Z" fill="#06AA54"/>
<path fill-rule="evenodd" clip-rule="evenodd" d="M8.87772 164.471C8.87772 164.471 -25.3423 209.861 -25.3423 212.981C-25.3423 216.101 -8.69229 229.911 -8.69229 229.911L171.348 234.681L391.248 229.911C391.248 229.911 391.248 187.371 391.248 177.091C391.248 166.811 311.708 142.021 248.168 147.721C184.618 153.421 54.9477 164.471 54.9477 164.471H8.87772Z" fill="#00A850"/>
</g>
</g>
</g>
<g clip-path="url(#clip12_0_7577)">
<path fill-rule="evenodd" clip-rule="evenodd" d="M6.29613 238.566L44.8761 247.786L380.656 225.316C380.656 225.316 398.316 202.656 385.436 205.556C372.556 208.446 305.616 196.326 188.376 182.936C71.1261 169.546 -4.96387 196.326 -4.96387 196.326L6.29613 238.566Z" fill="#5BDF25"/>
<g clip-path="url(#clip13_0_7577)">
<mask id="mask4_0_7577" style="mask-type:luminance" maskUnits="userSpaceOnUse" x="-5" y="179" width="396" height="69">
<path fill-rule="evenodd" clip-rule="evenodd" d="M6.29613 238.566L44.8761 247.786L380.656 225.316C380.656 225.316 398.316 202.656 385.436 205.556C372.556 208.446 305.616 196.326 188.376 182.936C71.1261 169.546 -4.96387 196.326 -4.96387 196.326L6.29613 238.566Z" fill="white"/>
</mask>
<g mask="url(#mask4_0_7577)">
<path fill-rule="evenodd" clip-rule="evenodd" d="M42.8272 178.469C23.3272 181.509 -15.2428 194.639 -15.2428 194.639L-33.4028 224.379L0.58717 252.519C0.58717 252.519 137.257 240.239 160.397 234.679C197.477 225.779 63.8472 226.579 72.5372 199.559C74.5672 193.249 88.3772 178.469 88.3772 178.469C88.3772 178.469 62.3272 175.429 42.8272 178.469Z" fill="#007C3B"/>
</g>
</g>
</g>
</g>
</g>
</g>
</g>
<g clip-path="url(#clip14_0_7577)">
<path fill-rule="evenodd" clip-rule="evenodd" d="M282.24 109C286.52 109 290 105.53 290 101.26C290 98.48 288.49 95.92 286.11 94.55C286.13 94.23 286.15 93.9 286.15 93.58C286.15 87.19 280.94 82 274.54 82C270.43 82 266.72 84.1 264.62 87.55C263.51 87.06 262.29 86.8 261.06 86.8C256.89 86.8 253.35 89.73 252.52 93.73C249.23 94.53 247 97.52 247 101.26C247 105.67 250.15 109 254.33 109H282.24Z" fill="url(#paint1_linear_0_7577)"/>
</g>
<g clip-path="url(#clip15_0_7577)">
<path fill-rule="evenodd" clip-rule="evenodd" d="M50.15 58.26C49.57 55.44 47.1 53.38 44.19 53.38C43.33 53.38 42.48 53.56 41.71 53.91C40.24 51.48 37.65 50 34.79 50C30.32 50 26.69 53.65 26.69 58.15C26.69 58.38 26.7 58.61 26.72 58.83C25.05 59.8 24 61.6 24 63.55C24 66.56 26.43 69 29.42 69H48.89C51.8 69 54 66.66 54 63.55C54 60.92 52.44 58.82 50.15 58.26Z" fill="url(#paint2_linear_0_7577)"/>
</g>
</g>
<defs>
<linearGradient id="paint0_linear_0_7577" x1="56.3322" y1="-14.6485" x2="56.3322" y2="157.717" gradientUnits="userSpaceOnUse">
<stop stop-color="#3BB3F9"/>
<stop offset="1" stop-color="#84F8FE"/>
</linearGradient>
<linearGradient id="paint1_linear_0_7577" x1="290" y1="109" x2="290" y2="82" gradientUnits="userSpaceOnUse">
<stop stop-color="white" stop-opacity="0.01"/>
<stop offset="1" stop-color="white" stop-opacity="0.502"/>
</linearGradient>
<linearGradient id="paint2_linear_0_7577" x1="54" y1="69" x2="54" y2="50" gradientUnits="userSpaceOnUse">
<stop stop-color="white" stop-opacity="0.01"/>
<stop offset="1" stop-color="white" stop-opacity="0.502"/>
</linearGradient>
<clipPath id="clip0_0_7577">
<rect width="375" height="212" fill="white"/>
</clipPath>
<clipPath id="clip1_0_7577">
<rect width="375" height="212" fill="white"/>
</clipPath>
<clipPath id="clip2_0_7577">
<rect width="375" height="212" fill="white"/>
</clipPath>
<clipPath id="clip3_0_7577">
<rect width="375" height="212" fill="white"/>
</clipPath>
<clipPath id="clip4_0_7577">
<rect width="375" height="212" fill="white"/>
</clipPath>
<clipPath id="clip5_0_7577">
<rect width="405.385" height="140.608" fill="white" transform="translate(-15.2456 107.177)"/>
</clipPath>
<clipPath id="clip6_0_7577">
<rect width="293.789" height="47.7305" fill="white" transform="translate(72.5386 107.177)"/>
</clipPath>
<clipPath id="clip7_0_7577">
<rect width="293.789" height="47.7305" fill="white" transform="translate(72.5386 107.177)"/>
</clipPath>
<clipPath id="clip8_0_7577">
<rect width="219.411" height="88.8946" fill="white" transform="translate(-15.2456 110.663)"/>
</clipPath>
<clipPath id="clip9_0_7577">
<rect width="219.411" height="88.8946" fill="white" transform="translate(-15.2456 110.663)"/>
</clipPath>
<clipPath id="clip10_0_7577">
<rect width="394.131" height="100.016" fill="white" transform="translate(-8.69434 118.724)"/>
</clipPath>
<clipPath id="clip11_0_7577">
<rect width="394.131" height="100.016" fill="white" transform="translate(-8.69434 118.724)"/>
</clipPath>
<clipPath id="clip12_0_7577">
<rect width="395.103" height="68.5991" fill="white" transform="translate(-4.96387 179.186)"/>
</clipPath>
<clipPath id="clip13_0_7577">
<rect width="395.103" height="68.5991" fill="white" transform="translate(-4.96387 179.186)"/>
</clipPath>
<clipPath id="clip14_0_7577">
<rect width="43" height="27" fill="white" transform="translate(247 82)"/>
</clipPath>
<clipPath id="clip15_0_7577">
<rect width="30" height="19" fill="white" transform="translate(24 50)"/>
</clipPath>
</defs>
</svg>
