<svg width="26" height="26" viewBox="0 0 26 26" fill="none" xmlns="http://www.w3.org/2000/svg">
<g clip-path="url(#clip0_0_7830)">
<path fill-rule="evenodd" clip-rule="evenodd" d="M2.5498 12.9998C2.5498 18.7698 7.2298 23.4498 12.9998 23.4498C18.7698 23.4498 23.4498 18.7698 23.4498 12.9998C23.4498 7.2298 18.7698 2.5498 12.9998 2.5498C7.2298 2.5498 2.5498 7.2298 2.5498 12.9998Z" stroke="#131834" stroke-width="1.5"/>
<g clip-path="url(#clip1_0_7830)">
<path fill-rule="evenodd" clip-rule="evenodd" d="M14.0418 17.1022C14.0418 16.4922 13.5518 15.9922 12.9618 15.9922C12.3618 15.9922 11.8818 16.4922 11.8818 17.1022C11.8818 17.7122 12.3618 18.2122 12.9618 18.2122C13.5518 18.2122 14.0418 17.7122 14.0418 17.1022Z" fill="#00C757"/>
</g>
<g clip-path="url(#clip2_0_7830)">
<path fill-rule="evenodd" clip-rule="evenodd" d="M15.9771 11.2454C16.1171 10.9554 16.1971 10.6254 16.1971 10.2454C16.1971 9.75543 16.0671 9.31543 15.8071 8.89543C15.5471 8.48543 15.1771 8.16543 14.6971 7.92543C14.2171 7.68543 13.6671 7.56543 13.0371 7.56543C12.3671 7.56543 11.7771 7.70543 11.2771 7.99543C10.7671 8.28543 10.3871 8.64543 10.1171 9.07543C9.85705 9.51543 9.72705 9.94543 9.72705 10.3654C9.72705 10.5754 9.80705 10.7654 9.97705 10.9454C10.1471 11.1154 10.3471 11.2054 10.5871 11.2054C10.9971 11.2054 11.2771 10.9554 11.4271 10.4554C11.5771 9.96543 11.7671 9.60543 11.9871 9.35543C12.2171 9.10543 12.5671 8.98543 13.0371 8.98543C13.4471 8.98543 13.7771 9.10543 14.0371 9.34543C14.2871 9.59543 14.4171 9.89543 14.4171 10.2554C14.4171 10.4354 14.3771 10.6054 14.2871 10.7654C14.2071 10.9254 14.1071 11.0654 13.9771 11.1954C13.8571 11.3154 13.6571 11.5054 13.3771 11.7554C13.0671 12.0454 12.8171 12.2954 12.6371 12.4954C12.4471 12.7054 12.2971 12.9454 12.1871 13.2254C12.0771 13.4954 12.0171 13.8254 12.0171 14.1954C12.0171 14.4954 12.0971 14.7254 12.2471 14.8754C12.3971 15.0254 12.5871 15.1054 12.8171 15.1054C13.2471 15.1054 13.4971 14.8754 13.5871 14.4054C13.6271 14.1854 13.6671 14.0354 13.6871 13.9454C13.7171 13.8554 13.7471 13.7754 13.7871 13.6854C13.8471 13.5854 13.9071 13.4854 13.9871 13.3954C14.0971 13.2654 14.2171 13.1454 14.3371 13.0354C14.8671 12.5354 15.2371 12.1854 15.4371 11.9854C15.6571 11.7654 15.8371 11.5154 15.9771 11.2454Z" fill="#00C757"/>
</g>
</g>
<defs>
<clipPath id="clip0_0_7830">
<rect width="26" height="26" fill="white"/>
</clipPath>
<clipPath id="clip1_0_7830">
<rect width="2.15735" height="2.21773" fill="white" transform="translate(11.8818 15.9922)"/>
</clipPath>
<clipPath id="clip2_0_7830">
<rect width="6.46856" height="7.53969" fill="white" transform="translate(9.72705 7.56543)"/>
</clipPath>
</defs>
</svg>
