<svg width="26" height="26" viewBox="0 0 26 26" fill="none" xmlns="http://www.w3.org/2000/svg">
<path fill-rule="evenodd" clip-rule="evenodd" d="M1.99992 3.85742H23.9999C25.0216 3.85742 25.8499 4.6857 25.8499 5.70736L25.8503 10.6155L25.2996 10.7673C24.3826 11.0202 23.7146 11.9313 23.7146 13.0001C23.7146 14.0689 24.3826 14.98 25.2996 15.2329L25.8503 15.3847L25.8499 20.2926C25.8499 21.3144 25.0216 22.1426 23.9999 22.1426H1.99992C0.978188 22.1426 0.149905 21.3144 0.149905 20.2926L0.149902 15.3847L0.700429 15.2328C1.61731 14.9799 2.28518 14.0688 2.28518 13.0001C2.28518 11.9314 1.61731 11.0203 0.700429 10.7674L0.149902 10.6155L0.149905 5.70742C0.149905 4.6857 0.978188 3.85742 1.99992 3.85742ZM24.0704 5.36453L23.9999 5.35742H1.99992C1.80661 5.35742 1.64991 5.51413 1.64991 5.70742L1.64891 9.52442L1.81823 9.60952C2.94735 10.2157 3.70985 11.4226 3.77991 12.7933L3.78518 13.0001C3.78518 14.4554 3.0038 15.7542 1.81823 16.3907L1.64891 16.4744L1.64991 20.2926C1.64991 20.4618 1.76989 20.6029 1.92938 20.6355L1.99992 20.6426H23.9999C24.1932 20.6426 24.3499 20.4859 24.3499 20.2926V16.4744L24.1819 16.3909C23.0526 15.7848 22.29 14.5778 22.2199 13.2069L22.2146 13.0001C22.2146 11.5446 22.9962 10.2457 24.1819 9.60932L24.3499 9.52442V5.70742C24.3499 5.53829 24.2299 5.39717 24.0704 5.36453Z" fill="#121834"/>
<path d="M9.63867 12.4541H16.1161" stroke="#00C757" stroke-width="1.32" stroke-linecap="round"/>
<path d="M9.63867 15.1133H16.1161" stroke="#00C757" stroke-width="1.32" stroke-linecap="round"/>
<path d="M13.0972 11.9219V17.7724" stroke="#00C757" stroke-width="1.32" stroke-linecap="round"/>
<path d="M15.4169 9.09375L12.9267 11.5839L10.4365 9.09375" stroke="#00C757" stroke-width="1.32" stroke-linecap="round"/>
</svg>
