<svg width="26" height="26" viewBox="0 0 26 26" fill="none" xmlns="http://www.w3.org/2000/svg">
<g clip-path="url(#clip0_0_7891)">
<path d="M5.38477 16.5V13.93C5.38477 13.69 5.69477 13.5 6.07477 13.5H19.9248C20.3048 13.5 20.6148 13.69 20.6148 13.93V16.5" stroke="#121834" stroke-width="1.5"/>
<path fill-rule="evenodd" clip-rule="evenodd" d="M2 17.7314C2 17.1792 2.44772 16.7314 3 16.7314H8.61538C9.16767 16.7314 9.61538 17.1792 9.61538 17.7314V23.3468C9.61538 23.8991 9.16767 24.3468 8.61538 24.3468H3C2.44771 24.3468 2 23.8991 2 23.3468V17.7314Z" stroke="#121834" stroke-width="1.5"/>
<path fill-rule="evenodd" clip-rule="evenodd" d="M16.3848 17.7314C16.3848 17.1792 16.8325 16.7314 17.3848 16.7314H23.0002C23.5524 16.7314 24.0002 17.1792 24.0002 17.7314V23.3468C24.0002 23.8991 23.5524 24.3468 23.0002 24.3468H17.3848C16.8325 24.3468 16.3848 23.8991 16.3848 23.3468V17.7314Z" stroke="#121834" stroke-width="1.5"/>
<path d="M13.4229 9.62402V13.066" stroke="#121834" stroke-width="1.5"/>
<path fill-rule="evenodd" clip-rule="evenodd" d="M9.61523 2.6543C9.61523 2.10201 10.0629 1.6543 10.6152 1.6543H16.2306C16.7829 1.6543 17.2306 2.10201 17.2306 2.6543V8.26968C17.2306 8.82197 16.7829 9.26968 16.2306 9.26968H10.6152C10.0629 9.26968 9.61523 8.82197 9.61523 8.26968V2.6543Z" stroke="#00C857" stroke-width="1.5"/>
</g>
<defs>
<clipPath id="clip0_0_7891">
<rect width="26" height="26" fill="white"/>
</clipPath>
</defs>
</svg>
