<svg width="32" height="32" viewBox="0 0 32 32" fill="none" xmlns="http://www.w3.org/2000/svg">
<g clip-path="url(#clip0_0_8113)">
<g clip-path="url(#clip1_0_8113)">
<g clip-path="url(#clip2_0_8113)">
<path fill-rule="evenodd" clip-rule="evenodd" d="M24.4446 5.10133C24.2046 4.78133 23.8346 4.61133 23.4646 4.61133H8.54458C8.08458 4.61133 7.68458 4.87133 7.48458 5.25133L2.01458 12.6513C1.92458 12.7713 1.85458 12.9113 1.81458 13.0513C1.68458 13.4613 1.76458 13.9313 2.06458 14.2713L14.9546 28.7913C15.0146 28.8813 15.0846 28.9613 15.1646 29.0413C15.2246 29.0913 15.2946 29.1413 15.3646 29.1813C15.8146 29.4913 16.4246 29.4613 16.8546 29.0713C16.9846 28.9513 17.0646 28.8713 17.1746 28.7113L29.9346 14.2413C30.2346 13.9113 30.3346 13.4413 30.1946 13.0113C30.1446 12.8813 30.0846 12.7413 29.9946 12.6213L24.4446 5.10133ZM22.9843 13.7922C22.4843 13.3322 21.7143 13.3722 21.2643 13.8822L16.0043 19.8022L10.7543 13.8822C10.3043 13.3722 9.53434 13.3322 9.03434 13.7922C8.53434 14.2522 8.49434 15.0422 8.95434 15.5522L15.0543 22.4222C15.0943 22.4722 15.1343 22.5222 15.1843 22.5622C15.4243 22.7822 15.7143 22.8922 16.0043 22.8922C16.2943 22.8922 16.5943 22.7822 16.8243 22.5622C16.8543 22.5322 16.8943 22.5022 16.9143 22.4622L23.0643 15.5522C23.5143 15.0422 23.4743 14.2522 22.9843 13.7922Z" fill="#D7C089"/>
<path fill-rule="evenodd" clip-rule="evenodd" d="M24.4446 5.10133C24.2046 4.78133 23.8346 4.61133 23.4646 4.61133H8.54458C8.08458 4.61133 7.68458 4.87133 7.48458 5.25133L2.01458 12.6513C1.92458 12.7713 1.85458 12.9113 1.81458 13.0513C1.68458 13.4613 1.76458 13.9313 2.06458 14.2713L14.9546 28.7913C15.0146 28.8813 15.0846 28.9613 15.1646 29.0413C15.2246 29.0913 15.2946 29.1413 15.3646 29.1813C15.8146 29.4913 16.4246 29.4613 16.8546 29.0713C16.9846 28.9513 17.0646 28.8713 17.1746 28.7113L29.9346 14.2413C30.2346 13.9113 30.3346 13.4413 30.1946 13.0113C30.1446 12.8813 30.0846 12.7413 29.9946 12.6213L24.4446 5.10133ZM22.9843 13.7922C22.4843 13.3322 21.7143 13.3722 21.2643 13.8822L16.0043 19.8022L10.7543 13.8822C10.3043 13.3722 9.53434 13.3322 9.03434 13.7922C8.53434 14.2522 8.49434 15.0422 8.95434 15.5522L15.0543 22.4222C15.0943 22.4722 15.1343 22.5222 15.1843 22.5622C15.4243 22.7822 15.7143 22.8922 16.0043 22.8922C16.2943 22.8922 16.5943 22.7822 16.8243 22.5622C16.8543 22.5322 16.8943 22.5022 16.9143 22.4622L23.0643 15.5522C23.5143 15.0422 23.4743 14.2522 22.9843 13.7922Z" fill="url(#paint0_linear_0_8113)"/>
</g>
<g clip-path="url(#clip3_0_8113)">
<mask id="mask0_0_8113" style="mask-type:luminance" maskUnits="userSpaceOnUse" x="1" y="4" width="30" height="26">
<path fill-rule="evenodd" clip-rule="evenodd" d="M16.0305 29.3894C16.3305 29.3894 16.6205 29.2794 16.8505 29.0694C16.9705 28.9594 17.0605 28.8694 17.1705 28.7094L29.9305 14.2394C30.1405 14.0094 30.2505 13.7094 30.2505 13.3994C30.2505 13.2694 30.2305 13.1394 30.1905 13.0194C30.1405 12.8694 30.0805 12.7394 29.9905 12.6194L24.4405 5.09938C24.2005 4.78938 23.8505 4.60938 23.4705 4.60938H8.54049C8.10049 4.60938 7.69049 4.84937 7.48049 5.24937L2.01049 12.6494C1.92049 12.7694 1.85049 12.9094 1.81049 13.0494C1.77049 13.1694 1.75049 13.2994 1.75049 13.4294C1.75049 13.7394 1.86049 14.0394 2.06049 14.2694L14.9505 28.7894C15.0105 28.8794 15.0805 28.9594 15.1605 29.0394C15.2205 29.0894 15.2905 29.1394 15.3505 29.1794C15.5605 29.3194 15.7905 29.3894 16.0305 29.3894ZM15.0501 22.42C15.0901 22.47 15.1301 22.52 15.1801 22.57C15.4101 22.77 15.7001 22.89 16.0001 22.89C16.3101 22.89 16.6001 22.77 16.8201 22.57L16.8401 22.54C16.8701 22.52 16.8901 22.49 16.9101 22.46L23.0601 15.55C23.2701 15.31 23.3701 15.01 23.3701 14.71C23.3701 14.37 23.2401 14.04 22.9801 13.79C22.7501 13.58 22.4601 13.47 22.1601 13.47C21.8201 13.47 21.4901 13.62 21.2601 13.88L16.0001 19.8L10.7501 13.88C10.5201 13.62 10.1901 13.47 9.85013 13.47C9.54013 13.47 9.25013 13.58 9.03013 13.79C8.76013 14.04 8.63013 14.37 8.63013 14.71C8.63013 15.01 8.73013 15.31 8.95013 15.55L15.0501 22.42Z" fill="white"/>
</mask>
<g mask="url(#mask0_0_8113)">
</g>
<g opacity="0.5" clip-path="url(#clip4_0_8113)">
<path fill-rule="evenodd" clip-rule="evenodd" d="M10.96 1.51203L5.94 2.31203L-3.1 7.73203L-4.25 13.292L4.79 26.842L14.16 15.632L20.06 0.832031L10.96 1.51203Z" fill="url(#paint1_linear_0_8113)"/>
</g>
</g>
</g>
</g>
<defs>
<linearGradient id="paint0_linear_0_8113" x1="26.0792" y1="31.5164" x2="34.9213" y2="5.47424" gradientUnits="userSpaceOnUse">
<stop stop-color="#FAE9BB"/>
<stop offset="1" stop-color="#BE9F68"/>
</linearGradient>
<linearGradient id="paint1_linear_0_8113" x1="14.6413" y1="15.5713" x2="25.0766" y2="6.80089" gradientUnits="userSpaceOnUse">
<stop stop-color="white" stop-opacity="0.01"/>
<stop offset="1" stop-color="white"/>
</linearGradient>
<clipPath id="clip0_0_8113">
<rect width="32" height="32" fill="white"/>
</clipPath>
<clipPath id="clip1_0_8113">
<rect width="28.5045" height="24.7824" fill="white" transform="translate(1.75049 4.60938)"/>
</clipPath>
<clipPath id="clip2_0_8113">
<rect width="28.5" height="24.78" fill="white" transform="translate(1.75488 4.61133)"/>
</clipPath>
<clipPath id="clip3_0_8113">
<rect width="28.4995" height="24.7824" fill="white" transform="translate(1.75049 4.60938)"/>
</clipPath>
<clipPath id="clip4_0_8113">
<rect width="24.3082" height="26.007" fill="white" transform="translate(-4.25 0.832031)"/>
</clipPath>
</defs>
</svg>
