<svg width="32" height="32" viewBox="0 0 32 32" fill="none" xmlns="http://www.w3.org/2000/svg">
<g clip-path="url(#clip0_0_8098)">
<g clip-path="url(#clip1_0_8098)">
<g clip-path="url(#clip2_0_8098)">
<path fill-rule="evenodd" clip-rule="evenodd" d="M20.6658 6.25181C16.0758 1.71181 8.61581 1.71181 4.01581 6.28181C-0.574194 10.8518 -0.574194 18.2618 4.01581 22.8318C7.59581 26.3818 12.8958 27.1718 17.2158 25.2118C17.5658 25.8218 17.9958 26.4318 18.5058 26.9418C21.4558 29.8918 26.2258 29.8918 29.1958 26.9418C32.1658 23.9718 32.1658 19.2318 29.1958 16.3018C27.7558 14.8818 25.9258 14.1718 24.0958 14.1018C23.9958 11.2718 22.8458 8.44181 20.6658 6.25181ZM15.0036 17.4387C16.2436 16.2487 17.4636 15.3087 18.5836 14.6987C17.4636 14.0887 16.1936 13.1487 15.0036 11.9587C13.8136 10.7387 12.8636 9.51871 12.2536 8.42871C11.6436 9.53871 10.6836 10.7887 9.49357 11.9787C8.25357 13.1687 7.03357 14.1087 5.91357 14.7187C7.03357 15.3287 8.30357 16.2687 9.49357 17.4587C10.6836 18.6587 11.6436 19.8787 12.2536 20.9987C12.8636 19.8787 13.8136 18.6587 15.0036 17.4387ZM27.9281 21.7319C27.2181 21.3119 26.4281 20.7419 25.6481 19.9619C24.8681 19.2219 24.2981 18.4119 23.8781 17.7019C23.7681 17.8319 23.6681 18.0119 23.5681 18.1819C23.0581 19.7519 22.1681 21.2319 20.9781 22.5219C21.3281 22.8319 21.6881 23.1319 22.0681 23.5119C22.8381 24.2519 23.4181 25.0619 23.8281 25.7719C24.2281 25.0619 24.8181 24.2819 25.5981 23.5119C26.3381 22.7219 27.1681 22.1219 27.9281 21.7319Z" fill="#FFB12E"/>
<path fill-rule="evenodd" clip-rule="evenodd" d="M20.6658 6.25181C16.0758 1.71181 8.61581 1.71181 4.01581 6.28181C-0.574194 10.8518 -0.574194 18.2618 4.01581 22.8318C7.59581 26.3818 12.8958 27.1718 17.2158 25.2118C17.5658 25.8218 17.9958 26.4318 18.5058 26.9418C21.4558 29.8918 26.2258 29.8918 29.1958 26.9418C32.1658 23.9718 32.1658 19.2318 29.1958 16.3018C27.7558 14.8818 25.9258 14.1718 24.0958 14.1018C23.9958 11.2718 22.8458 8.44181 20.6658 6.25181ZM15.0036 17.4387C16.2436 16.2487 17.4636 15.3087 18.5836 14.6987C17.4636 14.0887 16.1936 13.1487 15.0036 11.9587C13.8136 10.7387 12.8636 9.51871 12.2536 8.42871C11.6436 9.53871 10.6836 10.7887 9.49357 11.9787C8.25357 13.1687 7.03357 14.1087 5.91357 14.7187C7.03357 15.3287 8.30357 16.2687 9.49357 17.4587C10.6836 18.6587 11.6436 19.8787 12.2536 20.9987C12.8636 19.8787 13.8136 18.6587 15.0036 17.4387ZM27.9281 21.7319C27.2181 21.3119 26.4281 20.7419 25.6481 19.9619C24.8681 19.2219 24.2981 18.4119 23.8781 17.7019C23.7681 17.8319 23.6681 18.0119 23.5681 18.1819C23.0581 19.7519 22.1681 21.2319 20.9781 22.5219C21.3281 22.8319 21.6881 23.1319 22.0681 23.5119C22.8381 24.2519 23.4181 25.0619 23.8281 25.7719C24.2281 25.0619 24.8181 24.2819 25.5981 23.5119C26.3381 22.7219 27.1681 22.1219 27.9281 21.7319Z" fill="url(#paint0_linear_0_8098)"/>
</g>
</g>
</g>
<defs>
<linearGradient id="paint0_linear_0_8098" x1="6.52726" y1="2.57455" x2="-3.08788" y2="30.1308" gradientUnits="userSpaceOnUse">
<stop stop-color="#FFFC74" stop-opacity="0.502"/>
<stop offset="1" stop-color="#F57B3A" stop-opacity="0.502"/>
</linearGradient>
<clipPath id="clip0_0_8098">
<rect width="32" height="32" fill="white"/>
</clipPath>
<clipPath id="clip1_0_8098">
<rect width="30.85" height="26.3" fill="white" transform="translate(0.576172 2.85156)"/>
</clipPath>
<clipPath id="clip2_0_8098">
<rect width="30.85" height="26.3" fill="white" transform="translate(0.576172 2.85156)"/>
</clipPath>
</defs>
</svg>
