<svg width="26" height="26" viewBox="0 0 26 26" fill="none" xmlns="http://www.w3.org/2000/svg">
<path fill-rule="evenodd" clip-rule="evenodd" d="M12.4511 2.59229C7.15118 2.8968 3.10038 7.42449 3.40313 12.706C3.59563 16.0651 5.50312 18.9194 8.23008 20.4747C8.59845 20.6847 8.26595 23.4243 8.26595 23.4243C8.26595 23.4243 12.1886 22.247 13.6503 22.0423C18.9642 21.2985 22.899 16.8858 22.5963 11.6048C22.2931 6.32329 17.751 2.28822 12.4511 2.59229V2.59229Z" stroke="#121834" stroke-width="1.5"/>
<path fill-rule="evenodd" clip-rule="evenodd" d="M7.39551 12.0076C7.39551 11.2354 8.02153 10.6094 8.79376 10.6094C9.56599 10.6094 10.192 11.2354 10.192 12.0076C10.192 12.7799 9.56599 13.4059 8.79376 13.4059C8.02153 13.4059 7.39551 12.7799 7.39551 12.0076Z" fill="#00C757"/>
<path fill-rule="evenodd" clip-rule="evenodd" d="M12.1885 12.0076C12.1885 11.2354 12.8145 10.6094 13.5867 10.6094C14.359 10.6094 14.985 11.2354 14.985 12.0076C14.985 12.7799 14.359 13.4059 13.5867 13.4059C12.8145 13.4059 12.1885 12.7799 12.1885 12.0076Z" fill="#00C757"/>
<path fill-rule="evenodd" clip-rule="evenodd" d="M16.9824 12.0082C16.9824 11.2362 17.6082 10.6104 18.3802 10.6104C19.1522 10.6104 19.778 11.2362 19.778 12.0082C19.778 12.7802 19.1522 13.406 18.3802 13.406C17.6082 13.406 16.9824 12.7802 16.9824 12.0082Z" fill="#00C757"/>
</svg>
