<svg width="32" height="32" viewBox="0 0 32 32" fill="none" xmlns="http://www.w3.org/2000/svg">
<g clip-path="url(#clip0_0_8158)">
<g clip-path="url(#clip1_0_8158)">
<g clip-path="url(#clip2_0_8158)">
<g clip-path="url(#clip3_0_8158)">
<path fill-rule="evenodd" clip-rule="evenodd" d="M14.6794 2.3952C14.2499 2.01464 13.6012 2.05568 13.2362 2.50114L9.12055 7.45087L27.0854 13.6367L20.1113 7.32208L14.6794 2.3952Z" fill="#FF5F6A"/>
<path fill-rule="evenodd" clip-rule="evenodd" d="M14.6794 2.3952C14.2499 2.01464 13.6012 2.05568 13.2362 2.50114L9.12055 7.45087L27.0854 13.6367L20.1113 7.32208L14.6794 2.3952Z" fill="url(#paint0_linear_0_8158)"/>
</g>
<g clip-path="url(#clip4_0_8158)">
<path fill-rule="evenodd" clip-rule="evenodd" d="M7.43268 6.69845L4.74268 13.7385H26.7427L8.76268 6.13845C8.24268 5.91845 7.64268 6.16845 7.43268 6.69845Z" fill="#FF5F6A"/>
<path fill-rule="evenodd" clip-rule="evenodd" d="M7.43268 6.69845L4.74268 13.7385H26.7427L8.76268 6.13845C8.24268 5.91845 7.64268 6.16845 7.43268 6.69845Z" fill="url(#paint1_linear_0_8158)"/>
</g>
</g>
<g clip-path="url(#clip5_0_8158)">
<path fill-rule="evenodd" clip-rule="evenodd" d="M2.7428 12.835C2.7428 12.2827 3.19051 11.835 3.7428 11.835H27.5689C28.1212 11.835 28.5689 12.2827 28.5689 12.835V28.0017C28.5689 28.5539 28.1212 29.0017 27.5689 29.0017H3.7428C3.19051 29.0017 2.7428 28.5539 2.7428 28.0017V12.835ZM1.98482 17.2971C0.304824 17.2971 -1.05518 18.6971 -1.05518 20.4171C-1.05518 22.1471 0.304824 23.5371 1.98482 23.5371C3.66482 23.5371 5.02482 22.1471 5.02482 20.4171C5.02482 18.6971 3.66482 17.2971 1.98482 17.2971ZM29.3302 17.2971C27.6502 17.2971 26.2902 18.6971 26.2902 20.4171C26.2902 22.1471 27.6502 23.5371 29.3302 23.5371C31.0102 23.5371 32.3702 22.1471 32.3702 20.4171C32.3702 18.6971 31.0102 17.2971 29.3302 17.2971Z" fill="#FF5F6A"/>
<path fill-rule="evenodd" clip-rule="evenodd" d="M2.7428 12.835C2.7428 12.2827 3.19051 11.835 3.7428 11.835H27.5689C28.1212 11.835 28.5689 12.2827 28.5689 12.835V28.0017C28.5689 28.5539 28.1212 29.0017 27.5689 29.0017H3.7428C3.19051 29.0017 2.7428 28.5539 2.7428 28.0017V12.835ZM1.98482 17.2971C0.304824 17.2971 -1.05518 18.6971 -1.05518 20.4171C-1.05518 22.1471 0.304824 23.5371 1.98482 23.5371C3.66482 23.5371 5.02482 22.1471 5.02482 20.4171C5.02482 18.6971 3.66482 17.2971 1.98482 17.2971ZM29.3302 17.2971C27.6502 17.2971 26.2902 18.6971 26.2902 20.4171C26.2902 22.1471 27.6502 23.5371 29.3302 23.5371C31.0102 23.5371 32.3702 22.1471 32.3702 20.4171C32.3702 18.6971 31.0102 17.2971 29.3302 17.2971Z" fill="url(#paint2_linear_0_8158)"/>
</g>
</g>
<path fill-rule="evenodd" clip-rule="evenodd" d="M15.7647 25.9758C16.1447 25.9758 16.4647 25.6658 16.4647 25.2958V23.2558H18.9847L19.0947 23.2458C19.4347 23.1858 19.6847 22.9058 19.6847 22.5758C19.6847 22.2058 19.3747 21.9058 18.9847 21.9058H16.4647V20.5358H18.9847L19.0947 20.5258C19.4347 20.4758 19.6847 20.1858 19.6847 19.8558C19.6847 19.4858 19.3747 19.1858 18.9847 19.1858H16.4547C16.4447 19.1458 16.4347 19.1158 16.4247 19.0758L18.6547 16.8458L18.7347 16.7558C18.8247 16.6258 18.8747 16.4858 18.8747 16.3358C18.8747 16.1658 18.8047 15.9958 18.6747 15.8658L18.5947 15.7958C18.4847 15.7158 18.3447 15.6758 18.2047 15.6758C18.0147 15.6758 17.8347 15.7558 17.7047 15.8858L15.5447 18.0458L13.4747 15.9758L13.3947 15.9058C13.2747 15.8258 13.1447 15.7858 13.0047 15.7858C12.8147 15.7858 12.6347 15.8658 12.4947 15.9958C12.3647 16.1358 12.2847 16.3158 12.2847 16.5058C12.2847 16.6858 12.3547 16.8458 12.4747 16.9758L14.6847 19.1858H12.0647L11.9547 19.1958C11.6147 19.2458 11.3647 19.5258 11.3647 19.8558C11.3647 20.2258 11.6847 20.5358 12.0647 20.5358H15.0547V21.9058H12.0647L11.9547 21.9158C11.6147 21.9658 11.3647 22.2458 11.3647 22.5758C11.3647 22.9458 11.6847 23.2558 12.0647 23.2558H15.0547V25.2958L15.0647 25.4058C15.1247 25.7358 15.4147 25.9758 15.7647 25.9758Z" fill="white"/>
</g>
<defs>
<linearGradient id="paint0_linear_0_8158" x1="28.5266" y1="15.6255" x2="31.1575" y2="7.98478" gradientUnits="userSpaceOnUse">
<stop stop-color="#FFD3D3" stop-opacity="0.5608"/>
<stop offset="1" stop-color="#FF3636" stop-opacity="0.7255"/>
</linearGradient>
<linearGradient id="paint1_linear_0_8158" x1="29.0703" y1="15.3635" x2="29.0703" y2="6.05859" gradientUnits="userSpaceOnUse">
<stop stop-color="#FFD3D3" stop-opacity="0.5608"/>
<stop offset="1" stop-color="#FF3636" stop-opacity="0.7255"/>
</linearGradient>
<linearGradient id="paint2_linear_0_8158" x1="35.9392" y1="32.6677" x2="35.9392" y2="11.835" gradientUnits="userSpaceOnUse">
<stop stop-color="#FFD4D4" stop-opacity="0.5608"/>
<stop offset="1" stop-color="#FF5252" stop-opacity="0.7255"/>
</linearGradient>
<clipPath id="clip0_0_8158">
<rect width="32" height="32" fill="white"/>
</clipPath>
<clipPath id="clip1_0_8158">
<rect width="26.5145" height="27.8604" fill="white" transform="translate(2.74268 1.14453)"/>
</clipPath>
<clipPath id="clip2_0_8158">
<rect width="24.5145" height="12.5904" fill="white" transform="translate(4.74268 1.14453)"/>
</clipPath>
<clipPath id="clip3_0_8158">
<rect width="20.1365" height="12.4926" fill="white" transform="translate(9.12061 1.14453)"/>
</clipPath>
<clipPath id="clip4_0_8158">
<rect width="22" height="7.67652" fill="white" transform="translate(4.74268 6.05859)"/>
</clipPath>
<clipPath id="clip5_0_8158">
<rect width="25.83" height="17.17" fill="white" transform="translate(2.74268 11.835)"/>
</clipPath>
</defs>
</svg>
