<svg width="26" height="26" viewBox="0 0 26 26" fill="none" xmlns="http://www.w3.org/2000/svg">
<g clip-path="url(#clip0_0_7862)">
<g clip-path="url(#clip1_0_7862)">
<path fill-rule="evenodd" clip-rule="evenodd" d="M15.7749 9.63522C15.9049 9.49522 15.9549 9.30522 15.8849 9.13522C15.8249 8.96522 15.6649 8.83522 15.4749 8.81522L14.0749 8.65522L13.4049 7.41522C13.3149 7.23522 13.1349 7.13522 12.9449 7.14522C12.7449 7.15522 12.5749 7.26522 12.4949 7.44522L11.9249 8.72522L10.5449 8.97522C10.4249 8.98522 10.3249 9.04522 10.2549 9.12522C10.0649 9.33522 10.0849 9.65522 10.2949 9.84522L11.3249 10.7852L11.1449 12.1752C11.1149 12.3652 11.1949 12.5452 11.3549 12.6552C11.5149 12.7652 11.7149 12.7752 11.8849 12.6752L13.1049 11.9852L14.3749 12.5952C14.4549 12.6252 14.5249 12.6452 14.5949 12.6452C14.8749 12.6452 15.0949 12.4152 15.0949 12.1452C15.0949 12.0952 15.0949 12.0452 15.0849 12.0052L14.8049 10.6552L15.7749 9.63522Z" fill="#00C757"/>
</g>
<path fill-rule="evenodd" clip-rule="evenodd" d="M20.08 4.97352C20.08 3.53352 18.89 2.35352 17.42 2.35352H8.58C7.11 2.35352 5.92 3.53352 5.92 4.97352H2.38C1.9 4.97352 1.5 5.37352 1.5 5.85352V8.47352C1.5 11.1435 3.52 13.3535 6.14 13.6835C6.44 14.9035 7.08 16.0235 8 16.9235C9.12 18.0435 10.56 18.7335 12.12 18.9235H13.88C15.44 18.7335 16.88 18.0435 18 16.9335C18.92 16.0235 19.56 14.9035 19.86 13.6935C22.48 13.3535 24.5 11.1435 24.5 8.48352V5.85352C24.5 5.37352 24.46 4.98352 23.97 4.98352L23.62 4.97352H20.08Z" stroke="#121834" stroke-width="1.5"/>
<path d="M5.92285 4.97852L6.03685 13.6775" stroke="#121834" stroke-width="1.5"/>
<path d="M20.1619 4.97852L19.9639 13.6775" stroke="#121834" stroke-width="1.5"/>
<path d="M13 18.7305V23.6475" stroke="#121834" stroke-width="1.5"/>
<path d="M8.76562 23.3535H17.1246" stroke="#121834" stroke-width="1.5" stroke-linecap="round"/>
</g>
<defs>
<clipPath id="clip0_0_7862">
<rect width="26" height="26" fill="white"/>
</clipPath>
<clipPath id="clip1_0_7862">
<rect width="5.79137" height="5.59683" fill="white" transform="translate(10.125 7.14551)"/>
</clipPath>
</defs>
</svg>
