<svg width="26" height="26" viewBox="0 0 26 26" fill="none" xmlns="http://www.w3.org/2000/svg">
<g clip-path="url(#clip0_2_311)">
<g clip-path="url(#clip1_2_311)">
<path fill-rule="evenodd" clip-rule="evenodd" d="M21.6705 17.2532C22.6605 17.2532 23.4605 16.4432 23.4605 15.4532V10.6132C23.4605 9.62324 22.6605 8.82324 21.6705 8.82324H18.3105V17.2532H21.6705Z" fill="#00C757"/>
<path fill-rule="evenodd" clip-rule="evenodd" d="M21.6738 10.4375H19.9238V15.6375H21.6738C21.7738 15.6375 21.8538 15.5575 21.8538 15.4575V10.6175C21.8538 10.5175 21.7738 10.4375 21.6738 10.4375Z" fill="white"/>
<path fill-rule="evenodd" clip-rule="evenodd" d="M2.54004 9.4902V16.3302C2.54004 17.3202 3.34004 18.1202 4.33004 18.1202H10.08V7.7002H4.33004C3.34004 7.7002 2.54004 8.5002 2.54004 9.4902Z" fill="#121834"/>
<path fill-rule="evenodd" clip-rule="evenodd" d="M8.46332 9.31348H4.33332C4.23332 9.31348 4.15332 9.39348 4.15332 9.49348V16.3235C4.15332 16.4235 4.23332 16.5035 4.33332 16.5035H8.46332V9.31348Z" fill="white"/>
<path fill-rule="evenodd" clip-rule="evenodd" d="M10.0733 8.6928V17.1328L18.2833 21.3528V4.6228L10.0733 8.6928ZM18.63 2.65031L8.45996 7.70031V18.1203L18.63 23.3503C19.08 23.5503 19.61 23.3503 19.82 22.9003C19.87 22.7903 19.9 22.6603 19.9 22.5303V3.47031C19.9 2.97031 19.5 2.57031 19 2.57031C18.87 2.57031 18.75 2.60031 18.63 2.65031Z" fill="#121834"/>
<path fill-rule="evenodd" clip-rule="evenodd" d="M6.84793 18.1133H5.50793V21.3133C5.50793 21.5833 5.72793 21.8133 6.00793 21.8133H6.34793C6.61793 21.8133 6.84793 21.5833 6.84793 21.3133V18.1133ZM8.45014 16.5H8.47014H8.45014ZM3.89014 16.5V21.31C3.89014 22.48 4.84014 23.42 6.00014 23.42H6.34014C7.51014 23.42 8.45014 22.48 8.45014 21.31V16.5H3.89014Z" fill="#121834"/>
</g>
</g>
<defs>
<clipPath id="clip0_2_311">
<rect width="26" height="26" fill="white"/>
</clipPath>
<clipPath id="clip1_2_311">
<rect width="20.9243" height="20.98" fill="white" transform="translate(2.54004 2.57031)"/>
</clipPath>
</defs>
</svg>
