<svg width="26" height="26" viewBox="0 0 26 26" fill="none" xmlns="http://www.w3.org/2000/svg">
<g clip-path="url(#clip0_0_7916)">
<g clip-path="url(#clip1_0_7916)">
<g clip-path="url(#clip2_0_7916)">
<path fill-rule="evenodd" clip-rule="evenodd" d="M9.2602 6.09316C7.8402 5.28316 6.0202 4.88316 3.7202 4.95316C3.1802 4.95316 2.9102 5.55316 3.1802 5.96316C3.1802 6.09316 3.3202 6.29316 3.4502 6.56316C3.7202 6.97316 3.9902 7.44316 4.2002 7.91316C4.3302 8.11316 4.4002 8.31316 4.5302 8.52316C4.6702 8.72316 4.7402 8.92316 4.8002 9.12316C4.2602 9.80316 3.7902 10.5432 3.5202 11.2832H3.3902C2.4402 11.2832 1.7002 12.0232 1.7002 12.9632V14.9832C1.7002 15.9332 2.4402 16.6732 3.3902 16.6732H3.5202C4.2002 18.3532 5.4102 19.7632 7.0302 20.7732V23.6032C7.0302 24.0132 7.3002 24.2832 7.7002 24.2832H10.4002C10.6102 24.2832 10.8102 24.1432 10.9402 24.0132L11.9502 22.4632C12.3602 22.5332 12.7002 22.5332 13.1002 22.5332C13.7802 22.5332 14.4502 22.4632 15.1302 22.3232V23.6032C15.1302 24.0132 15.4002 24.2832 15.8002 24.2832H18.5002C18.7702 24.2832 18.9702 24.1432 19.1102 23.8732L21.6702 18.5532C22.6802 17.2032 23.2202 15.6632 23.2202 13.9732C23.2902 9.19316 18.7002 5.42316 13.1702 5.42316C11.8202 5.42316 10.4702 5.62316 9.2602 6.09316Z" stroke="#121834" stroke-width="1.5"/>
</g>
<g clip-path="url(#clip3_0_7916)">
<path fill-rule="evenodd" clip-rule="evenodd" d="M6.42285 12.8276C6.42285 13.2276 6.69285 13.4976 7.09285 13.4976C7.50285 13.4976 7.77285 13.1676 7.77285 12.8276V11.4776C7.77285 11.0776 7.43285 10.8076 7.09285 10.8076C6.69285 10.8076 6.42285 11.1476 6.42285 11.4776V12.8276Z" fill="#121834"/>
</g>
<g clip-path="url(#clip4_0_7916)">
<path d="M17.5186 1.07324C20.6757 1.07341 23.248 3.6334 23.248 6.79395C23.2479 9.95435 20.6756 12.5135 17.5186 12.5137C14.4157 12.5137 11.8779 10.0323 11.7988 6.94043L11.7979 6.93164V6.64551L11.7988 6.63672C11.878 3.55406 14.4165 1.07324 17.5186 1.07324Z" fill="#00C857" stroke="white" stroke-width="1.3"/>
<path fill-rule="evenodd" clip-rule="evenodd" d="M17.1486 6.49379V7.24379H15.6386C15.4386 7.24379 15.2686 7.41379 15.2686 7.61379C15.2686 7.82379 15.4386 7.99379 15.6386 7.99379H17.1586V9.49379C17.1586 9.70379 17.3286 9.86379 17.5386 9.86379C17.7386 9.86379 17.9086 9.70379 17.9086 9.49379V7.99379H19.4086C19.6186 7.99379 19.7886 7.82379 19.7886 7.61379C19.7886 7.41379 19.6186 7.24379 19.4086 7.24379H17.9086V6.49379H19.4086C19.6186 6.49379 19.7886 6.32379 19.7886 6.11379C19.7886 5.91379 19.6186 5.74379 19.4086 5.74379H18.3586L19.3886 4.71379C19.5386 4.55379 19.5386 4.33379 19.3886 4.18379C19.2386 4.03379 19.0086 4.03379 18.8586 4.18379L17.5286 5.51379L16.1886 4.18379C16.0386 4.03379 15.8086 4.03379 15.6586 4.18379C15.5186 4.34379 15.5186 4.56379 15.6586 4.71379L16.6986 5.74379H15.6386C15.4386 5.74379 15.2686 5.91379 15.2686 6.11379C15.2686 6.32379 15.4386 6.49379 15.6386 6.49379H17.1486Z" fill="white"/>
</g>
<path fill-rule="evenodd" clip-rule="evenodd" d="M22.912 14.192C22.912 14.192 22.812 15.302 23.582 15.302C24.362 15.302 26.142 14.192 25.442 14.192C24.742 14.192 23.582 13.502 23.582 13.502L22.912 14.192Z" fill="#121834"/>
</g>
</g>
<defs>
<clipPath id="clip0_0_7916">
<rect width="26" height="26" fill="white"/>
</clipPath>
<clipPath id="clip1_0_7916">
<rect width="24.6513" height="23.3093" fill="white" transform="translate(0.950195 1.72363)"/>
</clipPath>
<clipPath id="clip2_0_7916">
<rect width="23.0483" height="20.9296" fill="white" transform="translate(0.950195 4.10352)"/>
</clipPath>
<clipPath id="clip3_0_7916">
<rect width="1.34933" height="2.69398" fill="white" transform="translate(6.42285 10.8076)"/>
</clipPath>
<clipPath id="clip4_0_7916">
<rect width="10.1511" height="10.1399" fill="white" transform="translate(12.4482 1.72363)"/>
</clipPath>
</defs>
</svg>
