<svg width="26" height="26" viewBox="0 0 26 26" fill="none" xmlns="http://www.w3.org/2000/svg">
<g clip-path="url(#clip0_0_7813)">
<path fill-rule="evenodd" clip-rule="evenodd" d="M8.74805 8.24707C8.74805 10.5871 10.658 12.4971 12.998 12.4971C15.338 12.4971 17.248 10.5871 17.248 8.24707C17.248 5.90707 15.338 3.99707 12.998 3.99707C10.658 3.99707 8.74805 5.90707 8.74805 8.24707ZM12.998 13.4971C15.898 13.4971 18.248 11.1471 18.248 8.24707C18.248 5.34707 15.898 2.99707 12.998 2.99707C10.098 2.99707 7.74805 5.34707 7.74805 8.24707C7.74805 11.1471 10.098 13.4971 12.998 13.4971Z" fill="#121834"/>
<path d="M8.49805 8.24707C8.49805 10.7251 10.52 12.7471 12.998 12.7471V12.2471C10.7961 12.2471 8.99805 10.449 8.99805 8.24707H8.49805ZM12.998 12.7471C15.4761 12.7471 17.498 10.7251 17.498 8.24707H16.998C16.998 10.449 15.2 12.2471 12.998 12.2471V12.7471ZM17.498 8.24707C17.498 5.769 15.4761 3.74707 12.998 3.74707V4.24707C15.2 4.24707 16.998 6.04514 16.998 8.24707H17.498ZM12.998 3.74707C10.52 3.74707 8.49805 5.769 8.49805 8.24707H8.99805C8.99805 6.04514 10.7961 4.24707 12.998 4.24707V3.74707ZM12.998 13.7471C16.0361 13.7471 18.498 11.2851 18.498 8.24707H17.998C17.998 11.009 15.76 13.2471 12.998 13.2471V13.7471ZM18.498 8.24707C18.498 5.209 16.0361 2.74707 12.998 2.74707V3.24707C15.76 3.24707 17.998 5.48514 17.998 8.24707H18.498ZM12.998 2.74707C9.95998 2.74707 7.49805 5.209 7.49805 8.24707H7.99805C7.99805 5.48514 10.2361 3.24707 12.998 3.24707V2.74707ZM7.49805 8.24707C7.49805 11.2851 9.95998 13.7471 12.998 13.7471V13.2471C10.2361 13.2471 7.99805 11.009 7.99805 8.24707H7.49805Z" fill="#121834"/>
<path fill-rule="evenodd" clip-rule="evenodd" d="M3.5 22.999C3.78 22.999 4 22.779 4 22.499C4 22.219 3.78 21.999 3.5 21.999C3.22 21.999 3 22.219 3 22.499C3 22.779 3.22 22.999 3.5 22.999Z" fill="#121834" stroke="#121834" stroke-width="0.5"/>
<path fill-rule="evenodd" clip-rule="evenodd" d="M17.1479 14.4541C17.4279 14.4541 17.6479 14.2341 17.6479 13.9541C17.6479 13.6741 17.4279 13.4541 17.1479 13.4541C16.8679 13.4541 16.6479 13.6741 16.6479 13.9541C16.6479 14.2341 16.8679 14.4541 17.1479 14.4541Z" fill="#121834" stroke="#121834" stroke-width="0.5"/>
<path fill-rule="evenodd" clip-rule="evenodd" d="M3 22.4988H4C4 17.5388 8.04 13.4988 13 13.4988C14.36 13.4988 15.7 13.8088 16.93 14.4088L17.37 13.5088C16.01 12.8488 14.51 12.5088 13 12.5088C7.48 12.4988 3 16.9788 3 22.4988Z" fill="#121834" stroke="#121834" stroke-width="0.5"/>
<path fill-rule="evenodd" clip-rule="evenodd" d="M23 19.499C23 19.229 22.78 18.999 22.5 18.999H16.5C16.23 18.999 16 19.229 16 19.499C16 19.779 16.23 19.999 16.5 19.999H22.5C22.78 19.999 23 19.779 23 19.499Z" fill="#00C757" stroke="#00C757" stroke-width="0.5"/>
<path fill-rule="evenodd" clip-rule="evenodd" d="M19.5 22.999C19.78 22.999 20 22.779 20 22.499V16.499C20 16.229 19.78 15.999 19.5 15.999C19.23 15.999 19 16.229 19 16.499V22.499C19 22.779 19.23 22.999 19.5 22.999Z" fill="#00C757" stroke="#00C757" stroke-width="0.5"/>
</g>
<defs>
<clipPath id="clip0_0_7813">
<rect width="26" height="26" fill="white"/>
</clipPath>
</defs>
</svg>
