<svg width="345" height="150" viewBox="0 0 345 150" fill="none" xmlns="http://www.w3.org/2000/svg">
<g clip-path="url(#clip0_0_1522)">
<rect width="345" height="150" rx="12" fill="#000E50"/>
<g clip-path="url(#clip1_0_1522)">
<mask id="mask0_0_1522" style="mask-type:luminance" maskUnits="userSpaceOnUse" x="0" y="0" width="345" height="150">
<rect width="345" height="150" rx="12" fill="white"/>
</mask>
<g mask="url(#mask0_0_1522)">
<path opacity="0.17" d="M148.375 38.1992C161.602 60.2123 190.169 67.335 212.182 54.1082C223.331 47.4093 230.661 36.7754 233.461 25.0509C236.19 13.6257 234.619 1.16491 228.091 -9.69934C214.865 -31.7125 186.297 -38.8352 164.284 -25.6083C142.271 -12.3815 135.148 16.1861 148.375 38.1992Z" fill="url(#paint0_linear_0_1522)"/>
<path opacity="0.16" d="M9.43798 29.7741C32.8505 5.06915 41.3074 37.5778 61.5495 17.6666C81.7917 -2.24463 127.666 0.677462 113.098 -10.7044C98.5299 -22.0863 15.0506 -31.7809 3.66873 -17.2127C-7.71318 -2.64453 -13.9745 54.479 9.43798 29.7741Z" fill="#15D468"/>
<path d="M7.27815 19.2777C30.6906 -5.42722 42.883 28.0766 54.2649 13.5084C65.6468 -1.05973 119.286 0.834364 104.718 -10.5475C90.1496 -21.9294 12.8908 -42.2773 1.50889 -27.7091C-9.87301 -13.1409 -16.1344 43.9826 7.27815 19.2777Z" fill="#15D468"/>
<path opacity="0.25" d="M373.459 132.368C373.459 131.214 373.459 80.1275 277.743 92.0927C182.028 104.058 199.62 103.279 147.909 93.997C96.1991 84.7152 -2.03273 97.041 -14.6523 108.31C-27.2718 119.579 3.69285 154.97 3.69285 154.97L313.925 161.47L355.52 158.28C355.52 158.28 373.459 133.523 373.459 132.368Z" fill="#0021BA"/>
<path d="M-14.2035 121.012C-25.5275 106.742 73.8498 107.169 122.559 110.736C171.268 114.303 195.125 125.641 232.793 113.015C270.461 100.388 359.246 102.057 371.866 113.326C384.485 124.596 355.113 158.424 355.113 158.424L38.1133 161.734H3.28648C3.28648 161.734 -2.87954 135.283 -14.2035 121.012Z" fill="url(#paint1_linear_0_1522)"/>
<path opacity="0.07" d="M60.4073 134.062C85.8039 130.913 121.407 139.838 103.533 131.221C85.6584 122.605 -3.35587 116.459 12.2643 127.195C27.8845 137.93 -6.24082 128.066 -0.398973 136.283C5.44288 144.5 35.0106 137.212 60.4073 134.062Z" fill="url(#paint2_linear_0_1522)"/>
<ellipse opacity="0.4" cx="290.469" cy="140.106" rx="21.0563" ry="4.5892" fill="#010A34"/>
<path d="M-0.193501 154.286C-0.193501 154.286 -9.33289 145.741 -5.18291 145.741C-1.03293 145.741 0.885608 147.529 0.885608 147.529C0.885608 147.529 -4.41438 131.907 0.885608 132.647C6.18559 133.386 7.62699 139.635 7.62699 139.635C7.62699 139.635 8.27866 124.481 11.9823 125.923C15.686 127.365 15.461 135.163 15.461 136.06C15.461 136.957 25.112 121.071 26.8265 128.566C28.541 136.06 27.6358 137.967 27.6358 137.967C27.6358 137.967 36.0091 133.554 34.5963 141.748C36.0226 142.609 41.6933 144.51 38.1448 149.398C40.266 149.743 42.2054 152.954 40.1751 154.286C38.1448 155.619 -0.193501 154.286 -0.193501 154.286Z" fill="#0DC25C"/>
<g clip-path="url(#clip2_0_1522)">
<mask id="mask1_0_1522" style="mask-type:luminance" maskUnits="userSpaceOnUse" x="-7" y="125" width="49" height="30">
<path d="M-0.193501 154.286C-0.193501 154.286 -9.33289 145.741 -5.18291 145.741C-1.03293 145.741 0.885608 147.529 0.885608 147.529C0.885608 147.529 -4.41438 131.907 0.885608 132.647C6.18559 133.386 7.62699 139.635 7.62699 139.635C7.62699 139.635 8.27866 124.481 11.9823 125.923C15.686 127.365 15.461 135.163 15.461 136.06C15.461 136.957 25.112 121.071 26.8265 128.566C28.541 136.06 27.6358 137.967 27.6358 137.967C27.6358 137.967 36.0091 133.554 34.5963 141.748C36.0226 142.609 41.6933 144.51 38.1448 149.398C40.266 149.743 42.2054 152.954 40.1751 154.286C38.1448 155.619 -0.193501 154.286 -0.193501 154.286Z" fill="white"/>
</mask>
<g mask="url(#mask1_0_1522)">
<path d="M11.9361 130.913C11.9361 130.913 11.8988 149.07 13.3052 150.094" stroke="#00AD50" stroke-width="0.5" stroke-linecap="round" stroke-linejoin="round"/>
<path d="M0 136.142C0 136.142 8.16373 146.57 8.16373 151.485" stroke="#00AD50" stroke-width="0.5" stroke-linecap="round" stroke-linejoin="round"/>
<path d="M24.5288 131.53C24.5288 131.53 20.414 147.791 16.4814 151.485" stroke="#00AD50" stroke-width="0.5" stroke-linecap="round" stroke-linejoin="round"/>
<path d="M32.1558 140.503C32.1558 140.503 26.8695 150.755 18.0771 152.636" stroke="#00AD50" stroke-width="0.5" stroke-linecap="round" stroke-linejoin="round"/>
</g>
</g>
</g>
<g clip-path="url(#clip3_0_1522)">
<path d="M247.168 57.6731C247.168 57.6731 253.099 55.2995 255.178 56.2167C257.258 57.1339 259.374 59.5036 262.817 58.5884C266.26 57.6731 267.367 56.892 267.367 55.5427C267.367 54.1934 260.099 42.7383 260.099 42.7383H249.678L236.585 44.4105L231.559 48.1687L232.212 56.2167L243.182 55.5427L247.168 57.6731Z" fill="#05AF54"/>
<path d="M246.313 48.7648L248.709 57.1341H250.4L248.357 47.6045H246.313V48.7648Z" fill="#545105"/>
<path d="M239.66 91.6062C239.66 91.6062 248.206 97.0734 259.156 91.6062C260.809 92.5789 268.493 91.7412 271.611 88.5132C271.896 87.94 280.047 95.5546 282.689 94.7893C285.331 94.0239 287.997 85.8084 287.997 85.8084L276.242 78.3555L252.565 77.6475C252.565 77.6475 246.852 77.6257 246.852 78.3555C246.852 79.0853 242.594 79.1865 240.977 80.6031C239.361 82.0196 237.636 83.1031 237.636 83.1031L239.66 91.6062Z" fill="#05AF54"/>
<path d="M254.562 87.0332L253.426 119.825L256.314 128.952H260.272C260.272 128.952 257.718 85.6304 257.718 85.0921C257.718 84.5538 254.562 87.0332 254.562 87.0332Z" fill="#545105"/>
<path d="M253.426 100.872C253.426 100.872 245.591 89.4868 244.656 82.4069C242.943 81.6562 242.466 82.4069 242.466 82.4069C242.466 82.4069 249.446 103.253 253.426 105.529C255.669 106.143 255.178 101.546 255.178 101.546L253.426 100.872Z" fill="#545105"/>
<path d="M256.932 45.2037C256.932 45.2037 258.394 45.3411 257.663 50.7363C257.679 53.3509 271.266 62.2967 275.767 62.2967C280.267 62.2967 289.635 60.9244 291.921 59.7566C294.208 58.5888 298.931 51.9079 298.931 50.7363C298.931 49.5647 290.851 39.8245 290.851 39.8245L277.932 37.1657L262.803 35.2334L255.178 38.1791V41.3909L256.932 45.2037Z" fill="#FC3B97"/>
<path d="M278.869 42.7389C278.869 42.7389 269.858 56.7924 269.858 58.7955C269.413 59.4016 265.898 63.088 265.898 63.088L267.367 69.747C267.367 69.747 276.896 56.6663 284.295 50.7672C283.689 49.4693 282.689 49.4312 282.689 49.4312L275.884 54.3689L281.987 40.8359H280.166L278.869 42.7389Z" fill="#545105"/>
<path d="M235.134 58.5887C235.134 58.5887 229.509 53.8629 229.509 48.8345C229.509 43.8062 220.126 50.6193 221.093 41.0328C221.372 37.4444 220.873 36.0349 219.566 35.1282C218.258 34.2214 217.717 30.5384 222.606 26.2163C224.331 22.9507 223.075 18.9622 225.591 17.8343C228.107 16.7064 229.463 16.7268 238.278 19.9813C239.592 20.6707 243.634 19.115 244.416 15.3644C245.198 11.6139 254.344 10.3635 259.5 14.261C261.281 15.229 263.414 12.4783 264.66 12.4783C265.906 12.4783 279.535 13.082 278.721 20.7775C277.907 28.4731 254.431 43.7331 254.431 43.7331C254.431 43.7331 251.177 50.4128 241.56 47.073C231.942 43.7331 235.134 58.5887 235.134 58.5887Z" fill="#0DD168"/>
<path d="M256.932 45.2034C256.932 45.2034 245.661 41.5372 253.837 35.8082C256.738 35.3689 259.146 35.8082 259.146 35.8082C259.146 35.8082 257.793 28.0125 266.261 27.3965C274.729 26.7806 275.38 26.6288 275.38 26.6288C275.38 26.6288 274.072 21.291 279.597 21.291C285.122 21.291 292.845 24.8452 292.845 24.8452C292.845 24.8452 296.636 17.8402 301.292 23.8542C303.376 26.9774 302.863 31.4361 302.863 31.4361C302.863 31.4361 309.575 30.8272 306.219 38.328C305.191 39.5539 302.863 40.5403 302.863 40.5403C302.863 40.5403 306.325 51.5942 297.559 50.6639C288.794 49.7336 289.945 41.142 285.197 41.142C280.449 41.142 281.867 50.2 271.536 42.7385C268.62 42.7385 263.345 42.0116 264.612 43.8273C265.88 45.643 256.932 45.2034 256.932 45.2034Z" fill="#45E38E"/>
<g clip-path="url(#clip4_0_1522)">
<path d="M316.931 46.1421C316.931 46.1421 310.817 42.6699 307.338 44.406C303.858 46.1421 300.417 50.7361 298.071 50.7361C295.726 50.7361 295.542 49.0914 287.997 50.7361C280.452 52.3809 281.189 64.3644 281.189 64.3644C281.189 64.3644 281.189 84.9988 297.21 86.2449C313.232 87.4909 305.837 84.9827 312.592 83.9487C314.476 84.7155 319.351 86.6569 321.413 85.3028C323.476 83.9487 329.113 90.5229 333.513 89.2938C337.912 88.0646 339.781 85.3028 341.296 85.3028C342.811 85.3028 350.965 86.8513 351.715 83.4382C352.464 80.0252 357.403 76.5195 356.871 73.6713C356.339 70.8231 356.025 69.7466 356.025 69.7466C356.025 69.7466 362.372 65.4824 360.626 63.2733C358.88 61.0641 357.718 60.0534 356.871 60.5587C356.025 61.0641 353.576 55.9738 350.045 52.3693C346.514 48.7648 339.317 52.7831 337.282 52.3693C335.247 51.9555 335.387 49.9957 333.513 47.6045C331.639 45.2134 320.873 44.0481 319.219 45.3986C317.565 46.7492 316.931 46.1421 316.931 46.1421Z" fill="#0DD168"/>
<g clip-path="url(#clip5_0_1522)">
<mask id="mask2_0_1522" style="mask-type:luminance" maskUnits="userSpaceOnUse" x="281" y="43" width="80" height="47">
<path d="M316.931 46.1421C316.931 46.1421 310.817 42.6699 307.338 44.406C303.858 46.1421 300.417 50.7361 298.071 50.7361C295.726 50.7361 295.542 49.0914 287.997 50.7361C280.452 52.3809 281.189 64.3644 281.189 64.3644C281.189 64.3644 281.189 84.9988 297.21 86.2449C313.232 87.4909 305.837 84.9827 312.592 83.9487C314.476 84.7155 319.351 86.6569 321.413 85.3028C323.476 83.9487 329.113 90.5229 333.513 89.2938C337.912 88.0646 339.781 85.3028 341.296 85.3028C342.811 85.3028 350.965 86.8513 351.715 83.4382C352.464 80.0252 357.403 76.5195 356.871 73.6713C356.339 70.8231 356.025 69.7466 356.025 69.7466C356.025 69.7466 362.372 65.4824 360.626 63.2733C358.88 61.0641 357.718 60.0534 356.871 60.5587C356.025 61.0641 353.576 55.9738 350.045 52.3693C346.514 48.7648 339.317 52.7831 337.282 52.3693C335.247 51.9555 335.387 49.9957 333.513 47.6045C331.639 45.2134 320.873 44.0481 319.219 45.3986C317.565 46.7492 316.931 46.1421 316.931 46.1421Z" fill="white"/>
</mask>
<g mask="url(#mask2_0_1522)">
<path d="M314.039 73.2868C314.039 73.2868 308.393 69.0609 311.216 66.6375C314.039 64.2142 316.905 64.4153 316.905 64.4153C316.905 64.4153 316.161 57.1341 323.014 57.1341C329.867 57.1341 330.838 57.1341 330.838 57.1341C330.838 57.1341 331.173 52.7831 334.915 52.3693C338.657 51.9555 342.131 50.7361 342.131 50.7361L355.486 49.7363L371.866 63.0302L359.165 79.3559L352.162 83.9805L334.915 77.6466L323.014 74.5428L314.695 73.2868" fill="#FFE303"/>
<path d="M290.871 82.7287C290.871 82.7287 294.23 75.5418 298.931 75.5418C303.632 75.5418 309.12 78.4814 310.852 75.5418C312.584 72.6021 314.273 66.0977 319.28 67.2382C324.287 68.3787 328.676 73.8144 332.489 71.7803C336.302 69.7462 340.643 67.2721 343.398 70.7897C346.154 74.3074 346.263 74.4054 349.313 75.5418C352.363 76.6781 352.16 79.213 352.16 82.7287C352.16 86.2444 350.9 87.8206 350.9 87.8206L323.627 91.6055L304.127 87.8206H291.745L290.871 82.7287Z" fill="#05AF54"/>
</g>
</g>
</g>
<path d="M331.99 72.018C331.99 72.018 328.007 75.4169 328.007 76.2043C328.007 76.9917 316.951 85.382 316.951 89.4484C316.635 89.3861 315.152 68.2979 315.152 68.2979L314.205 69.4007L314.835 83.9811L310.852 75.5428L309.832 76.5958C309.832 76.5958 314.351 88.9784 314.835 89.4484C314.488 89.2697 314.123 107.855 314.123 107.855C314.123 107.855 305.858 98.1086 303.728 85.7163C302.762 85.4594 302.442 86.2454 302.442 86.2454C302.442 86.2454 307.685 105.278 314.123 110.377C314.163 111.482 313.619 127.953 313.619 127.953L319.412 126.794C319.412 126.794 317.151 98.44 317.151 97.9129C317.151 97.3858 318.349 95.9541 318.349 92.7012C318.096 90.8411 337.178 72.0414 341.265 69.4007C341.264 68.8784 338.394 69.1077 338.394 69.1077L333.208 72.6918L333.981 71.0235L331.99 72.018Z" fill="#545105"/>
<path d="M254.999 45.1982H256.247L256.3 62.2965H253.978L254.999 45.1982Z" fill="#545105"/>
<path d="M273.296 127.953C273.296 127.953 262.395 123.961 265.179 118.176C266.67 117.175 271.66 120.674 271.66 120.674C271.66 120.674 266.489 103.412 271.66 103.412C276.831 103.412 279.657 108.463 280.423 111.092C281.189 113.72 279.708 93.7565 285.29 96.5824C290.871 99.4083 291.57 100.538 291.57 101.916C291.57 103.294 292.861 95.7979 298.162 97.4634C303.463 99.1288 304.199 103.935 303.321 107.513C303.31 107.528 313.597 106.579 310.275 113.626C312.471 112.766 319.058 115.45 315.494 122.201C317.189 122.203 320.616 123.337 318.382 125.645C316.148 127.953 309.625 130.079 305.49 130.079C301.355 130.079 276.618 129.95 275.386 128.951C274.155 127.953 273.296 127.953 273.296 127.953Z" fill="#05AF54"/>
<g clip-path="url(#clip6_0_1522)">
<path d="M307.467 108.37C307.467 108.37 309.68 103.15 311.267 103.15C312.855 103.15 313.245 104.473 311.267 106.422C309.29 108.37 307.467 108.37 307.467 108.37Z" fill="#FFE303"/>
<path d="M305.289 113.277C305.289 113.277 309.237 110.274 309.814 111.776C310.391 113.277 309.887 114.088 308.075 114.412C306.262 114.737 304.499 115.061 304.499 115.061L305.289 113.277Z" fill="#FFE303"/>
<path d="M303.313 117.603C303.313 117.603 305.254 115.918 306.262 116.284C307.27 116.651 307.485 118.688 306.262 118.688C305.039 118.688 302.919 118.943 302.919 118.943L303.313 117.944" fill="#FFE303"/>
<g clip-path="url(#clip7_0_1522)">
<path d="M306.727 109.991C306.727 109.991 306.841 104.278 303.14 103.46C300.572 105.385 304.944 112.87 305.488 112.415C306.032 111.96 306.727 109.991 306.727 109.991Z" fill="#FFE303"/>
<path d="M303.797 115.913C303.797 115.913 302.022 109.671 300.431 109.671C298.841 109.671 298.476 110.851 299.166 112.363C299.857 113.876 303.005 117.885 303.005 117.885L303.797 115.913Z" fill="#FFE303"/>
<path d="M308.929 106.354C308.929 106.354 303.424 116.16 303.005 119.153C302.586 122.146 303.362 122.663 303.362 122.663" stroke="#FFE303"/>
</g>
</g>
<path d="M310.275 128.952C310.275 128.952 310.63 126.903 309.298 126.903C307.967 126.903 310.522 120.759 307.164 120.759C305.083 120.903 306.303 118.762 304.002 117.4C301.701 116.038 300.186 118.213 300.186 118.213C300.186 118.213 301.607 111.571 297.853 109.733C294.099 107.894 292.587 110.621 292.587 110.621C292.587 110.621 293.745 106.056 290.871 107.894C287.997 109.733 287.997 113.194 287.997 113.194C287.997 113.194 283.152 107.006 282.17 111.016C281.189 115.026 283.655 117.4 283.655 117.4C283.655 117.4 273.502 114.225 275.097 118.213C276.691 122.201 277.266 123.279 277.266 123.279C277.266 123.279 273.193 123.501 273.193 126.451C273.193 129.4 275.207 128.952 275.967 128.952C276.726 128.952 290.346 131.45 294.099 131.45C297.853 131.45 306.302 130.745 307.164 130.745C308.026 130.745 310.275 128.952 310.275 128.952Z" fill="#6236FF"/>
<path d="M329.415 129.72C329.415 129.72 324.45 125.101 326.704 125.101C328.959 125.101 330.002 126.067 330.002 126.067C330.002 126.067 327.122 117.624 330.002 118.024C332.881 118.424 333.664 121.801 333.664 121.801C333.664 121.801 334.018 113.611 336.031 114.39C338.043 115.169 337.921 119.384 337.921 119.869C337.921 120.354 343.164 111.768 344.096 115.818C345.027 119.869 344.535 120.9 344.535 120.9C344.535 120.9 349.085 118.514 348.317 122.943C349.092 123.409 352.173 124.436 350.245 127.078C351.398 127.264 352.451 128.999 351.348 129.72C350.245 130.44 329.415 129.72 329.415 129.72Z" fill="#05AF54"/>
<path d="M242.174 91.5594C242.174 91.5594 229.396 92.2829 231.397 81.8797C228.298 80.139 223.619 73.2149 228.658 67.4895C227.871 64.4478 226.866 58.4244 232.658 60.4081C232.852 53.6738 237.965 49.202 240.07 53.8956C243.701 51.5961 247.168 52.1284 247.168 57.6739C249.764 56.5357 254.995 56.9599 254.995 61.9122C255.723 61.389 261.556 55.3017 265.096 60.4081C268.637 65.5145 267.066 68.7653 267.066 68.7653C267.066 68.7653 277.782 67.1401 280.123 70.9807C282.465 74.8214 284.215 85.5199 280.694 84.8247C277.172 84.1295 275.365 82.0646 272.33 80.6033C269.296 79.142 266.176 77.0655 261.853 82.78C258.602 86.331 257.244 90.3554 249.709 84.8247C245.524 82.5514 236.405 81.3104 240.964 90.2992" fill="#45E38E"/>
</g>
<path opacity="0.05" d="M150.344 141.431C124.947 138.282 119.248 143.652 107.218 135.644C95.188 127.635 214.107 123.828 198.487 134.564C182.866 145.299 202.193 138.029 211.15 143.652C220.107 149.275 175.74 144.581 150.344 141.431Z" fill="url(#paint3_linear_0_1522)"/>
<path d="M265.325 130.079C265.325 130.079 259.109 137.693 249.734 139.217C240.358 140.741 237.717 139.067 232.371 140.325C227.025 141.584 215.422 142.134 213.95 140.876C212.479 139.618 212.325 138.408 212.325 138.408C212.325 138.408 228.625 132.964 229.675 132.964C230.725 132.964 265.325 130.079 265.325 130.079Z" fill="#000E31"/>
</g>
<g clip-path="url(#clip8_0_1522)">
<path d="M270.225 83.4414L269.791 83.879L269.492 85.0204L273.837 89.5232L275.19 89.941L274.761 89.0028L271.309 85.5259L270.504 84.6132L270.225 83.4414Z" fill="#000E50"/>
<path d="M290.115 74.3213L290.792 76.2143C290.792 76.2143 286.832 77.363 286.832 77.0173C286.832 76.6715 286.832 76.2143 286.832 76.2143L287.917 75.1816L290.115 74.3213Z" fill="#FFF0D6"/>
<path d="M291.735 67.0517C291.735 67.0517 293.564 71.4698 290.626 74.0455C289.996 73.8254 289.017 72.7239 289.017 71.8258C289.017 70.9276 289.155 70.2966 288.287 69.6549C287.418 69.0133 287.165 68.1256 287.165 68.1256L289.287 66.6277L291.298 66.1572L291.735 67.0517Z" fill="#051870"/>
<path d="M283.57 68.3734C283.57 68.3734 284.756 70.7413 284.403 71.4783C284.051 72.2154 283.482 73.1678 284.095 73.1678C284.708 73.1678 285.786 73.8727 285.786 73.8727L288.2 73.4861L289.431 71.0738C289.431 71.0738 289.365 69.6525 289.157 69.6525C288.949 69.6525 287.466 68.2766 287.466 68.2766L285.786 67.3867C285.786 67.3867 284.403 67.3867 284.403 67.3867L283.57 68.3734Z" fill="#FFF0D6"/>
<path d="M285.425 71.2606C285.278 71.2839 285.12 71.0641 285.074 70.7696C285.027 70.4751 285.109 70.2174 285.256 70.1941C285.403 70.1708 285.706 70.2387 285.752 70.5332C285.799 70.8278 285.572 71.2373 285.425 71.2606Z" fill="#000E50"/>
<path d="M291.589 66.7431C291.589 66.7431 290.668 66.5666 289.925 67.2876C289.181 68.0086 287.798 68.9212 286.871 68.4649C285.944 68.0086 285.492 67.8211 284.709 68.143C283.925 68.4649 283.258 68.9984 283.258 68.143C283.258 67.2876 282.925 66.2846 283.999 65.8373C285.073 65.39 285.035 64.6769 286.217 64.2464C287.399 63.816 287.618 63.5021 288.5 63.8743C289.383 64.2464 291.047 64.2548 291.047 64.7508C291.047 65.2468 292.554 65.078 292.072 65.6176C291.589 66.1571 291.589 66.7431 291.589 66.7431Z" fill="#000E50"/>
<g clip-path="url(#clip9_0_1522)">
<path d="M289.431 70.5332C289.431 70.5332 288.427 72.7092 287.23 73.044C286.033 73.3788 284.795 73.3321 284.795 73.3321C284.795 73.3321 285.053 76.131 286.37 76.131C287.688 76.131 290.792 74.4956 290.792 73.9139C290.792 73.3321 289.801 70.5332 289.801 70.5332H289.431Z" fill="#000E50"/>
<g clip-path="url(#clip10_0_1522)">
<mask id="mask3_0_1522" style="mask-type:luminance" maskUnits="userSpaceOnUse" x="284" y="70" width="7" height="7">
<path d="M289.431 70.5332C289.431 70.5332 288.427 72.7092 287.23 73.044C286.033 73.3788 284.795 73.3321 284.795 73.3321C284.795 73.3321 285.053 76.131 286.37 76.131C287.688 76.131 290.792 74.4956 290.792 73.9139C290.792 73.3321 289.801 70.5332 289.801 70.5332H289.431Z" fill="white"/>
</mask>
<g mask="url(#mask3_0_1522)">
<path d="M284.656 74.0781C284.656 74.0781 284.694 74.0736 284.713 74.0714C285.311 74.0015 286.501 74.0781 286.501 74.0781C286.501 74.0781 285.836 75.8147 284.945 75.0421C284.054 74.2695 284.53 74.2571 284.53 74.2571" fill="white"/>
</g>
</g>
</g>
<path d="M291.1 76.2166V77.4603C291.1 77.4603 295.661 80.1568 295.661 83.6198C295.661 87.0828 296.916 101.111 295.661 101.558C294.405 102.006 284.609 102.966 283.699 102.262C282.789 101.558 282.141 89.7087 285.196 82.2393C286.464 78.567 286.832 79.4711 286.832 76.6721C286.794 75.4973 289.801 75.9338 289.801 75.9338L291.1 76.2166Z" fill="white"/>
<g clip-path="url(#clip11_0_1522)">
<path d="M281.86 138.794C281.86 138.794 276.603 139.919 276.603 141.227C276.603 142.536 278.187 141.836 280.129 141.836C282.072 141.836 283.066 141.946 283.54 141.227C284.014 140.508 283.805 139.687 283.721 139.234C283.638 138.781 283.024 138.437 283.024 138.437L281.86 138.794Z" fill="#000E50"/>
<g clip-path="url(#clip12_0_1522)">
<mask id="mask4_0_1522" style="mask-type:luminance" maskUnits="userSpaceOnUse" x="276" y="138" width="8" height="5">
<path d="M281.86 138.794C281.86 138.794 276.603 139.919 276.603 141.227C276.603 142.536 278.187 141.836 280.129 141.836C282.072 141.836 283.066 141.946 283.54 141.227C284.014 140.508 283.805 139.687 283.721 139.234C283.638 138.781 283.024 138.437 283.024 138.437L281.86 138.794Z" fill="white"/>
</mask>
<g mask="url(#mask4_0_1522)">
<path d="M284.322 140.877C284.322 140.877 283.869 142.459 283.697 142.459C283.525 142.459 281.598 142.745 280.71 142.895C279.823 143.045 276.217 142.614 276.455 142.459C276.692 142.304 276.455 141.456 276.455 141.456C276.455 141.456 276.474 140.803 276.602 141.111C277.017 142.108 278.853 141.55 279.823 141.456C280.641 141.376 281.374 141.638 282.684 141.456C283.095 141.399 284.322 140.877 284.322 140.877Z" fill="white"/>
</g>
</g>
</g>
<g clip-path="url(#clip13_0_1522)">
<path d="M301.528 136.557C301.528 136.557 296.828 139.17 297.211 140.421C297.593 141.672 298.904 140.54 300.762 139.972C302.619 139.404 303.602 139.219 303.845 138.392C304.088 137.566 303.648 136.842 303.436 136.434C303.223 136.025 302.536 135.874 302.536 135.874L301.528 136.557Z" fill="#000E50"/>
<mask id="mask5_0_1522" style="mask-type:luminance" maskUnits="userSpaceOnUse" x="297" y="135" width="7" height="6">
<path d="M301.528 136.557C301.528 136.557 296.828 139.17 297.211 140.421C297.593 141.672 298.904 140.54 300.762 139.972C302.619 139.404 303.602 139.219 303.845 138.392C304.088 137.566 303.648 136.842 303.436 136.434C303.223 136.025 302.536 135.874 302.536 135.874L301.528 136.557Z" fill="white"/>
</mask>
<g mask="url(#mask5_0_1522)">
<path d="M304.491 137.828C304.491 137.828 304.519 139.474 304.355 139.524C304.19 139.574 302.432 140.411 301.627 140.814C300.821 141.217 297.248 141.859 297.429 141.641C297.611 141.424 297.136 140.682 297.136 140.682C297.136 140.682 296.964 140.052 297.177 140.309C297.864 141.141 299.457 140.071 300.357 139.698C301.116 139.382 301.894 139.418 303.093 138.861C303.47 138.686 304.491 137.828 304.491 137.828Z" fill="white"/>
</g>
</g>
<path d="M293.448 80.9768C293.448 80.9768 296.481 83.1166 293.96 90.6325C291.439 98.1484 289.874 99.9401 288.812 98.3875C287.75 96.8348 286.499 94.8767 286.832 93.9073C287.164 92.938 288.348 82.6894 291.868 80.6748C293.067 80.6748 293.448 80.9768 293.448 80.9768Z" fill="#E9E9E9"/>
<path d="M273.718 87.0591L270.391 83.7275L270.031 84.7166L274.932 89.3492L275.19 88.7027L273.718 87.0591Z" fill="white"/>
<path d="M287.164 94.6177C287.164 94.6177 283.238 92.2469 279.074 91.3954C276.912 90.241 276.365 87.8884 273.612 87.2822C273.446 87.3723 274.978 88.8233 275.208 89.1635C275.438 89.5036 274.46 89.9662 273.916 89.3381C273.373 88.7101 272.159 87.4003 271.993 87.8531C271.827 88.3059 273.206 90.7236 274.468 90.95C275.729 91.1763 277.965 92.4701 279.799 93.8167C281.633 95.1632 288.427 98.7587 288.812 98.3872C289.196 98.0157 287.164 94.6177 287.164 94.6177Z" fill="#FFF0D6"/>
<path d="M285.149 122.516C285.149 122.516 284.34 125.525 283.991 125.845C283.643 126.165 283.851 138.926 283.498 139.309C283.145 139.691 282.33 139.434 282.14 139.309C281.95 139.183 281.373 137.068 280.933 135.345C280.492 133.622 278.801 122.179 280.716 120.823C282.631 119.467 285.149 122.516 285.149 122.516Z" fill="#FFF0D6"/>
<path d="M295.973 118.737C295.973 118.737 297.517 124.586 298.157 125.805C298.797 127.023 302.54 135.352 302.779 136.143C303.017 136.933 301.984 137.305 301.454 136.748C300.925 136.191 297.05 131.808 296.219 130.192C295.388 128.577 289.958 121.566 290.724 120.406C291.49 119.245 295.973 118.737 295.973 118.737Z" fill="#FFF0D6"/>
<path d="M295.104 101.215C295.104 101.215 295.388 106.021 292.571 108.752C289.754 111.483 285.575 122.516 285.575 122.516C285.575 122.516 279.646 121.663 279.646 120.778C279.646 119.893 283.634 103.481 285.575 101.979C287.517 100.478 295.104 101.215 295.104 101.215Z" fill="#000E50"/>
<path d="M293.786 107.384C293.786 107.384 296.219 117.393 296.219 118.272C296.219 119.151 291.149 122.037 290.599 121.473C290.049 120.908 287.517 115.79 287.517 115.79L291.355 108.018L293.786 107.384Z" fill="#000E50"/>
</g>
<g clip-path="url(#clip14_0_1522)">
<g clip-path="url(#clip15_0_1522)">
<g clip-path="url(#clip16_0_1522)">
<g clip-path="url(#clip17_0_1522)">
<path d="M267.742 123.584L267.913 118.451L266.95 120.488C265.933 118.172 263.979 115.971 261.073 114.114C251.913 108.256 237.254 108.298 228.332 114.208C225.48 116.095 223.52 118.327 222.442 120.667L221.457 118.402L221.473 125.786L221.513 125.803C221.812 129.157 223.885 132.397 227.759 134.878C236.364 140.386 251.023 140.345 260.5 134.785C264.698 132.323 267.084 129.136 267.646 125.842L267.67 125.833L267.677 125.631C267.777 124.954 267.799 124.267 267.742 123.584Z" fill="#FFEC50"/>
<path d="M267.742 123.584L267.913 118.451L266.95 120.488C265.933 118.172 263.979 115.971 261.073 114.114C251.913 108.256 237.254 108.298 228.332 114.208C225.48 116.095 223.52 118.327 222.442 120.667L221.457 118.402L221.473 125.786L221.513 125.803C221.812 129.157 223.885 132.397 227.759 134.878C236.364 140.386 251.023 140.345 260.5 134.785C264.698 132.323 267.084 129.136 267.646 125.842L267.67 125.833L267.677 125.631C267.777 124.954 267.799 124.267 267.742 123.584Z" fill="url(#paint4_linear_0_1522)"/>
</g>
<g clip-path="url(#clip18_0_1522)">
<path d="M261.2 107.575C270.387 113.721 270.123 123.444 260.61 129.292C251.096 135.14 236.388 135.195 227.757 129.415C219.126 123.636 219.391 113.913 228.348 107.697C237.305 101.481 252.013 101.429 261.2 107.575Z" fill="#FFEC50"/>
<g filter="url(#filter0_i_0_1522)">
<path d="M261.2 107.575C270.387 113.721 270.123 123.444 260.61 129.292C251.096 135.14 236.388 135.195 227.757 129.415C219.126 123.636 219.391 113.913 228.348 107.697C237.305 101.481 252.013 101.429 261.2 107.575Z" fill="url(#paint5_linear_0_1522)"/>
</g>
</g>
<g clip-path="url(#clip19_0_1522)">
<path d="M258.562 109.298C266.282 114.462 266.06 122.631 258.067 127.546C250.074 132.461 237.715 132.505 230.464 127.648C223.212 122.791 223.436 114.622 230.959 109.4C238.483 104.178 250.843 104.134 258.562 109.298Z" fill="#FFEC50"/>
<g filter="url(#filter1_i_0_1522)">
<path d="M258.562 109.298C266.282 114.462 266.06 122.631 258.067 127.546C250.074 132.461 237.715 132.505 230.464 127.648C223.212 122.791 223.436 114.622 230.959 109.4C238.483 104.178 250.843 104.134 258.562 109.298Z" fill="url(#paint6_linear_0_1522)"/>
</g>
</g>
</g>
<g clip-path="url(#clip20_0_1522)">
<g filter="url(#filter2_d_0_1522)">
<path d="M240.641 115.769L238.991 113.05C236.828 113.235 235.468 113.89 234.917 115.023C234.48 115.931 234.53 117.008 235.081 118.257C235.06 118.257 235.04 118.258 235.019 118.259L233.282 118.388C232.801 118.423 232.566 118.714 232.759 119.039L233.471 120.22C233.671 120.546 234.23 120.783 234.718 120.747L236.479 120.617C236.524 120.614 236.566 120.607 236.606 120.6C237.584 121.716 238.764 122.583 240.139 123.2C242.069 124.056 244.06 124.401 246.084 124.23C247.55 124.102 248.536 123.736 249.049 123.132C249.562 122.535 249.554 121.523 249.045 120.099L247.914 116.661C247.753 116.145 247.769 115.756 247.96 115.495C248.155 115.241 248.507 115.087 249.014 115.035C249.712 114.963 250.408 115.12 251.105 115.507C251.81 115.9 252.423 116.463 252.947 117.195C254.124 118.808 253.793 119.825 251.913 120.238L253.999 123.011C256.059 122.694 257.264 121.998 257.626 120.93C257.85 120.264 257.769 119.501 257.387 118.643C257.475 118.651 257.562 118.651 257.645 118.642L259.266 118.456C259.712 118.404 259.87 118.1 259.62 117.777L258.73 116.61C258.488 116.289 257.936 116.07 257.496 116.122L255.897 116.306C255.882 116.307 255.869 116.31 255.855 116.312C254.744 114.979 253.462 113.988 251.997 113.333C250.308 112.571 248.607 112.281 246.872 112.461C245.506 112.598 244.557 112.944 244.025 113.498C243.49 114.054 243.365 114.856 243.66 115.907L244.628 119.367C245.042 120.684 244.701 121.392 243.592 121.488C241.84 121.635 240.352 120.794 239.17 118.977C237.993 117.1 238.5 116.035 240.641 115.769Z" fill="#FFEC50"/>
</g>
<path d="M240.641 115.769L238.991 113.05C236.828 113.235 235.468 113.89 234.917 115.023C234.48 115.931 234.53 117.008 235.081 118.257C235.06 118.257 235.04 118.258 235.019 118.259L233.282 118.388C232.801 118.423 232.566 118.714 232.759 119.039L233.471 120.22C233.671 120.546 234.23 120.783 234.718 120.747L236.479 120.617C236.524 120.614 236.566 120.607 236.606 120.6C237.584 121.716 238.764 122.583 240.139 123.2C242.069 124.056 244.06 124.401 246.084 124.23C247.55 124.102 248.536 123.736 249.049 123.132C249.562 122.535 249.554 121.523 249.045 120.099L247.914 116.661C247.753 116.145 247.769 115.756 247.96 115.495C248.155 115.241 248.507 115.087 249.014 115.035C249.712 114.963 250.408 115.12 251.105 115.507C251.81 115.9 252.423 116.463 252.947 117.195C254.124 118.808 253.793 119.825 251.913 120.238L253.999 123.011C256.059 122.694 257.264 121.998 257.626 120.93C257.85 120.264 257.769 119.501 257.387 118.643C257.475 118.651 257.562 118.651 257.645 118.642L259.266 118.456C259.712 118.404 259.87 118.1 259.62 117.777L258.73 116.61C258.488 116.289 257.936 116.07 257.496 116.122L255.897 116.306C255.882 116.307 255.869 116.31 255.855 116.312C254.744 114.979 253.462 113.988 251.997 113.333C250.308 112.571 248.607 112.281 246.872 112.461C245.506 112.598 244.557 112.944 244.025 113.498C243.49 114.054 243.365 114.856 243.66 115.907L244.628 119.367C245.042 120.684 244.701 121.392 243.592 121.488C241.84 121.635 240.352 120.794 239.17 118.977C237.993 117.1 238.5 116.035 240.641 115.769Z" fill="url(#paint7_linear_0_1522)"/>
</g>
</g>
<g clip-path="url(#clip21_0_1522)">
<g clip-path="url(#clip22_0_1522)">
<g clip-path="url(#clip23_0_1522)">
<path d="M243.613 124.15C240.106 133.609 228.672 141.277 218.081 141.277C211.384 141.277 205.838 136.628 204.426 131.984C203.605 129.282 204.838 127.628 206.352 124.149C210.468 114.69 221.9 107.024 231.886 107.024C236.318 107.024 239.641 107.337 241.856 109.844C244.631 112.985 245.566 118.889 243.613 124.15Z" fill="#FFEC50"/>
<path d="M243.613 124.15C240.106 133.609 228.672 141.277 218.081 141.277C211.384 141.277 205.838 136.628 204.426 131.984C203.605 129.282 204.838 127.628 206.352 124.149C210.468 114.69 221.9 107.024 231.886 107.024C236.318 107.024 239.641 107.337 241.856 109.844C244.631 112.985 245.566 118.889 243.613 124.15Z" fill="url(#paint8_linear_0_1522)"/>
</g>
<g clip-path="url(#clip24_0_1522)">
<path d="M241.663 120.128C238.155 129.586 226.722 137.255 216.131 137.255C205.54 137.255 200.286 129.586 204.402 120.128C208.519 110.669 219.95 103 229.936 103C239.921 103 245.172 110.668 241.663 120.128Z" fill="#FFEC50"/>
<g filter="url(#filter3_i_0_1522)">
<path d="M241.663 120.128C238.155 129.586 226.722 137.255 216.131 137.255C205.54 137.255 200.286 129.586 204.402 120.128C208.519 110.669 219.95 103 229.936 103C239.921 103 245.172 110.668 241.663 120.128Z" fill="url(#paint9_linear_0_1522)"/>
</g>
</g>
<g clip-path="url(#clip25_0_1522)">
<path d="M238.033 120.127C235.204 127.759 225.979 133.946 217.433 133.946C208.887 133.946 204.649 127.76 207.97 120.127C211.29 112.495 220.513 106.308 228.572 106.308C236.63 106.308 240.866 112.495 238.033 120.127Z" fill="#FFEC50"/>
<g filter="url(#filter4_i_0_1522)">
<path d="M238.033 120.127C235.204 127.759 225.979 133.946 217.433 133.946C208.887 133.946 204.649 127.76 207.97 120.127C211.29 112.495 220.513 106.308 228.572 106.308C236.63 106.308 240.866 112.495 238.033 120.127Z" fill="url(#paint10_linear_0_1522)"/>
</g>
</g>
</g>
<g clip-path="url(#clip26_0_1522)">
<g filter="url(#filter5_d_0_1522)">
<path d="M218.301 119.412L215.496 117.764C214.174 118.897 213.698 120.073 214.076 121.295C214.384 122.269 215.123 123.174 216.294 124.01C216.281 124.02 216.268 124.029 216.256 124.039L215.226 124.903C214.94 125.141 214.983 125.492 215.321 125.687L216.552 126.394C216.893 126.59 217.401 126.555 217.686 126.317L218.713 125.453C218.739 125.431 218.761 125.408 218.781 125.384C220.112 125.94 221.401 126.2 222.644 126.164C224.371 126.113 225.809 125.591 226.952 124.596C227.778 123.872 228.17 123.13 228.131 122.37C228.098 121.614 227.498 120.699 226.34 119.626L223.581 117.009C223.17 116.614 222.949 116.256 222.919 115.936C222.896 115.62 223.035 115.326 223.338 115.054C223.754 114.679 224.302 114.514 224.984 114.558C225.671 114.605 226.393 114.85 227.152 115.293C228.826 116.264 229.192 117.342 228.237 118.526L231.133 120.184C232.235 119.026 232.598 117.873 232.234 116.727C232.009 116.012 231.537 115.337 230.821 114.702C230.881 114.672 230.937 114.634 230.985 114.589L231.922 113.715C232.179 113.473 232.116 113.12 231.781 112.925L230.572 112.221C230.24 112.026 229.761 112.065 229.503 112.306L228.563 113.18C228.555 113.188 228.547 113.197 228.539 113.205C227.068 112.462 225.664 112.118 224.319 112.173C222.753 112.237 221.445 112.743 220.391 113.689C219.561 114.429 219.137 115.165 219.122 115.898C219.109 116.632 219.519 117.399 220.358 118.203L223.096 120.863C224.158 121.862 224.374 122.639 223.736 123.195C222.728 124.068 221.268 123.958 219.374 122.868C217.423 121.74 217.073 120.588 218.301 119.412Z" fill="#FFEC50"/>
</g>
<path d="M218.301 119.412L215.496 117.764C214.174 118.897 213.698 120.073 214.076 121.295C214.384 122.269 215.123 123.174 216.294 124.01C216.281 124.02 216.268 124.029 216.256 124.039L215.226 124.903C214.94 125.141 214.983 125.492 215.321 125.687L216.552 126.394C216.893 126.59 217.401 126.555 217.686 126.317L218.713 125.453C218.739 125.431 218.761 125.408 218.781 125.384C220.112 125.94 221.401 126.2 222.644 126.164C224.371 126.113 225.809 125.591 226.952 124.596C227.778 123.872 228.17 123.13 228.131 122.37C228.098 121.614 227.498 120.699 226.34 119.626L223.581 117.009C223.17 116.614 222.949 116.256 222.919 115.936C222.896 115.62 223.035 115.326 223.338 115.054C223.754 114.679 224.302 114.514 224.984 114.558C225.671 114.605 226.393 114.85 227.152 115.293C228.826 116.264 229.192 117.342 228.237 118.526L231.133 120.184C232.235 119.026 232.598 117.873 232.234 116.727C232.009 116.012 231.537 115.337 230.821 114.702C230.881 114.672 230.937 114.634 230.985 114.589L231.922 113.715C232.179 113.473 232.116 113.12 231.781 112.925L230.572 112.221C230.24 112.026 229.761 112.065 229.503 112.306L228.563 113.18C228.555 113.188 228.547 113.197 228.539 113.205C227.068 112.462 225.664 112.118 224.319 112.173C222.753 112.237 221.445 112.743 220.391 113.689C219.561 114.429 219.137 115.165 219.122 115.898C219.109 116.632 219.519 117.399 220.358 118.203L223.096 120.863C224.158 121.862 224.374 122.639 223.736 123.195C222.728 124.068 221.268 123.958 219.374 122.868C217.423 121.74 217.073 120.588 218.301 119.412Z" fill="url(#paint11_linear_0_1522)"/>
</g>
</g>
</g>
<g clip-path="url(#clip27_0_1522)">
<path fill-rule="evenodd" clip-rule="evenodd" d="M76.8395 44.6424V41.7512H67.1471V40.457H61.6401V41.7512H51.7825V44.6424H76.8395ZM44.6329 48.606C44.1005 49.1567 43.2102 49.4321 41.962 49.4321H25.6611V41.2266H45.4314V45.7974C45.4314 47.1191 45.1652 48.0553 44.6329 48.606ZM30.0669 44.3393H41.0259V43.4307H30.0669V44.3393ZM40.0622 47.2294H30.0669V46.2656H41.0259C41.0076 46.6511 40.9341 46.9081 40.8056 47.0366C40.6771 47.1651 40.4293 47.2294 40.0622 47.2294ZM35.684 65.459V63.0084C35.8675 62.9716 36.1612 62.9166 36.5651 62.8431V65.3489C38.8964 64.7064 40.6862 64.018 41.9345 63.2837C43.4214 64.0914 45.2754 64.7981 47.4966 65.4039V62.733C46.3217 62.3475 45.3121 61.8978 44.4677 61.3838C45.5691 60.264 46.5237 58.6211 47.3314 56.455V53.8667H36.2347V56.4825H43.2286C42.7146 57.5839 42.2282 58.4283 41.7692 59.0158C41.3103 58.3916 40.934 57.795 40.6403 57.226H36.51C37.1892 58.9148 38.1071 60.2915 39.2635 61.3562C38.566 61.8152 37.7032 62.2649 36.6752 62.7055V60.3374C36.3265 60.3925 35.996 60.4476 35.684 60.5027V52.9029H48.1299V50.1494H22.9902V52.9029H24.7525V61.549C24.2569 61.5673 23.7612 61.5765 23.2656 61.5765V64.7431C26.6249 64.4494 29.4794 64.1098 31.829 63.7243V65.459H35.684ZM31.829 54.1149H28.6074V52.9033H31.829V54.1149ZM28.6074 57.6391H31.829V56.3174H28.6074V57.6391ZM28.6074 61.3287V59.8418H31.829V60.9983C30.7643 61.1084 29.6905 61.2186 28.6074 61.3287ZM70.2311 51.6087C71.4794 51.6087 72.3513 51.3425 72.8469 50.8102C73.3426 50.2779 73.5904 49.3141 73.5904 47.919V45.5234H55.1143V51.6087H70.2311ZM68.0284 49.2686H59.6577V47.8643H69.0472V48.2222C69.0472 48.6444 68.983 48.9198 68.8545 49.0483C68.7076 49.1951 68.4323 49.2686 68.0284 49.2686ZM72.4339 65.1837C73.6454 65.1837 74.5174 64.8716 75.0497 64.2475C75.6004 63.605 75.8758 62.5494 75.8758 61.0809V52.6001H52.8288V65.1561H57.3721V55.4913H71.3325V61.3563C71.3325 61.7785 71.2591 62.063 71.1122 62.2098C70.9654 62.3567 70.6716 62.4301 70.2311 62.4301H69.1021V65.1837H72.4339ZM66.7339 62.6778C67.9822 62.6778 68.8541 62.43 69.3498 61.9344C69.8454 61.4388 70.0932 60.576 70.0932 59.3461V56.4824H58.5835V62.6778H66.7339ZM65.0819 60.3377H62.5762V58.8232H66.1007V59.2913C66.1007 59.7135 66.0364 59.9889 65.9079 60.1174C65.7611 60.2643 65.4857 60.3377 65.0819 60.3377ZM83.5485 65.2663C84.6683 65.2663 85.5127 64.9725 86.0818 64.3851C86.6692 63.7794 86.9629 62.8432 86.9629 61.5765V54.2246C87.2383 54.1145 87.688 53.9309 88.3121 53.6739V50.8378C87.8716 50.9663 87.4218 51.0856 86.9629 51.1958V46.4322H88.3672V43.541H86.9629V40.457H82.695V43.541H80.8776V46.4322H82.695V52.0494C81.9974 52.1411 81.3274 52.2237 80.6849 52.2972V55.8217C81.823 55.6198 82.493 55.4913 82.695 55.4362V61.2186C82.695 61.6591 82.6215 61.962 82.4747 62.1272C82.3278 62.2925 82.0708 62.3751 81.7037 62.3751H80.9602V65.2663H83.5485ZM103.567 50.6454C103.034 51.2328 102.172 51.5265 100.978 51.5265H89.7715V41.2559H104.365V47.7542C104.365 49.0942 104.099 50.0579 103.567 50.6454ZM93.9019 45.2203H100.235V44.0088H93.9019V45.2203ZM98.9959 48.7727H93.9019V47.6162H100.235C100.217 48.0568 100.116 48.3597 99.9321 48.5249C99.7485 48.6901 99.4364 48.7727 98.9959 48.7727ZM87.2107 65.5416C89.1565 64.7523 90.6067 63.6692 91.5613 62.2925C92.9931 64.1832 95.4346 65.0919 98.8857 65.0184H105.604V62.0446H99.4639V59.7868H104.806V56.9782H99.4639V55.3811H105.604V52.4073H88.615V55.3811H95.0583V61.0809C94.1955 60.5302 93.5071 59.7684 92.9931 58.7955C93.1767 57.9327 93.3052 57.0883 93.3786 56.2622H89.386C89.3126 57.8042 89.1198 59.0249 88.8078 59.9244C88.4957 60.8239 87.9634 61.6775 87.2107 62.4852V65.5416ZM122.529 44.0091V56.7579H118.481V41.1454H133.268V56.7579H129.22V44.0091H122.529ZM109.422 63.6967C112.873 63.2195 115.801 62.4668 118.206 61.4389V58.5201C117.472 58.7221 116.728 58.924 115.975 59.1259V53.1232H117.6V50.1494H115.975V44.5047H117.765V41.5584H109.78V44.5047H111.707V50.1494H109.752V53.1232H111.707V59.8969C110.808 60.007 110.046 60.0805 109.422 60.1172V63.6967ZM124.952 60.7505C123.483 62.2925 121.216 63.8252 118.151 65.3489V62.4301C120.39 60.8514 121.896 59.3278 122.667 57.8593C123.401 56.4642 123.768 54.5183 123.768 52.0218V45.7438H127.898V52.187C127.898 52.9397 127.852 53.7106 127.761 54.5H128.945V60.9432C128.945 61.3287 129.027 61.6041 129.192 61.7693C129.358 61.9345 129.633 62.0171 130.018 62.0171C130.386 62.0171 130.643 61.9345 130.789 61.7693C130.936 61.6041 131.01 61.3104 131.01 60.8882V60.1722H134.011V61.6867C134.011 63.9262 132.9 65.046 130.679 65.046H128.256C127.118 65.046 126.292 64.7431 125.778 64.1373C125.227 63.4948 124.952 62.476 124.952 61.0809V60.7505Z" fill="white"/>
</g>
<g clip-path="url(#clip28_0_1522)">
<g filter="url(#filter6_d_0_1522)">
<path fill-rule="evenodd" clip-rule="evenodd" d="M146.489 64.1928C149.132 64.1928 151.179 63.4953 152.629 62.1002C154.024 60.7601 154.722 58.8969 154.722 56.5105C154.722 54.3444 154.006 52.6189 152.574 51.3339C151.106 50.0306 149.114 49.3789 146.599 49.3789C144.929 49.3789 143.488 49.8103 142.276 50.6731C142.221 48.8007 142.597 47.2862 143.405 46.1297C144.176 45.01 145.167 44.4501 146.379 44.4501C148.104 44.4134 149.298 45.2486 149.958 46.9558H154.474C153.556 42.954 150.83 40.9531 146.296 40.9531C143.543 40.9531 141.358 41.9169 139.743 43.8443C138.054 45.8819 137.2 48.7823 137.182 52.5454C137.182 56.7492 137.99 59.778 139.605 61.6321C141.092 63.3393 143.387 64.1928 146.489 64.1928ZM146.269 60.7239C145.167 60.7239 144.268 60.3568 143.57 59.6225C142.836 58.8515 142.469 57.8235 142.469 56.5385C142.469 55.4555 142.818 54.5652 143.515 53.8676C144.213 53.1701 145.066 52.8213 146.076 52.8213C147.196 52.8213 148.077 53.1701 148.719 53.8676C149.38 54.5835 149.711 55.5473 149.711 56.7588C149.711 57.6032 149.564 58.3192 149.27 58.9066C148.664 60.1181 147.664 60.7239 146.269 60.7239ZM167.434 64.1928C170.481 64.1928 172.721 63.2566 174.152 61.3843C175.584 59.5119 176.3 56.5839 176.3 52.6005C176.3 48.8924 175.575 46.0471 174.125 44.0646C172.62 41.9903 170.389 40.9531 167.434 40.9531C164.625 40.9531 162.441 41.9811 160.88 44.0371C159.302 46.1114 158.522 48.975 158.54 52.6281C158.54 56.5381 159.366 59.4843 161.018 61.4669C162.542 63.2842 164.68 64.1928 167.434 64.1928ZM167.489 60.779C164.974 60.779 163.716 58.0805 163.716 52.6836C163.716 49.6731 164.065 47.4978 164.763 46.1578C165.368 44.9829 166.277 44.3955 167.489 44.3955C168.719 44.3955 169.618 45.0013 170.187 46.2128C170.811 47.5345 171.123 49.6914 171.123 52.6836C171.123 54.7396 170.967 56.3825 170.655 57.6124C170.123 59.7234 169.067 60.779 167.489 60.779ZM202.834 44.34V41.1734H182.348V44.34H202.834ZM188.021 60.7785C186.497 62.5958 184.074 64.0185 180.751 65.0464V61.8799C182.605 60.65 183.89 59.4017 184.606 58.1351C185.322 56.8685 185.68 55.1521 185.68 52.986V51.9947H180.366V48.8282H204.817V51.9947H198.511V60.2278C198.511 60.6316 198.585 60.9162 198.732 61.0814C198.879 61.2466 199.154 61.3292 199.558 61.3292H199.888C200.696 61.3292 201.1 60.9437 201.1 60.1727V58.851H204.817V60.9162C204.817 63.3025 203.587 64.4957 201.127 64.4957H197.63C196.272 64.4957 195.29 64.1928 194.684 63.5871C194.023 62.9262 193.693 61.8156 193.693 60.2553V51.9947H190.499V52.7657C190.499 56.1434 189.673 58.8143 188.021 60.7785Z" fill="url(#paint12_linear_0_1522)"/>
</g>
</g>
<g clip-path="url(#clip29_0_1522)">
<g clip-path="url(#clip30_0_1522)">
<path fill-rule="evenodd" clip-rule="evenodd" d="M96.4939 81.3598C97.1094 81.3598 97.53 81.2469 97.7556 81.0212C97.9813 80.7853 98.1352 80.1288 98.2173 79.0619L97.7043 78.8875C97.6428 79.8518 97.5197 80.4263 97.3351 80.5904C97.1401 80.734 96.8324 80.8161 96.4016 80.8161H91.8059C91.3237 80.8161 91.0878 80.5801 91.0878 80.1288V76.005L93.4677 75.4818V79.2055H94.0114V75.3587L96.5657 74.7945C96.5657 76.3025 96.5452 77.1642 96.5247 77.3898C96.4631 77.9643 96.2272 78.2515 95.8373 78.2515C95.7424 78.2515 95.6388 78.2493 95.5273 78.247C95.3978 78.2442 95.2579 78.2413 95.109 78.2413L95.2629 78.7644H95.7348C96.4939 78.7644 96.9145 78.4054 97.0068 77.7078C97.0581 77.2873 97.0889 76.087 97.0889 74.097L94.0114 74.7945V72.2812H93.4677V74.9176L91.0878 75.451V73.1019H90.5441V75.5741L88.8412 75.9639V76.4974L90.5441 76.1281V80.2109C90.5441 80.97 90.9134 81.3598 91.6725 81.3598H96.4939ZM59.963 77.872C60.9478 77.4514 61.789 76.9487 62.4968 76.3538C63.2046 77 64.0868 77.4924 65.1332 77.8309L65.4512 77.3796C64.4459 77.0616 63.5842 76.6 62.8866 76.005C63.5842 75.3177 64.1279 74.5278 64.5074 73.6456V73.225H61.8608C61.9839 72.9583 62.0865 72.6813 62.1788 72.3941L61.6351 72.3018C61.3069 73.3686 60.6811 74.2816 59.7579 75.0202L60.0964 75.451C60.4452 75.1638 60.7632 74.8458 61.0504 74.5073C61.3376 75.0407 61.6864 75.5331 62.107 75.9742C61.4197 76.5281 60.5888 77.0103 59.6143 77.4206L59.963 77.872ZM62.4863 75.6361C62.0452 75.1847 61.6759 74.6615 61.3784 74.0665L61.3784 74.0665C61.4502 73.9639 61.522 73.8614 61.5938 73.7383H63.9019C63.5532 74.4358 63.0813 75.0718 62.4863 75.6361ZM32.2128 76.3845V75.8511H28.0787V74.097H31.3921V73.584H28.0787V72.3428H27.5351V73.584H24.2319V74.097H27.5351V75.8511H23.4113V76.3845H32.2128ZM23.5344 81.6367C24.2422 80.8982 24.7653 80.098 25.1039 79.2363C25.5552 80.1596 26.0579 80.7751 26.6221 81.0828C27.2376 81.4008 28.4173 81.5649 30.1509 81.5649C30.7664 81.5752 31.464 81.5855 32.2231 81.5855L32.3872 81.0315C31.7717 81.052 31.0126 81.0623 30.1201 81.0623C29.32 81.0623 28.6327 81.0212 28.0787 80.9392V78.7542H31.3101V78.231H28.0787V76.7743H27.5248V80.8366C27.2786 80.7751 27.0734 80.7135 26.899 80.6314C26.3041 80.3545 25.7706 79.7082 25.2988 78.6926C25.4321 78.2208 25.5142 77.7284 25.5552 77.2155L25.0115 77.1436C24.909 78.6721 24.2729 80.0467 23.124 81.2674L23.5344 81.6367ZM59.9118 80.4163C58.8449 80.8164 57.5934 81.1959 56.1573 81.5447L56.0137 81.001C56.0933 80.9833 56.1748 80.9637 56.2574 80.9439L56.2575 80.9438L56.2577 80.9438C56.3666 80.9176 56.4774 80.891 56.5881 80.8677V77.0311H57.101V80.7343C57.2153 80.7038 57.3281 80.6748 57.4396 80.6461C57.6283 80.5975 57.8129 80.55 57.9935 80.4984V75.8616H56.5471V72.7842H59.563V75.8616H58.5167V77.6671H59.6656V78.2005H58.5167V80.3445C58.9988 80.1906 59.4604 80.0265 59.9118 79.8623V80.4163ZM57.0806 75.328H59.0296V73.3174H57.0806V75.328ZM61.112 81.6476V81.1654H63.9638V81.6476H64.4973V77.9238H60.5786V81.6476H61.112ZM63.9636 80.6523H61.1118V78.4365H63.9636V80.6523ZM130.553 76.5179C130.389 76.6718 130.132 76.7538 129.783 76.7538H128.08C127.527 76.7538 127.25 76.4666 127.25 75.8921V72.3428H127.793V73.7789C128.983 73.5943 129.937 73.3994 130.655 73.1942L130.84 73.6969C129.958 73.9226 128.942 74.1175 127.793 74.2919V75.7793C127.793 76.087 127.937 76.2409 128.245 76.2409H129.681C129.906 76.2409 130.06 76.1896 130.163 76.087C130.286 75.9332 130.358 75.5126 130.399 74.8253L130.922 74.9997C130.86 75.8203 130.737 76.323 130.553 76.5179ZM126.378 75.5844L126.829 75.2664C126.49 74.6304 125.998 73.8918 125.362 73.0506L124.931 73.3276C125.218 73.7174 125.485 74.1072 125.731 74.4765C124.644 74.6201 123.608 74.7227 122.633 74.7637C123.228 74.2406 123.793 73.4815 124.305 72.4967L123.772 72.3428C123.3 73.2558 122.746 74.0251 122.1 74.6509C122.028 74.7124 121.946 74.7637 121.843 74.7945L121.997 75.2766C123.557 75.1946 124.89 75.0612 125.988 74.8868C126.101 75.0725 126.201 75.2583 126.299 75.439L126.299 75.4391C126.325 75.4879 126.351 75.5364 126.378 75.5844ZM123.023 79.7184V81.6982H122.479V76.0049H126.121V80.857C126.121 81.3699 125.854 81.6264 125.342 81.6264H124.5L124.367 81.1032L125.167 81.134C125.434 81.134 125.577 81.0006 125.577 80.7442V79.7184H123.023ZM123.023 77.6362H125.578V76.5078H123.023V77.6362ZM125.578 79.2368H123.023V78.1289H125.578V79.2368ZM129.824 81.5239C130.194 81.5239 130.45 81.4521 130.614 81.3085C130.799 81.1136 130.932 80.6109 130.994 79.8005L130.481 79.6364C130.44 80.3134 130.358 80.7238 130.235 80.8674C130.132 80.97 129.968 81.0315 129.722 81.0315H128.214C127.927 81.0315 127.793 80.9084 127.793 80.6725V79.0414C128.881 78.9491 129.896 78.7644 130.84 78.4977L130.655 77.9848C129.824 78.2413 128.87 78.4259 127.793 78.5388V77.1847H127.25V80.7853C127.25 81.2777 127.516 81.5239 128.05 81.5239H129.824ZM160.426 81.6778V78.467H161.38V81.6778H161.873V78.6619C162.222 79.6056 162.806 80.457 163.617 81.2264L163.976 80.7751C163.093 80.098 162.478 79.3286 162.129 78.467H163.278V76.9487H163.935V76.4871H163.278V74.9997H161.873V74.0559H163.647V73.5635H162.057C162.252 73.1942 162.406 72.7839 162.509 72.3531L161.965 72.2812C161.883 72.7224 161.729 73.1532 161.524 73.5635H160.447C160.293 73.0916 160.129 72.6813 159.944 72.312L159.401 72.4146C159.595 72.7634 159.77 73.1429 159.934 73.5635H158.539V74.0559H159.944V74.9997H158.826V75.4613H159.944V76.4871H158.457V76.9487H159.944V78.0053H158.744V78.467H159.677C159.37 79.3697 158.857 80.1288 158.149 80.734C157.862 80.3339 157.513 79.9339 157.103 79.5236L156.774 79.8518C157.226 80.3237 157.595 80.7648 157.872 81.1956L158.118 80.9494L158.334 81.2982C159.072 80.6109 159.606 79.7287 159.944 78.6619V81.6778H160.426ZM161.38 74.9994H160.426V74.0557H161.38V74.9994ZM160.426 76.4877H161.38V75.4619H160.426V76.4877ZM162.796 76.4877H161.873V75.4619H162.796V76.4877ZM160.426 78.0058H161.38V76.9492H160.426V78.0058ZM162.796 78.0058H161.873V76.9492H162.796V78.0058ZM155.523 79.1645V73.4199H157.554V78.9901H158.046V72.8865H155.02V79.1645H155.523ZM156.272 80.2314C155.964 80.8674 155.471 81.3598 154.784 81.7188L154.497 81.288C155.153 80.9494 155.625 80.4878 155.902 79.8928C156.148 79.2876 156.282 78.4977 156.302 77.5335V74.2406H156.764V77.5335C156.743 78.6619 156.579 79.5543 156.272 80.2314ZM187.94 76.046C188.32 75.451 188.648 74.7945 188.935 74.0764H191.161V73.5533H189.12C189.233 73.2045 189.346 72.8249 189.448 72.4351L188.915 72.3223C188.607 73.5943 188.135 74.7432 187.489 75.7588L187.94 76.046ZM194.157 80.1493C193.316 80.8366 192.403 81.329 191.428 81.6265L191.11 81.2059C192.177 80.8571 193.121 80.3442 193.941 79.6569C193.757 79.2055 193.603 78.6926 193.48 78.1182C193.428 77.8515 193.387 77.5847 193.346 77.318L191.582 77.636L191.5 77.1026L193.275 76.7846C193.213 76.2922 193.182 75.769 193.162 75.2356L191.654 75.4818L191.582 74.9586L193.151 74.6919V72.3223H193.705V74.2919C193.705 74.3944 193.705 74.497 193.716 74.5996L196.208 74.1893L196.29 74.7227L193.726 75.1433C193.746 75.687 193.777 76.1999 193.828 76.682L196.465 76.2101L196.547 76.7436L193.89 77.2257C193.911 77.4514 193.941 77.6566 193.982 77.8617C194.085 78.3951 194.208 78.867 194.362 79.2774C194.895 78.7644 195.367 78.1797 195.788 77.5232L196.229 77.8104C195.716 78.5798 195.162 79.2363 194.567 79.7903C194.629 79.9441 194.7 80.0878 194.782 80.2211C195.131 80.734 195.439 81.0007 195.706 81.0007C195.972 81.0007 196.198 80.4468 196.393 79.3492L196.875 79.6569C196.619 80.9289 196.249 81.5752 195.767 81.5752C195.316 81.5649 194.875 81.2572 194.444 80.6417C194.341 80.4776 194.239 80.3134 194.157 80.1493ZM195.48 73.8815L195.911 73.5738C195.654 73.225 195.285 72.8044 194.803 72.3325L194.382 72.5993C194.844 73.0711 195.213 73.4917 195.48 73.8815ZM191.582 80.1596C190.905 80.6417 190.125 81.0418 189.243 81.3495L189.007 80.8674C189.192 80.8058 189.284 80.7238 189.284 80.6109V78.0669H187.766V77.5335H189.284V76.046H188.525V75.5331H190.874V76.046H189.828V77.5335H191.315V78.0669H189.828V80.5904C190.371 80.3647 190.925 80.057 191.49 79.6466L191.582 80.1596Z" fill="white"/>
<path d="M45.1274 73.1152L41.373 80.9038" stroke="white" stroke-width="0.5"/>
<path d="M78.6015 73.1152L74.8472 80.9038" stroke="white" stroke-width="0.5"/>
<path d="M110.456 73.1152L106.702 80.9038" stroke="white" stroke-width="0.5"/>
<path d="M143.93 73.1152L140.176 80.9038" stroke="white" stroke-width="0.5"/>
<path d="M177.405 73.1152L173.65 80.9038" stroke="white" stroke-width="0.5"/>
</g>
</g>
</g>
<defs>
<filter id="filter0_i_0_1522" x="221.453" y="103" width="46.4683" height="30.7148" filterUnits="userSpaceOnUse" color-interpolation-filters="sRGB">
<feFlood flood-opacity="0" result="BackgroundImageFix"/>
<feBlend mode="normal" in="SourceGraphic" in2="BackgroundImageFix" result="shape"/>
<feColorMatrix in="SourceAlpha" type="matrix" values="0 0 0 0 0 0 0 0 0 0 0 0 0 0 0 0 0 0 127 0" result="hardAlpha"/>
<feOffset/>
<feGaussianBlur stdDeviation="1"/>
<feComposite in2="hardAlpha" operator="arithmetic" k2="-1" k3="1"/>
<feColorMatrix type="matrix" values="0 0 0 0 1 0 0 0 0 1 0 0 0 0 1 0 0 0 0.501961 0"/>
<feBlend mode="normal" in2="shape" result="effect1_innerShadow_0_1522"/>
</filter>
<filter id="filter1_i_0_1522" x="225.167" y="105.454" width="39.0425" height="25.8076" filterUnits="userSpaceOnUse" color-interpolation-filters="sRGB">
<feFlood flood-opacity="0" result="BackgroundImageFix"/>
<feBlend mode="normal" in="SourceGraphic" in2="BackgroundImageFix" result="shape"/>
<feColorMatrix in="SourceAlpha" type="matrix" values="0 0 0 0 0 0 0 0 0 0 0 0 0 0 0 0 0 0 127 0" result="hardAlpha"/>
<feOffset/>
<feGaussianBlur stdDeviation="0.5"/>
<feComposite in2="hardAlpha" operator="arithmetic" k2="-1" k3="1"/>
<feColorMatrix type="matrix" values="0 0 0 0 0.980392 0 0 0 0 0.392157 0 0 0 0 0 0 0 0 1 0"/>
<feBlend mode="normal" in2="shape" result="effect1_innerShadow_0_1522"/>
</filter>
<filter id="filter2_d_0_1522" x="232.691" y="112.409" width="27.0469" height="12.8633" filterUnits="userSpaceOnUse" color-interpolation-filters="sRGB">
<feFlood flood-opacity="0" result="BackgroundImageFix"/>
<feColorMatrix in="SourceAlpha" type="matrix" values="0 0 0 0 0 0 0 0 0 0 0 0 0 0 0 0 0 0 127 0" result="hardAlpha"/>
<feOffset dy="1"/>
<feColorMatrix type="matrix" values="0 0 0 0 0.901961 0 0 0 0 0.45098 0 0 0 0 0.027451 0 0 0 1 0"/>
<feBlend mode="normal" in2="BackgroundImageFix" result="effect1_dropShadow_0_1522"/>
<feBlend mode="normal" in="SourceGraphic" in2="effect1_dropShadow_0_1522" result="shape"/>
</filter>
<filter id="filter3_i_0_1522" x="203" y="103" width="39.752" height="34.2549" filterUnits="userSpaceOnUse" color-interpolation-filters="sRGB">
<feFlood flood-opacity="0" result="BackgroundImageFix"/>
<feBlend mode="normal" in="SourceGraphic" in2="BackgroundImageFix" result="shape"/>
<feColorMatrix in="SourceAlpha" type="matrix" values="0 0 0 0 0 0 0 0 0 0 0 0 0 0 0 0 0 0 127 0" result="hardAlpha"/>
<feOffset/>
<feGaussianBlur stdDeviation="1"/>
<feComposite in2="hardAlpha" operator="arithmetic" k2="-1" k3="1"/>
<feColorMatrix type="matrix" values="0 0 0 0 1 0 0 0 0 1 0 0 0 0 1 0 0 0 0.501961 0"/>
<feBlend mode="normal" in2="shape" result="effect1_innerShadow_0_1522"/>
</filter>
<filter id="filter4_i_0_1522" x="206.838" y="106.308" width="32.0742" height="27.6387" filterUnits="userSpaceOnUse" color-interpolation-filters="sRGB">
<feFlood flood-opacity="0" result="BackgroundImageFix"/>
<feBlend mode="normal" in="SourceGraphic" in2="BackgroundImageFix" result="shape"/>
<feColorMatrix in="SourceAlpha" type="matrix" values="0 0 0 0 0 0 0 0 0 0 0 0 0 0 0 0 0 0 127 0" result="hardAlpha"/>
<feOffset/>
<feGaussianBlur stdDeviation="0.5"/>
<feComposite in2="hardAlpha" operator="arithmetic" k2="-1" k3="1"/>
<feColorMatrix type="matrix" values="0 0 0 0 0.980392 0 0 0 0 0.392157 0 0 0 0 0 0 0 0 1 0"/>
<feBlend mode="normal" in2="shape" result="effect1_innerShadow_0_1522"/>
</filter>
<filter id="filter5_d_0_1522" x="213.95" y="112.097" width="18.4204" height="15.4238" filterUnits="userSpaceOnUse" color-interpolation-filters="sRGB">
<feFlood flood-opacity="0" result="BackgroundImageFix"/>
<feColorMatrix in="SourceAlpha" type="matrix" values="0 0 0 0 0 0 0 0 0 0 0 0 0 0 0 0 0 0 127 0" result="hardAlpha"/>
<feOffset dy="1"/>
<feColorMatrix type="matrix" values="0 0 0 0 0.901961 0 0 0 0 0.45098 0 0 0 0 0.027451 0 0 0 1 0"/>
<feBlend mode="normal" in2="BackgroundImageFix" result="effect1_dropShadow_0_1522"/>
<feBlend mode="normal" in="SourceGraphic" in2="effect1_dropShadow_0_1522" result="shape"/>
</filter>
<filter id="filter6_d_0_1522" x="137.182" y="40.9531" width="68.6348" height="24.0938" filterUnits="userSpaceOnUse" color-interpolation-filters="sRGB">
<feFlood flood-opacity="0" result="BackgroundImageFix"/>
<feColorMatrix in="SourceAlpha" type="matrix" values="0 0 0 0 0 0 0 0 0 0 0 0 0 0 0 0 0 0 127 0" result="hardAlpha"/>
<feOffset dx="1"/>
<feColorMatrix type="matrix" values="0 0 0 0 1 0 0 0 0 1 0 0 0 0 1 0 0 0 1 0"/>
<feBlend mode="normal" in2="BackgroundImageFix" result="effect1_dropShadow_0_1522"/>
<feBlend mode="normal" in="SourceGraphic" in2="effect1_dropShadow_0_1522" result="shape"/>
</filter>
<linearGradient id="paint0_linear_0_1522" x1="196.963" y1="-2.13621" x2="145.418" y2="-12.0505" gradientUnits="userSpaceOnUse">
<stop stop-color="#EEEEEE" stop-opacity="0.01"/>
<stop offset="1" stop-color="white"/>
</linearGradient>
<linearGradient id="paint1_linear_0_1522" x1="-20.9193" y1="91.0763" x2="-20.9193" y2="150.334" gradientUnits="userSpaceOnUse">
<stop stop-color="#0DD168"/>
<stop offset="1" stop-color="#000E50"/>
</linearGradient>
<linearGradient id="paint2_linear_0_1522" x1="79.718" y1="117.709" x2="68.8726" y2="146.86" gradientUnits="userSpaceOnUse">
<stop stop-color="#0021BA"/>
<stop offset="1" stop-color="white"/>
</linearGradient>
<linearGradient id="paint3_linear_0_1522" x1="205.578" y1="129.88" x2="194.74" y2="101.269" gradientUnits="userSpaceOnUse">
<stop stop-color="#F8F9FF"/>
<stop offset="1" stop-color="#012753"/>
</linearGradient>
<linearGradient id="paint4_linear_0_1522" x1="235.551" y1="123.741" x2="234.764" y2="141.458" gradientUnits="userSpaceOnUse">
<stop stop-color="#F7B500"/>
<stop offset="1" stop-color="#FF8123"/>
</linearGradient>
<linearGradient id="paint5_linear_0_1522" x1="217.086" y1="102.514" x2="217.796" y2="136.873" gradientUnits="userSpaceOnUse">
<stop stop-color="#FFED59"/>
<stop offset="1" stop-color="#F7B500"/>
</linearGradient>
<linearGradient id="paint6_linear_0_1522" x1="227.301" y1="108.275" x2="227.301" y2="131.261" gradientUnits="userSpaceOnUse">
<stop stop-color="#F7B500"/>
<stop offset="1" stop-color="#FF8123"/>
</linearGradient>
<linearGradient id="paint7_linear_0_1522" x1="255.194" y1="110.934" x2="236.159" y2="124.202" gradientUnits="userSpaceOnUse">
<stop stop-color="#FFF6AC"/>
<stop offset="1" stop-color="#FFCA03"/>
</linearGradient>
<linearGradient id="paint8_linear_0_1522" x1="225.131" y1="100.097" x2="202.287" y2="133.078" gradientUnits="userSpaceOnUse">
<stop stop-color="#F7B500"/>
<stop offset="1" stop-color="#FF8123"/>
</linearGradient>
<linearGradient id="paint9_linear_0_1522" x1="199.264" y1="102.457" x2="200.296" y2="140.766" gradientUnits="userSpaceOnUse">
<stop stop-color="#FFED59"/>
<stop offset="1" stop-color="#F7B500"/>
</linearGradient>
<linearGradient id="paint10_linear_0_1522" x1="208.591" y1="109.329" x2="208.591" y2="133.946" gradientUnits="userSpaceOnUse">
<stop stop-color="#F7B500"/>
<stop offset="1" stop-color="#FF8123"/>
</linearGradient>
<linearGradient id="paint11_linear_0_1522" x1="229.275" y1="110.303" x2="212.561" y2="116.829" gradientUnits="userSpaceOnUse">
<stop stop-color="#FFF6AC"/>
<stop offset="1" stop-color="#FFCA03"/>
</linearGradient>
<linearGradient id="paint12_linear_0_1522" x1="137.182" y1="40.9531" x2="137.182" y2="65.0464" gradientUnits="userSpaceOnUse">
<stop stop-color="#FFEEC7"/>
<stop offset="1" stop-color="#FFD895"/>
</linearGradient>
<clipPath id="clip0_0_1522">
<rect width="345" height="150" fill="white"/>
</clipPath>
<clipPath id="clip1_0_1522">
<rect width="345" height="150" fill="white"/>
</clipPath>
<clipPath id="clip2_0_1522">
<rect width="47.2966" height="29.0524" fill="white" transform="translate(-6.26367 125.826)"/>
</clipPath>
<clipPath id="clip3_0_1522">
<rect width="142.268" height="119.572" fill="white" transform="translate(218.662 11.8779)"/>
</clipPath>
<clipPath id="clip4_0_1522">
<rect width="79.7608" height="45.5279" fill="white" transform="translate(281.169 43.9199)"/>
</clipPath>
<clipPath id="clip5_0_1522">
<rect width="79.7608" height="45.5279" fill="white" transform="translate(281.169 43.9199)"/>
</clipPath>
<clipPath id="clip6_0_1522">
<rect width="13.775" height="19.5118" fill="white" transform="translate(298.833 103.15)"/>
</clipPath>
<clipPath id="clip7_0_1522">
<rect width="10.0953" height="19.2021" fill="white" transform="translate(298.833 103.46)"/>
</clipPath>
<clipPath id="clip8_0_1522">
<rect width="34.8729" height="78.3136" fill="white" transform="translate(269.492 63.709)"/>
</clipPath>
<clipPath id="clip9_0_1522">
<rect width="5.99616" height="5.5978" fill="white" transform="translate(284.795 70.5332)"/>
</clipPath>
<clipPath id="clip10_0_1522">
<rect width="5.99616" height="5.5978" fill="white" transform="translate(284.795 70.5332)"/>
</clipPath>
<clipPath id="clip11_0_1522">
<rect width="7.23743" height="3.58637" fill="white" transform="translate(276.603 138.437)"/>
</clipPath>
<clipPath id="clip12_0_1522">
<rect width="7.23743" height="3.58637" fill="white" transform="translate(276.603 138.437)"/>
</clipPath>
<clipPath id="clip13_0_1522">
<rect width="7.23743" height="3.58637" fill="white" transform="translate(296.395 137.752) rotate(-17)"/>
</clipPath>
<clipPath id="clip14_0_1522">
<rect width="64.9214" height="38.2777" fill="white" transform="translate(203 103)"/>
</clipPath>
<clipPath id="clip15_0_1522">
<rect width="46.4681" height="35.9815" fill="white" transform="translate(221.453 103)"/>
</clipPath>
<clipPath id="clip16_0_1522">
<rect width="46.4681" height="35.9815" fill="white" transform="translate(221.453 103)"/>
</clipPath>
<clipPath id="clip17_0_1522">
<rect width="46.4562" height="29.2339" fill="white" transform="translate(221.457 109.748)"/>
</clipPath>
<clipPath id="clip18_0_1522">
<rect width="46.4681" height="30.7144" fill="white" transform="translate(221.453 103)"/>
</clipPath>
<clipPath id="clip19_0_1522">
<rect width="39.0423" height="25.8073" fill="white" transform="translate(225.167 105.454)"/>
</clipPath>
<clipPath id="clip20_0_1522">
<rect width="27.047" height="11.8631" fill="white" transform="translate(232.691 112.409)"/>
</clipPath>
<clipPath id="clip21_0_1522">
<rect width="41.6485" height="38.2777" fill="white" transform="translate(203 103)"/>
</clipPath>
<clipPath id="clip22_0_1522">
<rect width="41.6485" height="38.2777" fill="white" transform="translate(203 103)"/>
</clipPath>
<clipPath id="clip23_0_1522">
<rect width="40.4848" height="34.253" fill="white" transform="translate(204.164 107.024)"/>
</clipPath>
<clipPath id="clip24_0_1522">
<rect width="39.7521" height="34.2547" fill="white" transform="translate(203 103)"/>
</clipPath>
<clipPath id="clip25_0_1522">
<rect width="32.0742" height="27.6389" fill="white" transform="translate(206.838 106.308)"/>
</clipPath>
<clipPath id="clip26_0_1522">
<rect width="18.4205" height="14.4242" fill="white" transform="translate(213.95 112.097)"/>
</clipPath>
<clipPath id="clip27_0_1522">
<rect width="112" height="26" fill="white" transform="translate(22.5 40)"/>
</clipPath>
<clipPath id="clip28_0_1522">
<rect width="70" height="26" fill="white" transform="translate(136.5 40)"/>
</clipPath>
<clipPath id="clip29_0_1522">
<rect width="175" height="10" fill="white" transform="translate(22.5 72)"/>
</clipPath>
<clipPath id="clip30_0_1522">
<rect width="173.751" height="9.43756" fill="white" transform="translate(23.124 72.2812)"/>
</clipPath>
</defs>
</svg>
