<svg fill="none" height="150" viewBox="0 0 345 150" width="345" xmlns="http://www.w3.org/2000/svg" xmlns:xlink="http://www.w3.org/1999/xlink"><filter id="a" color-interpolation-filters="sRGB" filterUnits="userSpaceOnUse" height="30.715" width="46.468" x="221.453" y="103"><feFlood flood-opacity="0" result="BackgroundImageFix"/><feBlend in="SourceGraphic" in2="BackgroundImageFix" mode="normal" result="shape"/><feColorMatrix in="SourceAlpha" result="hardAlpha" type="matrix" values="0 0 0 0 0 0 0 0 0 0 0 0 0 0 0 0 0 0 127 0"/><feOffset/><feGaussianBlur stdDeviation="1"/><feComposite in2="hardAlpha" k2="-1" k3="1" operator="arithmetic"/><feColorMatrix type="matrix" values="0 0 0 0 1 0 0 0 0 1 0 0 0 0 1 0 0 0 0.501961 0"/><feBlend in2="shape" mode="normal" result="effect1_innerShadow_0_1522"/></filter><filter id="b" color-interpolation-filters="sRGB" filterUnits="userSpaceOnUse" height="25.808" width="39.042" x="225.167" y="105.454"><feFlood flood-opacity="0" result="BackgroundImageFix"/><feBlend in="SourceGraphic" in2="BackgroundImageFix" mode="normal" result="shape"/><feColorMatrix in="SourceAlpha" result="hardAlpha" type="matrix" values="0 0 0 0 0 0 0 0 0 0 0 0 0 0 0 0 0 0 127 0"/><feOffset/><feGaussianBlur stdDeviation=".5"/><feComposite in2="hardAlpha" k2="-1" k3="1" operator="arithmetic"/><feColorMatrix type="matrix" values="0 0 0 0 0.980392 0 0 0 0 0.392157 0 0 0 0 0 0 0 0 1 0"/><feBlend in2="shape" mode="normal" result="effect1_innerShadow_0_1522"/></filter><filter id="c" color-interpolation-filters="sRGB" filterUnits="userSpaceOnUse" height="12.863" width="27.047" x="232.691" y="112.409"><feFlood flood-opacity="0" result="BackgroundImageFix"/><feColorMatrix in="SourceAlpha" result="hardAlpha" type="matrix" values="0 0 0 0 0 0 0 0 0 0 0 0 0 0 0 0 0 0 127 0"/><feOffset dy="1"/><feColorMatrix type="matrix" values="0 0 0 0 0.901961 0 0 0 0 0.45098 0 0 0 0 0.027451 0 0 0 1 0"/><feBlend in2="BackgroundImageFix" mode="normal" result="effect1_dropShadow_0_1522"/><feBlend in="SourceGraphic" in2="effect1_dropShadow_0_1522" mode="normal" result="shape"/></filter><filter id="d" color-interpolation-filters="sRGB" filterUnits="userSpaceOnUse" height="34.255" width="39.752" x="203" y="103"><feFlood flood-opacity="0" result="BackgroundImageFix"/><feBlend in="SourceGraphic" in2="BackgroundImageFix" mode="normal" result="shape"/><feColorMatrix in="SourceAlpha" result="hardAlpha" type="matrix" values="0 0 0 0 0 0 0 0 0 0 0 0 0 0 0 0 0 0 127 0"/><feOffset/><feGaussianBlur stdDeviation="1"/><feComposite in2="hardAlpha" k2="-1" k3="1" operator="arithmetic"/><feColorMatrix type="matrix" values="0 0 0 0 1 0 0 0 0 1 0 0 0 0 1 0 0 0 0.501961 0"/><feBlend in2="shape" mode="normal" result="effect1_innerShadow_0_1522"/></filter><filter id="e" color-interpolation-filters="sRGB" filterUnits="userSpaceOnUse" height="27.639" width="32.074" x="206.838" y="106.308"><feFlood flood-opacity="0" result="BackgroundImageFix"/><feBlend in="SourceGraphic" in2="BackgroundImageFix" mode="normal" result="shape"/><feColorMatrix in="SourceAlpha" result="hardAlpha" type="matrix" values="0 0 0 0 0 0 0 0 0 0 0 0 0 0 0 0 0 0 127 0"/><feOffset/><feGaussianBlur stdDeviation=".5"/><feComposite in2="hardAlpha" k2="-1" k3="1" operator="arithmetic"/><feColorMatrix type="matrix" values="0 0 0 0 0.980392 0 0 0 0 0.392157 0 0 0 0 0 0 0 0 1 0"/><feBlend in2="shape" mode="normal" result="effect1_innerShadow_0_1522"/></filter><filter id="f" color-interpolation-filters="sRGB" filterUnits="userSpaceOnUse" height="15.424" width="18.42" x="213.95" y="112.097"><feFlood flood-opacity="0" result="BackgroundImageFix"/><feColorMatrix in="SourceAlpha" result="hardAlpha" type="matrix" values="0 0 0 0 0 0 0 0 0 0 0 0 0 0 0 0 0 0 127 0"/><feOffset dy="1"/><feColorMatrix type="matrix" values="0 0 0 0 0.901961 0 0 0 0 0.45098 0 0 0 0 0.027451 0 0 0 1 0"/><feBlend in2="BackgroundImageFix" mode="normal" result="effect1_dropShadow_0_1522"/><feBlend in="SourceGraphic" in2="effect1_dropShadow_0_1522" mode="normal" result="shape"/></filter><filter id="g" color-interpolation-filters="sRGB" filterUnits="userSpaceOnUse" height="24.094" width="68.635" x="137.182" y="40.953"><feFlood flood-opacity="0" result="BackgroundImageFix"/><feColorMatrix in="SourceAlpha" result="hardAlpha" type="matrix" values="0 0 0 0 0 0 0 0 0 0 0 0 0 0 0 0 0 0 127 0"/><feOffset dx="1"/><feColorMatrix type="matrix" values="0 0 0 0 1 0 0 0 0 1 0 0 0 0 1 0 0 0 1 0"/><feBlend in2="BackgroundImageFix" mode="normal" result="effect1_dropShadow_0_1522"/><feBlend in="SourceGraphic" in2="effect1_dropShadow_0_1522" mode="normal" result="shape"/></filter><linearGradient id="h" gradientUnits="userSpaceOnUse" x1="196.963" x2="145.418" y1="-2.136" y2="-12.05"><stop offset="0" stop-color="#eee" stop-opacity=".01"/><stop offset="1" stop-color="#fff"/></linearGradient><linearGradient id="i" gradientUnits="userSpaceOnUse" x1="-20.919" x2="-20.919" y1="91.076" y2="150.334"><stop offset="0" stop-color="#0dd168"/><stop offset="1" stop-color="#000e50"/></linearGradient><linearGradient id="j" gradientUnits="userSpaceOnUse" x1="79.718" x2="68.873" y1="117.709" y2="146.86"><stop offset="0" stop-color="#0021ba"/><stop offset="1" stop-color="#fff"/></linearGradient><linearGradient id="k" gradientUnits="userSpaceOnUse" x1="205.578" x2="194.74" y1="129.88" y2="101.269"><stop offset="0" stop-color="#f8f9ff"/><stop offset="1" stop-color="#012753"/></linearGradient><linearGradient id="l"><stop offset="0" stop-color="#f7b500"/><stop offset="1" stop-color="#ff8123"/></linearGradient><linearGradient id="m" gradientUnits="userSpaceOnUse" x1="235.551" x2="234.764" xlink:href="#l" y1="123.741" y2="141.458"/><linearGradient id="n"><stop offset="0" stop-color="#ffed59"/><stop offset="1" stop-color="#f7b500"/></linearGradient><linearGradient id="o" gradientUnits="userSpaceOnUse" x1="217.086" x2="217.796" xlink:href="#n" y1="102.514" y2="136.873"/><linearGradient id="p" gradientUnits="userSpaceOnUse" x1="227.301" x2="227.301" xlink:href="#l" y1="108.275" y2="131.261"/><linearGradient id="q"><stop offset="0" stop-color="#fff6ac"/><stop offset="1" stop-color="#ffca03"/></linearGradient><linearGradient id="r" gradientUnits="userSpaceOnUse" x1="255.194" x2="236.159" xlink:href="#q" y1="110.934" y2="124.202"/><linearGradient id="s" gradientUnits="userSpaceOnUse" x1="225.131" x2="202.287" xlink:href="#l" y1="100.097" y2="133.078"/><linearGradient id="t" gradientUnits="userSpaceOnUse" x1="199.264" x2="200.296" xlink:href="#n" y1="102.457" y2="140.766"/><linearGradient id="u" gradientUnits="userSpaceOnUse" x1="208.591" x2="208.591" xlink:href="#l" y1="109.329" y2="133.946"/><linearGradient id="v" gradientUnits="userSpaceOnUse" x1="229.275" x2="212.561" xlink:href="#q" y1="110.303" y2="116.829"/><linearGradient id="w" gradientUnits="userSpaceOnUse" x1="137.182" x2="137.182" y1="40.953" y2="65.046"><stop offset="0" stop-color="#ffeec7"/><stop offset="1" stop-color="#ffd895"/></linearGradient><clipPath id="x"><path d="m0 0h345v150h-345z"/></clipPath><clipPath id="y"><path d="m0 0h345v150h-345z"/></clipPath><clipPath id="z"><path d="m-6.26367 125.826h47.2966v29.0524h-47.2966z"/></clipPath><clipPath id="A"><path d="m218.662 11.8779h142.268v119.572h-142.268z"/></clipPath><clipPath id="B"><path d="m281.169 43.9199h79.7608v45.5279h-79.7608z"/></clipPath><clipPath id="C"><path d="m281.169 43.9199h79.7608v45.5279h-79.7608z"/></clipPath><clipPath id="D"><path d="m298.833 103.15h13.775v19.5118h-13.775z"/></clipPath><clipPath id="E"><path d="m298.833 103.46h10.0953v19.2021h-10.0953z"/></clipPath><clipPath id="F"><path d="m269.492 63.709h34.8729v78.3136h-34.8729z"/></clipPath><clipPath id="G"><path d="m284.795 70.5332h5.99616v5.5978h-5.99616z"/></clipPath><clipPath id="H"><path d="m284.795 70.5332h5.99616v5.5978h-5.99616z"/></clipPath><clipPath id="I"><path d="m276.603 138.437h7.23743v3.58637h-7.23743z"/></clipPath><clipPath id="J"><path d="m276.603 138.437h7.23743v3.58637h-7.23743z"/></clipPath><clipPath id="K"><path d="m0 0h7.23743v3.58637h-7.23743z" transform="matrix(.95630476 -.2923717 .2923717 .95630476 296.395 137.752)"/></clipPath><clipPath id="L"><path d="m203 103h64.9214v38.2777h-64.9214z"/></clipPath><clipPath id="M"><path d="m221.453 103h46.4681v35.9815h-46.4681z"/></clipPath><clipPath id="N"><path d="m221.453 103h46.4681v35.9815h-46.4681z"/></clipPath><clipPath id="O"><path d="m221.457 109.748h46.4562v29.2339h-46.4562z"/></clipPath><clipPath id="P"><path d="m221.453 103h46.4681v30.7144h-46.4681z"/></clipPath><clipPath id="Q"><path d="m225.167 105.454h39.0423v25.8073h-39.0423z"/></clipPath><clipPath id="R"><path d="m232.691 112.409h27.047v11.8631h-27.047z"/></clipPath><clipPath id="S"><path d="m203 103h41.6485v38.2777h-41.6485z"/></clipPath><clipPath id="T"><path d="m203 103h41.6485v38.2777h-41.6485z"/></clipPath><clipPath id="U"><path d="m204.164 107.024h40.4848v34.253h-40.4848z"/></clipPath><clipPath id="V"><path d="m203 103h39.7521v34.2547h-39.7521z"/></clipPath><clipPath id="W"><path d="m206.838 106.308h32.0742v27.6389h-32.0742z"/></clipPath><clipPath id="X"><path d="m213.95 112.097h18.4205v14.4242h-18.4205z"/></clipPath><clipPath id="Y"><path d="m22.5 40h112v26h-112z"/></clipPath><clipPath id="Z"><path d="m136.5 40h70v26h-70z"/></clipPath><clipPath id="aa"><path d="m22.5 72h175v10h-175z"/></clipPath><clipPath id="ab"><path d="m23.124 72.2812h173.751v9.43756h-173.751z"/></clipPath><mask id="ac" height="150" maskUnits="userSpaceOnUse" width="345" x="0" y="0"><rect fill="#fff" height="150" rx="12" width="345"/></mask><mask id="ad" height="30" maskUnits="userSpaceOnUse" width="49" x="-7" y="125"><path d="m-.193501 154.286s-9.139389-8.545-4.989409-8.545c4.14998 0 6.068518 1.788 6.068518 1.788s-5.299988-15.622 0-14.882c5.299982.739 6.741382 6.988 6.741382 6.988s.65167-15.154 4.35531-13.712c3.7037 1.442 3.4787 9.24 3.4787 10.137s9.651-14.989 11.3655-7.494c1.7145 7.494.8093 9.401.8093 9.401s8.3733-4.413 6.9605 3.781c1.4263.861 7.097 2.762 3.5485 7.65 2.1212.345 4.0606 3.556 2.0303 4.888-2.0303 1.333-40.368601 0-40.368601 0z" fill="#fff"/></mask><mask id="ae" height="47" maskUnits="userSpaceOnUse" width="80" x="281" y="43"><path d="m316.931 46.1421s-6.114-3.4722-9.593-1.7361c-3.48 1.7361-6.921 6.3301-9.267 6.3301-2.345 0-2.529-1.6447-10.074 0-7.545 1.6448-6.808 13.6283-6.808 13.6283s0 20.6344 16.021 21.8805c16.022 1.246 8.627-1.2622 15.382-2.2962 1.884.7668 6.759 2.7082 8.821 1.3541 2.063-1.3541 7.7 5.2201 12.1 3.991 4.399-1.2292 6.268-3.991 7.783-3.991s9.669 1.5485 10.419-1.8646c.749-3.413 5.688-6.9187 5.156-9.7669s-.846-3.9247-.846-3.9247 6.347-4.2642 4.601-6.4733c-1.746-2.2092-2.908-3.2199-3.755-2.7146-.846.5054-3.295-4.5849-6.826-8.1894s-10.728.4138-12.763 0-1.895-2.3736-3.769-4.7648c-1.874-2.3911-12.64-3.5564-14.294-2.2059-1.654 1.3506-2.288.7435-2.288.7435z" fill="#fff"/></mask><mask id="af" height="7" maskUnits="userSpaceOnUse" width="7" x="284" y="70"><path d="m289.431 70.5332s-1.004 2.176-2.201 2.5108-2.435.2881-2.435.2881.258 2.7989 1.575 2.7989c1.318 0 4.422-1.6354 4.422-2.2171 0-.5818-.991-3.3807-.991-3.3807z" fill="#fff"/></mask><mask id="ag" height="5" maskUnits="userSpaceOnUse" width="8" x="276" y="138"><path d="m281.86 138.794s-5.257 1.125-5.257 2.433c0 1.309 1.584.609 3.526.609 1.943 0 2.937.11 3.411-.609s.265-1.54.181-1.993c-.083-.453-.697-.797-.697-.797z" fill="#fff"/></mask><mask id="ah" height="6" maskUnits="userSpaceOnUse" width="7" x="297" y="135"><path d="m301.528 136.557s-4.7 2.613-4.317 3.864c.382 1.251 1.693.119 3.551-.449 1.857-.568 2.84-.753 3.083-1.58.243-.826-.197-1.55-.409-1.958-.213-.409-.9-.56-.9-.56z" fill="#fff"/></mask><g clip-path="url(#x)"><rect fill="#000e50" height="150" rx="12" width="345"/><g clip-path="url(#y)"><g mask="url(#ac)"><path d="m148.375 38.1992c13.227 22.0131 41.794 29.1358 63.807 15.909 11.149-6.6989 18.479-17.3328 21.279-29.0573 2.729-11.4252 1.158-23.88599-5.37-34.75024-13.226-22.01316-41.794-29.13586-63.807-15.90896-22.013 13.2268-29.136 41.7944-15.909 63.8075z" fill="url(#h)" opacity=".17"/><path d="m9.43798 29.7741c23.41252-24.70495 31.86942 7.8037 52.11152-12.1075 20.2422-19.91123 66.1165-16.989138 51.5485-28.371-14.5681-11.3819-98.0474-21.0765-109.42927-6.5083-11.38191 14.56817-17.64323 71.6917 5.76925 46.9868z" fill="#15d468" opacity=".16"/><path d="m7.27815 19.2777c23.41245-24.70492 35.60485 8.7989 46.98675-5.7693 11.3819-14.56813 65.0211-12.674036 50.4531-24.0559-14.5684-11.3819-91.8272-31.7298-103.20911-17.1616-11.3819 14.5682-17.64329 71.6917 5.76926 46.9868z" fill="#15d468"/><path d="m373.459 132.368c0-1.154 0-52.2405-95.716-40.2753-95.715 11.9653-78.123 11.1863-129.834 1.9043-51.7099-9.2818-149.94173 3.044-162.5613 14.313-12.6195 11.269 18.34515 46.66 18.34515 46.66l310.23215 6.5 41.595-3.19s17.939-24.757 17.939-25.912z" fill="#0021ba" opacity=".25"/><path d="m-14.2035 121.012c-11.324-14.27 88.0533-13.843 136.7625-10.276 48.709 3.567 72.566 14.905 110.234 2.279 37.668-12.627 126.453-10.958 139.073.311 12.619 11.27-16.753 45.098-16.753 45.098l-316.9997 3.31h-34.82682s-6.16602-26.451-17.48998-40.722z" fill="url(#i)"/><path d="m60.4073 134.062c25.3966-3.149 60.9997 5.776 43.1257-2.841-17.8746-8.616-106.88887-14.762-91.2687-4.026 15.6202 10.735-18.50512.871-12.663273 9.088 5.841853 8.217 35.409573.929 60.806273-2.221z" fill="url(#j)" opacity=".07"/><ellipse cx="290.469" cy="140.106" fill="#010a34" opacity=".4" rx="21.056" ry="4.589"/><path d="m-.193501 154.286s-9.139389-8.545-4.989409-8.545c4.14998 0 6.068518 1.788 6.068518 1.788s-5.299988-15.622 0-14.882c5.299982.739 6.741382 6.988 6.741382 6.988s.65167-15.154 4.35531-13.712c3.7037 1.442 3.4787 9.24 3.4787 10.137s9.651-14.989 11.3655-7.494c1.7145 7.494.8093 9.401.8093 9.401s8.3733-4.413 6.9605 3.781c1.4263.861 7.097 2.762 3.5485 7.65 2.1212.345 4.0606 3.556 2.0303 4.888-2.0303 1.333-40.368601 0-40.368601 0z" fill="#0dc25c"/><g clip-path="url(#z)"><g mask="url(#ad)" stroke="#00ad50" stroke-linecap="round" stroke-linejoin="round" stroke-width=".5"><path d="m11.9361 130.913s-.0373 18.157 1.3691 19.181"/><path d="m0 136.142s8.16373 10.428 8.16373 15.343"/><path d="m24.5288 131.53s-4.1148 16.261-8.0474 19.955"/><path d="m32.1558 140.503s-5.2863 10.252-14.0787 12.133"/></g></g></g><g clip-path="url(#A)"><path d="m247.168 57.6731s5.931-2.3736 8.01-1.4564c2.08.9172 4.196 3.2869 7.639 2.3717 3.443-.9153 4.55-1.6964 4.55-3.0457s-7.268-12.8044-7.268-12.8044h-10.421l-13.093 1.6722-5.026 3.7582.653 8.048 10.97-.674z" fill="#05af54"/><path d="m246.313 48.7648 2.396 8.3693h1.691l-2.043-9.5296h-2.044z" fill="#545105"/><path d="m239.66 91.6062s8.546 5.4672 19.496 0c1.653.9727 9.337.135 12.455-3.093.285-.5732 8.436 7.0414 11.078 6.2761 2.642-.7654 5.308-8.9809 5.308-8.9809l-11.755-7.4529-23.677-.708s-5.713-.0218-5.713.708-4.258.831-5.875 2.2476c-1.616 1.4165-3.341 2.5-3.341 2.5z" fill="#05af54"/><path d="m254.562 87.0332-1.136 32.7918 2.888 9.127h3.958s-2.554-43.3216-2.554-43.8599-3.156 1.9411-3.156 1.9411z" fill="#545105"/><path d="m253.426 100.872s-7.835-11.3852-8.77-18.4651c-1.713-.7507-2.19 0-2.19 0s6.98 20.8461 10.96 23.1221c2.243.614 1.752-3.983 1.752-3.983z" fill="#545105"/><path d="m256.932 45.2037s1.462.1374.731 5.5326c.016 2.6146 13.603 11.5604 18.104 11.5604 4.5 0 13.868-1.3723 16.154-2.5401 2.287-1.1678 7.01-7.8487 7.01-9.0203s-8.08-10.9118-8.08-10.9118l-12.919-2.6588-15.129-1.9323-7.625 2.9457v3.2118z" fill="#fc3b97"/><path d="m278.869 42.7389s-9.011 14.0535-9.011 16.0566c-.445.6061-3.96 4.2925-3.96 4.2925l1.469 6.659s9.529-13.0807 16.928-18.9798c-.606-1.2979-1.606-1.336-1.606-1.336l-6.805 4.9377 6.103-13.533h-1.821z" fill="#545105"/><path d="m235.134 58.5887s-5.625-4.7258-5.625-9.7542c0-5.0283-9.383 1.7848-8.416-7.8017.279-3.5884-.22-4.9979-1.527-5.9046-1.308-.9068-1.849-4.5898 3.04-8.9119 1.725-3.2656.469-7.2541 2.985-8.382s3.872-1.1075 12.687 2.147c1.314.6894 5.356-.8663 6.138-4.6169.782-3.7505 9.928-5.0009 15.084-1.1034 1.781.968 3.914-1.7827 5.16-1.7827s14.875.6037 14.061 8.2992c-.814 7.6956-24.29 22.9556-24.29 22.9556s-3.254 6.6797-12.871 3.3399c-9.618-3.3399-6.426 11.5157-6.426 11.5157z" fill="#0dd168"/><path d="m256.932 45.2034s-11.271-3.6662-3.095-9.3952c2.901-.4393 5.309 0 5.309 0s-1.353-7.7957 7.115-8.4117c8.468-.6159 9.119-.7677 9.119-.7677s-1.308-5.3378 4.217-5.3378 13.248 3.5542 13.248 3.5542 3.791-7.005 8.447-.991c2.084 3.1232 1.571 7.5819 1.571 7.5819s6.712-.6089 3.356 6.8919c-1.028 1.2259-3.356 2.2123-3.356 2.2123s3.462 11.0539-5.304 10.1236c-8.765-.9303-7.614-9.5219-12.362-9.5219s-3.33 9.058-13.661 1.5965c-2.916 0-8.191-.7269-6.924 1.0888 1.268 1.8157-7.68 1.3761-7.68 1.3761z" fill="#45e38e"/><g clip-path="url(#B)"><path d="m316.931 46.1421s-6.114-3.4722-9.593-1.7361c-3.48 1.7361-6.921 6.3301-9.267 6.3301-2.345 0-2.529-1.6447-10.074 0-7.545 1.6448-6.808 13.6283-6.808 13.6283s0 20.6344 16.021 21.8805c16.022 1.246 8.627-1.2622 15.382-2.2962 1.884.7668 6.759 2.7082 8.821 1.3541 2.063-1.3541 7.7 5.2201 12.1 3.991 4.399-1.2292 6.268-3.991 7.783-3.991s9.669 1.5485 10.419-1.8646c.749-3.413 5.688-6.9187 5.156-9.7669s-.846-3.9247-.846-3.9247 6.347-4.2642 4.601-6.4733c-1.746-2.2092-2.908-3.2199-3.755-2.7146-.846.5054-3.295-4.5849-6.826-8.1894s-10.728.4138-12.763 0-1.895-2.3736-3.769-4.7648c-1.874-2.3911-12.64-3.5564-14.294-2.2059-1.654 1.3506-2.288.7435-2.288.7435z" fill="#0dd168"/><g clip-path="url(#C)"><g mask="url(#ae)"><path d="m314.039 73.2868s-5.646-4.2259-2.823-6.6493c2.823-2.4233 5.689-2.2222 5.689-2.2222s-.744-7.2812 6.109-7.2812h7.824s.335-4.351 4.077-4.7648 7.216-1.6332 7.216-1.6332l13.355-.9998 16.38 13.2939-12.701 16.3257-7.003 4.6246-17.247-6.3339-11.901-3.1038-8.319-1.256" fill="#ffe303"/><path d="m290.871 82.7287s3.359-7.1869 8.06-7.1869 10.189 2.9396 11.921 0c1.732-2.9397 3.421-9.4441 8.428-8.3036s9.396 6.5762 13.209 4.5421 8.154-4.5082 10.909-.9906c2.756 3.5177 2.865 3.6157 5.915 4.7521 3.05 1.1363 2.847 3.6712 2.847 7.1869s-1.26 5.0919-1.26 5.0919l-27.273 3.7849-19.5-3.7849h-12.382z" fill="#05af54"/></g></g></g><path d="m331.99 72.018s-3.983 3.3989-3.983 4.1863-11.056 9.1777-11.056 13.2441c-.316-.0623-1.799-21.1505-1.799-21.1505l-.947 1.1028.63 14.5804-3.983-8.4383-1.02 1.053s4.519 12.3826 5.003 12.8526c-.347-.1787-.712 18.4066-.712 18.4066s-8.265-9.7464-10.395-22.1387c-.966-.2569-1.286.5291-1.286.5291s5.243 19.0326 11.681 24.1316c.04 1.105-.504 17.576-.504 17.576l5.793-1.159s-2.261-28.354-2.261-28.8811 1.198-1.9588 1.198-5.2117c-.253-1.8601 18.829-20.6598 22.916-23.3005-.001-.5223-2.871-.293-2.871-.293l-5.186 3.5841.773-1.6683z" fill="#545105"/><path d="m254.999 45.1982h1.248l.053 17.0983h-2.322z" fill="#545105"/><path d="m273.296 127.953s-10.901-3.992-8.117-9.777c1.491-1.001 6.481 2.498 6.481 2.498s-5.171-17.262 0-17.262 7.997 5.051 8.763 7.68c.766 2.628-.715-17.3355 4.867-14.5096 5.581 2.8259 6.28 3.9556 6.28 5.3336s1.291-6.1181 6.592-4.4526c5.301 1.6654 6.037 6.4716 5.159 10.0496-.011.015 10.276-.934 6.954 6.113 2.196-.86 8.783 1.824 5.219 8.575 1.695.002 5.122 1.136 2.888 3.444s-8.757 4.434-12.892 4.434-28.872-.129-30.104-1.128c-1.231-.998-2.09-.998-2.09-.998z" fill="#05af54"/><g clip-path="url(#D)"><g fill="#ffe303"><path d="m307.467 108.37s2.213-5.22 3.8-5.22c1.588 0 1.978 1.323 0 3.272-1.977 1.948-3.8 1.948-3.8 1.948z"/><path d="m305.289 113.277s3.948-3.003 4.525-1.501c.577 1.501.073 2.312-1.739 2.636-1.813.325-3.576.649-3.576.649z"/><path d="m303.313 117.603s1.941-1.685 2.949-1.319c1.008.367 1.223 2.404 0 2.404s-3.343.255-3.343.255l.394-.999"/></g><g clip-path="url(#E)"><path d="m306.727 109.991s.114-5.713-3.587-6.531c-2.568 1.925 1.804 9.41 2.348 8.955s1.239-2.424 1.239-2.424z" fill="#ffe303"/><path d="m303.797 115.913s-1.775-6.242-3.366-6.242c-1.59 0-1.955 1.18-1.265 2.692.691 1.513 3.839 5.522 3.839 5.522z" fill="#ffe303"/><path d="m308.929 106.354s-5.505 9.806-5.924 12.799.357 3.51.357 3.51" stroke="#ffe303"/></g></g><path d="m310.275 128.952s.355-2.049-.977-2.049c-1.331 0 1.224-6.144-2.134-6.144-2.081.144-.861-1.997-3.162-3.359s-3.816.813-3.816.813 1.421-6.642-2.333-8.48c-3.754-1.839-5.266.888-5.266.888s1.158-4.565-1.716-2.727c-2.874 1.839-2.874 5.3-2.874 5.3s-4.845-6.188-5.827-2.178c-.981 4.01 1.485 6.384 1.485 6.384s-10.153-3.175-8.558.813c1.594 3.988 2.169 5.066 2.169 5.066s-4.073.222-4.073 3.172c0 2.949 2.014 2.501 2.774 2.501.759 0 14.379 2.498 18.132 2.498 3.754 0 12.203-.705 13.065-.705s3.111-1.793 3.111-1.793z" fill="#6236ff"/><path d="m329.415 129.72s-4.965-4.619-2.711-4.619c2.255 0 3.298.966 3.298.966s-2.88-8.443 0-8.043c2.879.4 3.662 3.777 3.662 3.777s.354-8.19 2.367-7.411c2.012.779 1.89 4.994 1.89 5.479s5.243-8.101 6.175-4.051c.931 4.051.439 5.082.439 5.082s4.55-2.386 3.782 2.043c.775.466 3.856 1.493 1.928 4.135 1.153.186 2.206 1.921 1.103 2.642-1.103.72-21.933 0-21.933 0z" fill="#05af54"/><path d="m242.174 91.5594s-12.778.7235-10.777-9.6797c-3.099-1.7407-7.778-8.6648-2.739-14.3902-.787-3.0417-1.792-9.0651 4-7.0814.194-6.7343 5.307-11.2061 7.412-6.5125 3.631-2.2995 7.098-1.7672 7.098 3.7783 2.596-1.1382 7.827-.714 7.827 4.2383.728-.5232 6.561-6.6105 10.101-1.5041 3.541 5.1064 1.97 8.3572 1.97 8.3572s10.716-1.6252 13.057 2.2154c2.342 3.8407 4.092 14.5392.571 13.844-3.522-.6952-5.329-2.7601-8.364-4.2214-3.034-1.4613-6.154-3.5378-10.477 2.1767-3.251 3.551-4.609 7.5754-12.144 2.0447-4.185-2.2733-13.304-3.5143-8.745 5.4745" fill="#45e38e"/></g><path d="m150.344 141.431c-25.397-3.149-31.096 2.221-43.126-5.787-12.03-8.009 106.889-11.816 91.269-1.08-15.621 10.735 3.706 3.465 12.663 9.088s-35.41.929-60.806-2.221z" fill="url(#k)" opacity=".05"/><path d="m265.325 130.079s-6.216 7.614-15.591 9.138c-9.376 1.524-12.017-.15-17.363 1.108-5.346 1.259-16.949 1.809-18.421.551-1.471-1.258-1.625-2.468-1.625-2.468s16.3-5.444 17.35-5.444 35.65-2.885 35.65-2.885z" fill="#000e31"/></g><g clip-path="url(#F)"><path d="m270.225 83.4414-.434.4376-.299 1.1414 4.345 4.5028 1.353.4178-.429-.9382-3.452-3.4769-.805-.9127z" fill="#000e50"/><path d="m290.115 74.3213.677 1.893s-3.96 1.1487-3.96.803c0-.3458 0-.803 0-.803l1.085-1.0327z" fill="#fff0d6"/><path d="m291.735 67.0517s1.829 4.4181-1.109 6.9938c-.63-.2201-1.609-1.3216-1.609-2.2197 0-.8982.138-1.5292-.73-2.1709-.869-.6416-1.122-1.5293-1.122-1.5293l2.122-1.4979 2.011-.4705z" fill="#051870"/><path d="m283.57 68.3734s1.186 2.3679.833 3.1049c-.352.7371-.921 1.6895-.308 1.6895s1.691.7049 1.691.7049l2.414-.3866 1.231-2.4123s-.066-1.4213-.274-1.4213-1.691-1.3759-1.691-1.3759l-1.68-.8899h-1.383z" fill="#fff0d6"/><path d="m285.425 71.2606c-.147.0233-.305-.1965-.351-.491-.047-.2945.035-.5522.182-.5755s.45.0446.496.3391c.047.2946-.18.7041-.327.7274z" fill="#000e50"/><path d="m291.589 66.7431s-.921-.1765-1.664.5445c-.744.721-2.127 1.6336-3.054 1.1773s-1.379-.6438-2.162-.3219c-.784.3219-1.451.8554-1.451 0s-.333-1.8584.741-2.3057 1.036-1.1604 2.218-1.5909c1.182-.4304 1.401-.7443 2.283-.3721.883.3721 2.547.3805 2.547.8765s1.507.3272 1.025.8668c-.483.5395-.483 1.1255-.483 1.1255z" fill="#000e50"/><g clip-path="url(#G)"><path d="m289.431 70.5332s-1.004 2.176-2.201 2.5108-2.435.2881-2.435.2881.258 2.7989 1.575 2.7989c1.318 0 4.422-1.6354 4.422-2.2171 0-.5818-.991-3.3807-.991-3.3807z" fill="#000e50"/><g clip-path="url(#H)"><g mask="url(#af)"><path d="m284.656 74.0781s.038-.0045.057-.0067c.598-.0699 1.788.0067 1.788.0067s-.665 1.7366-1.556.964-.415-.785-.415-.785" fill="#fff"/></g></g></g><path d="m291.1 76.2166v1.2437s4.561 2.6965 4.561 6.1595 1.255 17.4912 0 17.9382c-1.256.448-11.052 1.408-11.962.704s-1.558-12.5533 1.497-20.0227c1.268-3.6723 1.636-2.7682 1.636-5.5672-.038-1.1748 2.969-.7383 2.969-.7383z" fill="#fff"/><g clip-path="url(#I)"><path d="m281.86 138.794s-5.257 1.125-5.257 2.433c0 1.309 1.584.609 3.526.609 1.943 0 2.937.11 3.411-.609s.265-1.54.181-1.993c-.083-.453-.697-.797-.697-.797z" fill="#000e50"/><g clip-path="url(#J)"><g mask="url(#ag)"><path d="m284.322 140.877s-.453 1.582-.625 1.582-2.099.286-2.987.436c-.887.15-4.493-.281-4.255-.436.237-.155 0-1.003 0-1.003s.019-.653.147-.345c.415.997 2.251.439 3.221.345.818-.08 1.551.182 2.861 0 .411-.057 1.638-.579 1.638-.579z" fill="#fff"/></g></g></g><g clip-path="url(#K)"><path d="m301.528 136.557s-4.7 2.613-4.317 3.864c.382 1.251 1.693.119 3.551-.449 1.857-.568 2.84-.753 3.083-1.58.243-.826-.197-1.55-.409-1.958-.213-.409-.9-.56-.9-.56z" fill="#000e50"/><g mask="url(#ah)"><path d="m304.491 137.828s.028 1.646-.136 1.696c-.165.05-1.923.887-2.728 1.29-.806.403-4.379 1.045-4.198.827.182-.217-.293-.959-.293-.959s-.172-.63.041-.373c.687.832 2.28-.238 3.18-.611.759-.316 1.537-.28 2.736-.837.377-.175 1.398-1.033 1.398-1.033z" fill="#fff"/></g></g><path d="m293.448 80.9768s3.033 2.1398.512 9.6557-4.086 9.3076-5.148 7.755c-1.062-1.5527-2.313-3.5108-1.98-4.4802.332-.9693 1.516-11.2179 5.036-13.2325 1.199 0 1.58.302 1.58.302z" fill="#e9e9e9"/><path d="m273.718 87.0591-3.327-3.3316-.36.9891 4.901 4.6326.258-.6465z" fill="#fff"/><g fill="#fff0d6"><path d="m287.164 94.6177s-3.926-2.3708-8.09-3.2223c-2.162-1.1544-2.709-3.507-5.462-4.1132-.166.0901 1.366 1.5411 1.596 1.8813.23.3401-.748.8027-1.292.1746-.543-.628-1.757-1.9378-1.923-1.485s1.213 2.8705 2.475 3.0969c1.261.2263 3.497 1.5201 5.331 2.8667 1.834 1.3465 8.628 4.942 9.013 4.5705.384-.3715-1.648-3.7695-1.648-3.7695z"/><path d="m285.149 122.516s-.809 3.009-1.158 3.329c-.348.32-.14 13.081-.493 13.464-.353.382-1.168.125-1.358 0-.19-.126-.767-2.241-1.207-3.964-.441-1.723-2.132-13.166-.217-14.522s4.433 1.693 4.433 1.693z"/><path d="m295.973 118.737s1.544 5.849 2.184 7.068c.64 1.218 4.383 9.547 4.622 10.338.238.79-.795 1.162-1.325.605-.529-.557-4.404-4.94-5.235-6.556-.831-1.615-6.261-8.626-5.495-9.786.766-1.161 5.249-1.669 5.249-1.669z"/></g><g fill="#000e50"><path d="m295.104 101.215s.284 4.806-2.533 7.537-6.996 13.764-6.996 13.764-5.929-.853-5.929-1.738 3.988-17.297 5.929-18.799c1.942-1.501 9.529-.764 9.529-.764z"/><path d="m293.786 107.384s2.433 10.009 2.433 10.888-5.07 3.765-5.62 3.201c-.55-.565-3.082-5.683-3.082-5.683l3.838-7.772z"/></g></g><g clip-path="url(#L)"><g clip-path="url(#M)"><g clip-path="url(#N)"><g clip-path="url(#O)"><path d="m267.742 123.584.171-5.133-.963 2.037c-1.017-2.316-2.971-4.517-5.877-6.374-9.16-5.858-23.819-5.816-32.741.094-2.852 1.887-4.812 4.119-5.89 6.459l-.985-2.265.016 7.384.04.017c.299 3.354 2.372 6.594 6.246 9.075 8.605 5.508 23.264 5.467 32.741-.093 4.198-2.462 6.584-5.649 7.146-8.943l.024-.009.007-.202c.1-.677.122-1.364.065-2.047z" fill="#ffec50"/><path d="m267.742 123.584.171-5.133-.963 2.037c-1.017-2.316-2.971-4.517-5.877-6.374-9.16-5.858-23.819-5.816-32.741.094-2.852 1.887-4.812 4.119-5.89 6.459l-.985-2.265.016 7.384.04.017c.299 3.354 2.372 6.594 6.246 9.075 8.605 5.508 23.264 5.467 32.741-.093 4.198-2.462 6.584-5.649 7.146-8.943l.024-.009.007-.202c.1-.677.122-1.364.065-2.047z" fill="url(#m)"/></g><g clip-path="url(#P)"><path d="m261.2 107.575c9.187 6.146 8.923 15.869-.59 21.717-9.514 5.848-24.222 5.903-32.853.123-8.631-5.779-8.366-15.502.591-21.718s23.665-6.268 32.852-.122z" fill="#ffec50"/><g filter="url(#a)"><path d="m261.2 107.575c9.187 6.146 8.923 15.869-.59 21.717-9.514 5.848-24.222 5.903-32.853.123-8.631-5.779-8.366-15.502.591-21.718s23.665-6.268 32.852-.122z" fill="url(#o)"/></g></g><g clip-path="url(#Q)"><path d="m258.562 109.298c7.72 5.164 7.498 13.333-.495 18.248s-20.352 4.959-27.603.102c-7.252-4.857-7.028-13.026.495-18.248 7.524-5.222 19.884-5.266 27.603-.102z" fill="#ffec50"/><g filter="url(#b)"><path d="m258.562 109.298c7.72 5.164 7.498 13.333-.495 18.248s-20.352 4.959-27.603.102c-7.252-4.857-7.028-13.026.495-18.248 7.524-5.222 19.884-5.266 27.603-.102z" fill="url(#p)"/></g></g></g><g clip-path="url(#R)"><g filter="url(#c)"><path d="m240.641 115.769-1.65-2.719c-2.163.185-3.523.84-4.074 1.973-.437.908-.387 1.985.164 3.234-.021 0-.041.001-.062.002l-1.737.129c-.481.035-.716.326-.523.651l.712 1.181c.2.326.759.563 1.247.527l1.761-.13c.045-.003.087-.01.127-.017.978 1.116 2.158 1.983 3.533 2.6 1.93.856 3.921 1.201 5.945 1.03 1.466-.128 2.452-.494 2.965-1.098.513-.597.505-1.609-.004-3.033l-1.131-3.438c-.161-.516-.145-.905.046-1.166.195-.254.547-.408 1.054-.46.698-.072 1.394.085 2.091.472.705.393 1.318.956 1.842 1.688 1.177 1.613.846 2.63-1.034 3.043l2.086 2.773c2.06-.317 3.265-1.013 3.627-2.081.224-.666.143-1.429-.239-2.287.088.008.175.008.258-.001l1.621-.186c.446-.052.604-.356.354-.679l-.89-1.167c-.242-.321-.794-.54-1.234-.488l-1.599.184c-.015.001-.028.004-.042.006-1.111-1.333-2.393-2.324-3.858-2.979-1.689-.762-3.39-1.052-5.125-.872-1.366.137-2.315.483-2.847 1.037-.535.556-.66 1.358-.365 2.409l.968 3.46c.414 1.317.073 2.025-1.036 2.121-1.752.147-3.24-.694-4.422-2.511-1.177-1.877-.67-2.942 1.471-3.208z" fill="#ffec50"/></g><path d="m240.641 115.769-1.65-2.719c-2.163.185-3.523.84-4.074 1.973-.437.908-.387 1.985.164 3.234-.021 0-.041.001-.062.002l-1.737.129c-.481.035-.716.326-.523.651l.712 1.181c.2.326.759.563 1.247.527l1.761-.13c.045-.003.087-.01.127-.017.978 1.116 2.158 1.983 3.533 2.6 1.93.856 3.921 1.201 5.945 1.03 1.466-.128 2.452-.494 2.965-1.098.513-.597.505-1.609-.004-3.033l-1.131-3.438c-.161-.516-.145-.905.046-1.166.195-.254.547-.408 1.054-.46.698-.072 1.394.085 2.091.472.705.393 1.318.956 1.842 1.688 1.177 1.613.846 2.63-1.034 3.043l2.086 2.773c2.06-.317 3.265-1.013 3.627-2.081.224-.666.143-1.429-.239-2.287.088.008.175.008.258-.001l1.621-.186c.446-.052.604-.356.354-.679l-.89-1.167c-.242-.321-.794-.54-1.234-.488l-1.599.184c-.015.001-.028.004-.042.006-1.111-1.333-2.393-2.324-3.858-2.979-1.689-.762-3.39-1.052-5.125-.872-1.366.137-2.315.483-2.847 1.037-.535.556-.66 1.358-.365 2.409l.968 3.46c.414 1.317.073 2.025-1.036 2.121-1.752.147-3.24-.694-4.422-2.511-1.177-1.877-.67-2.942 1.471-3.208z" fill="url(#r)"/></g></g><g clip-path="url(#S)"><g clip-path="url(#T)"><g clip-path="url(#U)"><path d="m243.613 124.15c-3.507 9.459-14.941 17.127-25.532 17.127-6.697 0-12.243-4.649-13.655-9.293-.821-2.702.412-4.356 1.926-7.835 4.116-9.459 15.548-17.125 25.534-17.125 4.432 0 7.755.313 9.97 2.82 2.775 3.141 3.71 9.045 1.757 14.306z" fill="#ffec50"/><path d="m243.613 124.15c-3.507 9.459-14.941 17.127-25.532 17.127-6.697 0-12.243-4.649-13.655-9.293-.821-2.702.412-4.356 1.926-7.835 4.116-9.459 15.548-17.125 25.534-17.125 4.432 0 7.755.313 9.97 2.82 2.775 3.141 3.71 9.045 1.757 14.306z" fill="url(#s)"/></g><g clip-path="url(#V)"><path d="m241.663 120.128c-3.508 9.458-14.941 17.127-25.532 17.127s-15.845-7.669-11.729-17.127c4.117-9.459 15.548-17.128 25.534-17.128 9.985 0 15.236 7.668 11.727 17.128z" fill="#ffec50"/><g filter="url(#d)"><path d="m241.663 120.128c-3.508 9.458-14.941 17.127-25.532 17.127s-15.845-7.669-11.729-17.127c4.117-9.459 15.548-17.128 25.534-17.128 9.985 0 15.236 7.668 11.727 17.128z" fill="url(#t)"/></g></g><g clip-path="url(#W)"><path d="m238.033 120.127c-2.829 7.632-12.054 13.819-20.6 13.819s-12.784-6.186-9.463-13.819c3.32-7.632 12.543-13.819 20.602-13.819 8.058 0 12.294 6.187 9.461 13.819z" fill="#ffec50"/><g filter="url(#e)"><path d="m238.033 120.127c-2.829 7.632-12.054 13.819-20.6 13.819s-12.784-6.186-9.463-13.819c3.32-7.632 12.543-13.819 20.602-13.819 8.058 0 12.294 6.187 9.461 13.819z" fill="url(#u)"/></g></g></g><g clip-path="url(#X)"><g filter="url(#f)"><path d="m218.301 119.412-2.805-1.648c-1.322 1.133-1.798 2.309-1.42 3.531.308.974 1.047 1.879 2.218 2.715-.013.01-.026.019-.038.029l-1.03.864c-.286.238-.243.589.095.784l1.231.707c.341.196.849.161 1.134-.077l1.027-.864c.026-.022.048-.045.068-.069 1.331.556 2.62.816 3.863.78 1.727-.051 3.165-.573 4.308-1.568.826-.724 1.218-1.466 1.179-2.226-.033-.756-.633-1.671-1.791-2.744l-2.759-2.617c-.411-.395-.632-.753-.662-1.073-.023-.316.116-.61.419-.882.416-.375.964-.54 1.646-.496.687.047 1.409.292 2.168.735 1.674.971 2.04 2.049 1.085 3.233l2.896 1.658c1.102-1.158 1.465-2.311 1.101-3.457-.225-.715-.697-1.39-1.413-2.025.06-.03.116-.068.164-.113l.937-.874c.257-.242.194-.595-.141-.79l-1.209-.704c-.332-.195-.811-.156-1.069.085l-.94.874c-.008.008-.016.017-.024.025-1.471-.743-2.875-1.087-4.22-1.032-1.566.064-2.874.57-3.928 1.516-.83.74-1.254 1.476-1.269 2.209-.013.734.397 1.501 1.236 2.305l2.738 2.66c1.062.999 1.278 1.776.64 2.332-1.008.873-2.468.763-4.362-.327-1.951-1.128-2.301-2.28-1.073-3.456z" fill="#ffec50"/></g><path d="m218.301 119.412-2.805-1.648c-1.322 1.133-1.798 2.309-1.42 3.531.308.974 1.047 1.879 2.218 2.715-.013.01-.026.019-.038.029l-1.03.864c-.286.238-.243.589.095.784l1.231.707c.341.196.849.161 1.134-.077l1.027-.864c.026-.022.048-.045.068-.069 1.331.556 2.62.816 3.863.78 1.727-.051 3.165-.573 4.308-1.568.826-.724 1.218-1.466 1.179-2.226-.033-.756-.633-1.671-1.791-2.744l-2.759-2.617c-.411-.395-.632-.753-.662-1.073-.023-.316.116-.61.419-.882.416-.375.964-.54 1.646-.496.687.047 1.409.292 2.168.735 1.674.971 2.04 2.049 1.085 3.233l2.896 1.658c1.102-1.158 1.465-2.311 1.101-3.457-.225-.715-.697-1.39-1.413-2.025.06-.03.116-.068.164-.113l.937-.874c.257-.242.194-.595-.141-.79l-1.209-.704c-.332-.195-.811-.156-1.069.085l-.94.874c-.008.008-.016.017-.024.025-1.471-.743-2.875-1.087-4.22-1.032-1.566.064-2.874.57-3.928 1.516-.83.74-1.254 1.476-1.269 2.209-.013.734.397 1.501 1.236 2.305l2.738 2.66c1.062.999 1.278 1.776.64 2.332-1.008.873-2.468.763-4.362-.327-1.951-1.128-2.301-2.28-1.073-3.456z" fill="url(#v)"/></g></g></g><g clip-path="url(#Y)"><path clip-rule="evenodd" d="m76.8395 44.6424v-2.8912h-9.6924v-1.2942h-5.507v1.2942h-9.8576v2.8912zm-32.2066 3.9636c-.5324.5507-1.4227.8261-2.6709.8261h-16.3009v-8.2055h19.7703v4.5708c0 1.3217-.2662 2.2579-.7985 2.8086zm-14.566-4.2667h10.959v-.9086h-10.959zm9.9953 2.8901h-9.9953v-.9638h10.959c-.0183.3855-.0918.6425-.2203.771s-.3763.1928-.7434.1928zm-4.3782 18.2296v-2.4506c.1835-.0368.4772-.0918.8811-.1653v2.5058c2.3313-.6425 4.1211-1.3309 5.3694-2.0652 1.4869.8077 3.3409 1.5144 5.5621 2.1202v-2.6709c-1.1749-.3855-2.1845-.8352-3.0289-1.3492 1.1014-1.1198 2.056-2.7627 2.8637-4.9288v-2.5883h-11.0967v2.6158h6.9939c-.514 1.1014-1.0004 1.9458-1.4594 2.5333-.4589-.6242-.8352-1.2208-1.1289-1.7898h-4.1303c.6792 1.6888 1.5971 3.0655 2.7535 4.1302-.6975.459-1.5603.9087-2.5883 1.3493v-2.3681c-.3487.0551-.6792.1102-.9912.1653v-7.5998h12.4459v-2.7535h-25.1397v2.7535h1.7623v8.6461c-.4956.0183-.9913.0275-1.4869.0275v3.1666c3.3593-.2937 6.2138-.6333 8.5634-1.0188v1.7347zm-3.855-11.3441h-3.2216v-1.2116h3.2216zm-3.2216 3.5242h3.2216v-1.3217h-3.2216zm0 3.6896v-1.4869h3.2216v1.1565c-1.0647.1101-2.1385.2203-3.2216.3304zm41.6237-9.72c1.2483 0 2.1202-.2662 2.6158-.7985.4957-.5323.7435-1.4961.7435-2.8912v-2.3956h-18.4761v6.0853zm-2.2027-2.3401h-8.3707v-1.4043h9.3895v.3579c0 .4222-.0642.6976-.1927.8261-.1469.1468-.4222.2203-.8261.2203zm4.4055 15.9151c1.2115 0 2.0835-.3121 2.6158-.9362.5507-.6425.8261-1.6981.8261-3.1666v-8.4808h-23.047v12.556h4.5433v-9.6648h13.9604v5.865c0 .4222-.0734.7067-.2203.8535-.1468.1469-.4406.2203-.8811.2203h-1.129v2.7536zm-5.7-2.5059c1.2483 0 2.1202-.2478 2.6159-.7434.4956-.4956.7434-1.3584.7434-2.5883v-2.8637h-11.5097v6.1954zm-1.652-2.3401h-2.5057v-1.5145h3.5245v.4681c0 .4222-.0643.6976-.1928.8261-.1468.1469-.4222.2203-.826.2203zm18.4666 4.9286c1.1198 0 1.9642-.2938 2.5333-.8812.5874-.6057.8811-1.5419.8811-2.8086v-7.3519c.2754-.1101.7251-.2937 1.3492-.5507v-2.8361c-.4405.1285-.8903.2478-1.3492.358v-4.7636h1.4043v-2.8912h-1.4043v-3.084h-4.2679v3.084h-1.8174v2.8912h1.8174v5.6172c-.6976.0917-1.3676.1743-2.0101.2478v3.5245c1.1381-.2019 1.8081-.3304 2.0101-.3855v5.7824c0 .4405-.0735.7434-.2203.9086-.1469.1653-.4039.2479-.771.2479h-.7435v2.8912zm20.0185-14.6209c-.533.5874-1.395.8811-2.589.8811h-11.2065v-10.2706h14.5935v6.4983c0 1.34-.266 2.3037-.798 2.8912zm-9.6651-5.4251h6.3331v-1.2115h-6.3331zm5.094 3.5524h-5.094v-1.1565h6.3331c-.018.4406-.119.7435-.3029.9087-.1836.1652-.4957.2478-.9362.2478zm-11.7852 16.7689c1.9458-.7893 3.396-1.8724 4.3506-3.2491 1.4318 1.8907 3.8733 2.7994 7.3244 2.7259h6.7183v-2.9738h-6.1401v-2.2578h5.3421v-2.8086h-5.3421v-1.5971h6.1401v-2.9738h-16.989v2.9738h6.4433v5.6998c-.8628-.5507-1.5512-1.3125-2.0652-2.2854.1836-.8628.3121-1.7072.3855-2.5333h-3.9926c-.0734 1.542-.2662 2.7627-.5782 3.6622-.3121.8995-.8444 1.7531-1.5971 2.5608zm35.3183-21.5325v12.7488h-4.048v-15.6125h14.787v15.6125h-4.048v-12.7488zm-13.107 19.6876c3.451-.4772 6.379-1.2299 8.784-2.2578v-2.9188c-.734.202-1.478.4039-2.231.6058v-6.0027h1.625v-2.9738h-1.625v-5.6447h1.79v-2.9463h-7.985v2.9463h1.927v5.6447h-1.955v2.9738h1.955v6.7737c-.899.1101-1.661.1836-2.285.2203zm15.53-2.9462c-1.469 1.542-3.736 3.0747-6.801 4.5984v-2.9188c2.239-1.5787 3.745-3.1023 4.516-4.5708.734-1.3951 1.101-3.341 1.101-5.8375v-6.278h4.13v6.4432c0 .7527-.046 1.5236-.137 2.313h1.184v6.4432c0 .3855.082.6609.247.8261.166.1652.441.2478.826.2478.368 0 .625-.0826.771-.2478.147-.1652.221-.4589.221-.8811v-.716h3.001v1.5145c0 2.2395-1.111 3.3593-3.332 3.3593h-2.423c-1.138 0-1.964-.3029-2.478-.9087-.551-.6425-.826-1.6613-.826-3.0564z" fill="#fff" fill-rule="evenodd"/></g><g clip-path="url(#Z)"><g filter="url(#g)"><path clip-rule="evenodd" d="m146.489 64.1928c2.643 0 4.69-.6975 6.14-2.0926 1.395-1.3401 2.093-3.2033 2.093-5.5897 0-2.1661-.716-3.8916-2.148-5.1766-1.468-1.3033-3.46-1.955-5.975-1.955-1.67 0-3.111.4314-4.323 1.2942-.055-1.8724.321-3.3869 1.129-4.5434.771-1.1197 1.762-1.6796 2.974-1.6796 1.725-.0367 2.919.7985 3.579 2.5057h4.516c-.918-4.0018-3.644-6.0027-8.178-6.0027-2.753 0-4.938.9638-6.553 2.8912-1.689 2.0376-2.543 4.938-2.561 8.7011 0 4.2038.808 7.2326 2.423 9.0867 1.487 1.7072 3.782 2.5607 6.884 2.5607zm-.22-3.4689c-1.102 0-2.001-.3671-2.699-1.1014-.734-.771-1.101-1.799-1.101-3.084 0-1.083.349-1.9733 1.046-2.6709.698-.6975 1.551-1.0463 2.561-1.0463 1.12 0 2.001.3488 2.643 1.0463.661.7159.992 1.6797.992 2.8912 0 .8444-.147 1.5604-.441 2.1478-.606 1.2115-1.606 1.8173-3.001 1.8173zm21.165 3.4689c3.047 0 5.287-.9362 6.718-2.8085 1.432-1.8724 2.148-4.8004 2.148-8.7838 0-3.7081-.725-6.5534-2.175-8.5359-1.505-2.0743-3.736-3.1115-6.691-3.1115-2.809 0-4.993 1.028-6.554 3.084-1.578 2.0743-2.358 4.9379-2.34 8.591 0 3.91.826 6.8562 2.478 8.8388 1.524 1.8173 3.662 2.7259 6.416 2.7259zm.055-3.4138c-2.515 0-3.773-2.6985-3.773-8.0954 0-3.0105.349-5.1858 1.047-6.5258.605-1.1749 1.514-1.7623 2.726-1.7623 1.23 0 2.129.6058 2.698 1.8173.624 1.3217.936 3.4786.936 6.4708 0 2.056-.156 3.6989-.468 4.9288-.532 2.111-1.588 3.1666-3.166 3.1666zm35.345-16.439v-3.1666h-20.486v3.1666zm-14.813 16.4385c-1.524 1.8173-3.947 3.24-7.27 4.2679v-3.1665c1.854-1.2299 3.139-2.4782 3.855-3.7448s1.074-2.983 1.074-5.1491v-.9913h-5.314v-3.1665h24.451v3.1665h-6.306v8.2331c0 .4038.074.6884.221.8536s.422.2478.826.2478h.33c.808 0 1.212-.3855 1.212-1.1565v-1.3217h3.717v2.0652c0 2.3863-1.23 3.5795-3.69 3.5795h-3.497c-1.358 0-2.34-.3029-2.946-.9086-.661-.6609-.991-1.7715-.991-3.3318v-8.2606h-3.194v.771c0 3.3777-.826 6.0486-2.478 8.0128z" fill="url(#w)" fill-rule="evenodd"/></g></g><g clip-path="url(#aa)"><g clip-path="url(#ab)"><path clip-rule="evenodd" d="m96.4939 81.3598c.6155 0 1.0361-.1129 1.2617-.3386.2257-.2359.3796-.8924.4617-1.9593l-.513-.1744c-.0615.9643-.1846 1.5388-.3692 1.7029-.195.1436-.5027.2257-.9335.2257h-4.5957c-.4822 0-.7181-.236-.7181-.6873v-4.1238l2.3799-.5232v3.7237h.5437v-3.8468l2.5543-.5642c0 1.508-.0205 2.3697-.041 2.5953-.0616.5745-.2975.8617-.6874.8617-.0949 0-.1985-.0022-.31-.0045-.1295-.0028-.2694-.0057-.4183-.0057l.1539.5231h.4719c.7591 0 1.1797-.359 1.272-1.0566.0513-.4205.0821-1.6208.0821-3.6108l-3.0775.6975v-2.5133h-.5437v2.6364l-2.3799.5334v-2.3491h-.5437v2.4722l-1.7029.3898v.5335l1.7029-.3693v4.0828c0 .7591.3693 1.1489 1.1284 1.1489zm-36.5309-3.4878c.9848-.4206 1.826-.9233 2.5338-1.5182.7078.6462 1.59 1.1386 2.6364 1.4771l.318-.4513c-1.0053-.318-1.867-.7796-2.5646-1.3746.6976-.6873 1.2413-1.4772 1.6208-2.3594v-.4206h-2.6466c.1231-.2667.2257-.5437.318-.8309l-.5437-.0923c-.3282 1.0668-.954 1.9798-1.8772 2.7184l.3385.4308c.3488-.2872.6668-.6052.954-.9437.2872.5334.636 1.0258 1.0566 1.4669-.6873.5539-1.5182 1.0361-2.4927 1.4464zm2.5233-2.2359c-.4411-.4514-.8104-.9746-1.1079-1.5696.0718-.1026.1436-.2051.2154-.3282h2.3081c-.3487.6975-.8206 1.3335-1.4156 1.8978zm-30.2735.7484v-.5334h-4.1341v-1.7541h3.3134v-.513h-3.3134v-1.2412h-.5436v1.2412h-3.3032v.513h3.3032v1.7541h-4.1238v.5334zm-8.6784 5.2522c.7078-.7385 1.2309-1.5387 1.5695-2.4004.4513.9233.954 1.5388 1.5182 1.8465.6155.318 1.7952.4821 3.5288.4821.6155.0103 1.3131.0206 2.0722.0206l.1641-.554c-.6155.0205-1.3746.0308-2.2671.0308-.8001 0-1.4874-.0411-2.0414-.1231v-2.185h3.2314v-.5232h-3.2314v-1.4567h-.5539v4.0623c-.2462-.0615-.4514-.1231-.6258-.2052-.5949-.2769-1.1284-.9232-1.6002-1.9388.1333-.4718.2154-.9642.2564-1.4771l-.5437-.0719c-.1025 1.5285-.7386 2.9031-1.8875 4.1238zm36.3774-1.2204c-1.0669.4001-2.3184.7796-3.7545 1.1284l-.1436-.5437c.0796-.0177.1611-.0373.2437-.0571l.0001-.0001h.0002c.1089-.0262.2197-.0528.3304-.0761v-3.8366h.5129v3.7032c.1143-.0305.2271-.0595.3386-.0882.1887-.0486.3733-.0961.5539-.1477v-4.6368h-1.4464v-3.0774h3.0159v3.0774h-1.0463v1.8055h1.1489v.5334h-1.1489v2.144c.4821-.1539.9437-.318 1.3951-.4822zm-2.8312-5.0883h1.949v-2.0106h-1.949zm4.0314 6.3196v-.4822h2.8518v.4822h.5335v-3.7238h-3.9187v3.7238zm2.8516-.9953h-2.8518v-2.2158h2.8518zm66.5894-4.1344c-.164.1539-.421.2359-.77.2359h-1.703c-.553 0-.83-.2872-.83-.8617v-3.5493h.543v1.4361c1.19-.1846 2.144-.3795 2.862-.5847l.185.5027c-.882.2257-1.898.4206-3.047.595v1.4874c0 .3077.144.4616.452.4616h1.436c.225 0 .379-.0513.482-.1539.123-.1538.195-.5744.236-1.2617l.523.1744c-.062.8206-.185 1.3233-.369 1.5182zm-4.175-.9335.451-.318c-.339-.636-.831-1.3746-1.467-2.2158l-.431.277c.287.3898.554.7796.8 1.1489-1.087.1436-2.123.2462-3.098.2872.595-.5231 1.16-1.2822 1.672-2.267l-.533-.1539c-.472.913-1.026 1.6823-1.672 2.3081-.072.0615-.154.1128-.257.1436l.154.4821c1.56-.082 2.893-.2154 3.991-.3898.113.1857.213.3715.311.5522v.0001c.026.0488.052.0973.079.1453zm-3.355 4.134v1.9798h-.544v-5.6933h3.642v4.8521c0 .5129-.267.7694-.779.7694h-.842l-.133-.5232.8.0308c.267 0 .41-.1334.41-.3898v-1.0258zm0-2.0822h2.555v-1.1284h-2.555zm2.555 1.6006h-2.555v-1.1079h2.555zm4.246 2.2871c.37 0 .626-.0718.79-.2154.185-.1949.318-.6976.38-1.508l-.513-.1641c-.041.677-.123 1.0874-.246 1.231-.103.1026-.267.1641-.513.1641h-1.508c-.287 0-.421-.1231-.421-.359v-1.6311c1.088-.0923 2.103-.277 3.047-.5437l-.185-.5129c-.831.2565-1.785.4411-2.862.554v-1.3541h-.543v3.6006c0 .4924.266.7386.8.7386zm30.602.1539v-3.2108h.954v3.2108h.493v-3.0159c.349.9437.933 1.7951 1.744 2.5645l.359-.4513c-.883-.6771-1.498-1.4465-1.847-2.3081h1.149v-1.5183h.657v-.4616h-.657v-1.4874h-1.405v-.9438h1.774v-.4924h-1.59c.195-.3693.349-.7796.452-1.2104l-.544-.0719c-.082.4412-.236.872-.441 1.2823h-1.077c-.154-.4719-.318-.8822-.503-1.2515l-.543.1026c.194.3488.369.7283.533 1.1489h-1.395v.4924h1.405v.9438h-1.118v.4616h1.118v1.0258h-1.487v.4616h1.487v1.0566h-1.2v.4617h.933c-.307.9027-.82 1.6618-1.528 2.267-.287-.4001-.636-.8001-1.046-1.2104l-.329.3282c.452.4719.821.913 1.098 1.3438l.246-.2462.216.3488c.738-.6873 1.272-1.5695 1.61-2.6363v3.0159zm.954-6.6784h-.954v-.9437h.954zm-.954 1.4883h.954v-1.0258h-.954zm2.37 0h-.923v-1.0258h.923zm-2.37 1.5181h.954v-1.0566h-.954zm2.37 0h-.923v-1.0566h.923zm-7.273 1.1587v-5.7446h2.031v5.5702h.492v-6.1036h-3.026v6.278zm.749 1.0669c-.308.636-.801 1.1284-1.488 1.4874l-.287-.4308c.656-.3386 1.128-.8002 1.405-1.3952.246-.6052.38-1.3951.4-2.3593v-3.2929h.462v3.2929c-.021 1.1284-.185 2.0208-.492 2.6979zm31.668-4.1854c.38-.595.708-1.2515.995-1.9696h2.226v-.5231h-2.041c.113-.3488.226-.7284.328-1.1182l-.533-.1128c-.308 1.272-.78 2.4209-1.426 3.4365zm6.217 4.1033c-.841.6873-1.754 1.1797-2.729 1.4772l-.318-.4206c1.067-.3488 2.011-.8617 2.831-1.549-.184-.4514-.338-.9643-.461-1.5387-.052-.2667-.093-.5335-.134-.8002l-1.764.318-.082-.5334 1.775-.318c-.062-.4924-.093-1.0156-.113-1.549l-1.508.2462-.072-.5232 1.569-.2667v-2.3696h.554v1.9696c0 .1025 0 .2051.011.3077l2.492-.4103.082.5334-2.564.4206c.02.5437.051 1.0566.102 1.5387l2.637-.4719.082.5335-2.657.4821c.021.2257.051.4309.092.636.103.5334.226 1.0053.38 1.4157.533-.513 1.005-1.0977 1.426-1.7542l.441.2872c-.513.7694-1.067 1.4259-1.662 1.9799.062.1538.133.2975.215.4308.349.5129.657.7796.924.7796.266 0 .492-.5539.687-1.6515l.482.3077c-.256 1.272-.626 1.9183-1.108 1.9183-.451-.0103-.892-.318-1.323-.9335-.103-.1641-.205-.3283-.287-.4924zm1.323-6.2678.431-.3077c-.257-.3488-.626-.7694-1.108-1.2413l-.421.2668c.462.4718.831.8924 1.098 1.2822zm-3.898 6.2781c-.677.4821-1.457.8822-2.339 1.1899l-.236-.4821c.185-.0616.277-.1436.277-.2565v-2.544h-1.518v-.5334h1.518v-1.4875h-.759v-.5129h2.349v.5129h-1.046v1.4875h1.487v.5334h-1.487v2.5235c.543-.2257 1.097-.5334 1.662-.9438z" fill="#fff" fill-rule="evenodd"/><g stroke="#fff" stroke-width=".5"><path d="m45.1274 73.1152-3.7544 7.7886"/><path d="m78.6015 73.1152-3.7543 7.7886"/><path d="m110.456 73.1152-3.754 7.7886"/><path d="m143.93 73.1152-3.754 7.7886"/><path d="m177.405 73.1152-3.755 7.7886"/></g></g></g></g></svg>