<svg width="44" height="44" viewBox="0 0 44 44" fill="none" xmlns="http://www.w3.org/2000/svg">
<g clip-path="url(#clip0_0_1825)">
<g clip-path="url(#clip1_0_1825)">
<g clip-path="url(#clip2_0_1825)">
<path fill-rule="evenodd" clip-rule="evenodd" d="M22 0C9.85 0 0 9.85 0 22C0 34.15 9.85 44 22 44C34.15 44 44 34.15 44 22C44 9.85 34.15 0 22 0Z" fill="#FD7059"/>
<path fill-rule="evenodd" clip-rule="evenodd" d="M22 0C9.85 0 0 9.85 0 22C0 34.15 9.85 44 22 44C34.15 44 44 34.15 44 22C44 9.85 34.15 0 22 0Z" fill="url(#paint0_linear_0_1825)"/>
</g>
<g clip-path="url(#clip3_0_1825)">
<mask id="mask0_0_1825" style="mask-type:luminance" maskUnits="userSpaceOnUse" x="0" y="0" width="44" height="44">
<path fill-rule="evenodd" clip-rule="evenodd" d="M22 44C34.15 44 44 34.15 44 22C44 9.85 34.15 0 22 0C9.85 0 0 9.85 0 22C0 34.15 9.85 44 22 44Z" fill="white"/>
</mask>
<g mask="url(#mask0_0_1825)">
<path fill-rule="evenodd" clip-rule="evenodd" d="M23.0138 18.4829C27.4738 12.1029 33.1838 2.00288 33.1838 2.00288C33.1838 2.00288 25.6538 -4.26712 23.3538 0.00288248C21.0538 4.26288 14.8438 14.7529 14.8438 14.7529C14.8438 14.7529 18.5638 24.8529 23.0138 18.4829Z" fill="white"/>
<path fill-rule="evenodd" clip-rule="evenodd" d="M23.0138 18.4829C27.4738 12.1029 33.1838 2.00288 33.1838 2.00288C33.1838 2.00288 25.6538 -4.26712 23.3538 0.00288248C21.0538 4.26288 14.8438 14.7529 14.8438 14.7529C14.8438 14.7529 18.5638 24.8529 23.0138 18.4829Z" fill="url(#paint1_linear_0_1825)"/>
<path fill-rule="evenodd" clip-rule="evenodd" d="M-5.7055 27.6008C-2.88077 29.8672 30.0166 47.6332 30.0166 47.6332C30.0166 47.6332 45.8181 35.2281 48.061 35.4239C40.6785 33.307 2.30121 11.7955 2.30121 11.7955C2.30121 11.7955 -8.5206 25.3372 -5.7055 27.6008Z" fill="#D84536"/>
</g>
</g>
</g>
<g clip-path="url(#clip4_0_1825)">
<g clip-path="url(#clip5_0_1825)">
<g clip-path="url(#clip6_0_1825)">
<path fill-rule="evenodd" clip-rule="evenodd" d="M8.81632 25.0247L33.5943 38.7594C33.5943 38.7594 34.0532 35.1264 33.2175 33.7256L30.3931 31.8284C29.4008 31.1641 28.5841 30.2654 28.0246 29.2121L25.3059 24.0921L24.5972 18.337C24.5081 17.5901 23.8413 17.0604 23.0954 17.1272L19.2077 17.499L15.3501 14.7433C15.0332 14.5105 14.5904 14.608 14.4013 14.9491L8.81632 25.0247Z" fill="white"/>
<path fill-rule="evenodd" clip-rule="evenodd" d="M8.81632 25.0247L33.5943 38.7594C33.5943 38.7594 34.0532 35.1264 33.2175 33.7256L30.3931 31.8284C29.4008 31.1641 28.5841 30.2654 28.0246 29.2121L25.3059 24.0921L24.5972 18.337C24.5081 17.5901 23.8413 17.0604 23.0954 17.1272L19.2077 17.499L15.3501 14.7433C15.0332 14.5105 14.5904 14.608 14.4013 14.9491L8.81632 25.0247Z" fill="url(#paint2_linear_0_1825)"/>
</g>
<g clip-path="url(#clip7_0_1825)">
<mask id="mask1_0_1825" style="mask-type:luminance" maskUnits="userSpaceOnUse" x="8" y="14" width="26" height="25">
<path fill-rule="evenodd" clip-rule="evenodd" d="M33.5943 38.7594C33.5943 38.7594 34.0532 35.1264 33.2175 33.7256L30.3931 31.8284C29.4008 31.1641 28.5841 30.2654 28.0246 29.2121L25.3059 24.0921L24.5972 18.337C24.5081 17.5901 23.8413 17.0604 23.0954 17.1272L19.2077 17.499L15.3501 14.7433C15.0332 14.5105 14.5904 14.608 14.4013 14.9491L8.81632 25.0247L33.5943 38.7594Z" fill="white"/>
</mask>
<g mask="url(#mask1_0_1825)">
<path fill-rule="evenodd" clip-rule="evenodd" d="M21.9167 25.0599C21.5418 25.1674 21.3292 25.5508 21.4367 25.9257L21.4533 25.9834C21.5676 26.3459 21.9387 26.5516 22.2944 26.4496L25.8072 25.4944C26.182 25.3869 26.3946 25.0034 26.2871 24.6285L26.2706 24.5709C26.1562 24.2083 25.7851 24.0027 25.4295 24.1046L21.9167 25.0599Z" fill="#FC7C52"/>
<path fill-rule="evenodd" clip-rule="evenodd" d="M23.6657 27.1458C23.2908 27.2533 23.0783 27.6368 23.1858 28.0117L23.2023 28.0693C23.3167 28.4319 23.6877 28.6375 24.0434 28.5356L27.5562 27.5803C27.9311 27.4728 28.1436 27.0894 28.0361 26.7145L28.0196 26.6568C27.9052 26.2943 27.5342 26.0886 27.1785 26.1906L23.6657 27.1458Z" fill="#FC7C52"/>
<path fill-rule="evenodd" clip-rule="evenodd" d="M26.1721 29.137C25.7972 29.2445 25.5846 29.628 25.6921 30.0029L25.7087 30.0605C25.823 30.4231 26.1941 30.6288 26.5497 30.5268L30.0625 29.5715C30.4374 29.464 30.65 29.0806 30.5425 28.7057L30.5259 28.648C30.4116 28.2855 30.0405 28.0798 29.6848 28.1818L26.1721 29.137Z" fill="#FC7C52"/>
</g>
</g>
</g>
<g clip-path="url(#clip8_0_1825)">
<path fill-rule="evenodd" clip-rule="evenodd" d="M8.4541 25.6787L33.2359 39.4155C32.713 40.3589 31.5243 40.6998 30.5809 40.1768L8.1807 27.7602C7.80876 27.554 7.67437 27.0854 7.88054 26.7134L8.4541 25.6787Z" fill="white"/>
<path fill-rule="evenodd" clip-rule="evenodd" d="M8.4541 25.6787L33.2359 39.4155C32.713 40.3589 31.5243 40.6998 30.5809 40.1768L8.1807 27.7602C7.80876 27.554 7.67437 27.0854 7.88054 26.7134L8.4541 25.6787Z" fill="url(#paint3_linear_0_1825)"/>
</g>
</g>
</g>
<defs>
<linearGradient id="paint0_linear_0_1825" x1="0" y1="0" x2="0" y2="44" gradientUnits="userSpaceOnUse">
<stop stop-color="#FDAD59"/>
<stop offset="1" stop-color="#FC584D"/>
</linearGradient>
<linearGradient id="paint1_linear_0_1825" x1="13.6416" y1="9.98192" x2="23.0772" y2="21.0824" gradientUnits="userSpaceOnUse">
<stop stop-color="white" stop-opacity="0.502"/>
<stop offset="1" stop-color="#FC7751"/>
<stop offset="1" stop-color="#FC7751"/>
</linearGradient>
<linearGradient id="paint2_linear_0_1825" x1="12.4115" y1="15.5934" x2="6.0929" y2="30.0211" gradientUnits="userSpaceOnUse">
<stop stop-color="white" stop-opacity="0.502"/>
<stop offset="1" stop-color="#FC7751"/>
<stop offset="1" stop-color="#FC7751"/>
</linearGradient>
<linearGradient id="paint3_linear_0_1825" x1="-47.9876" y1="-12.5825" x2="-53.4763" y2="-2.68702" gradientUnits="userSpaceOnUse">
<stop stop-color="white" stop-opacity="0.502"/>
<stop offset="1" stop-color="#FC7751"/>
<stop offset="1" stop-color="#FC7751"/>
</linearGradient>
<clipPath id="clip0_0_1825">
<rect width="44" height="44" fill="white"/>
</clipPath>
<clipPath id="clip1_0_1825">
<rect width="44" height="44" fill="white"/>
</clipPath>
<clipPath id="clip2_0_1825">
<rect width="44" height="44" fill="white"/>
</clipPath>
<clipPath id="clip3_0_1825">
<rect width="43.9996" height="43.9993" fill="white"/>
</clipPath>
<clipPath id="clip4_0_1825">
<rect width="28.3344" height="16.7705" fill="white" transform="translate(15.6377 12.7188) rotate(29)"/>
</clipPath>
<clipPath id="clip5_0_1825">
<rect width="28.3342" height="14.0701" fill="white" transform="translate(15.6377 12.7188) rotate(29)"/>
</clipPath>
<clipPath id="clip6_0_1825">
<rect width="28.33" height="14.07" fill="white" transform="translate(15.6377 12.7188) rotate(29)"/>
</clipPath>
<clipPath id="clip7_0_1825">
<rect width="28.3342" height="14.0659" fill="white" transform="translate(15.6377 12.7188) rotate(29)"/>
</clipPath>
<clipPath id="clip8_0_1825">
<rect width="28.3344" height="1.95306" fill="white" transform="translate(8.4541 25.6787) rotate(29)"/>
</clipPath>
</defs>
</svg>
