<svg fill="none" height="44" viewBox="0 0 44 44" width="44" xmlns="http://www.w3.org/2000/svg" xmlns:xlink="http://www.w3.org/1999/xlink"><linearGradient id="a" gradientUnits="userSpaceOnUse" x1="47.8355" x2="47.8355" y1="44" y2="-7.67097"><stop offset="0" stop-color="#7381ff"/><stop offset="1" stop-color="#8e99fc"/></linearGradient><linearGradient id="b" gradientUnits="userSpaceOnUse" x1="13.9526" x2="21.0013" y1="27.1344" y2="50.204"><stop offset="0" stop-color="#fff" stop-opacity=".502"/><stop offset="1" stop-color="#5f6df3"/><stop offset="1" stop-color="#fc7751"/></linearGradient><linearGradient id="c" gradientUnits="userSpaceOnUse" x1="39.9883" x2="32.1238" y1="19.5332" y2="-.258916"><stop offset="0" stop-color="#fff" stop-opacity=".01"/><stop offset="1" stop-color="#a1aaff"/></linearGradient><linearGradient id="d" gradientUnits="userSpaceOnUse" x1="29.2301" x2="30.1539" y1="26.1948" y2="19.6723"><stop offset="0" stop-color="#fff" stop-opacity=".01"/><stop offset="1" stop-color="#3949dd"/></linearGradient><linearGradient id="e" gradientUnits="userSpaceOnUse" x1="30.1726" x2="31.0903" y1="20.5457" y2="25.916"><stop offset="0" stop-color="#fff" stop-opacity=".502"/><stop offset="1" stop-color="#5f6df3"/></linearGradient><clipPath id="f"><path d="m0 0h44v44h-44z"/></clipPath><clipPath id="g"><path d="m0 0h44v44h-44z"/></clipPath><clipPath id="h"><path d="m0 0h44v44h-44z"/></clipPath><clipPath id="i"><path d="m0 0h44v44h-44z"/></clipPath><clipPath id="j"><path d="m0 0h43.9996v43.9996h-43.9996z"/></clipPath><clipPath id="k"><path d="m11.3086 10.751h22.4663v21.7828h-22.4663z"/></clipPath><clipPath id="l"><path d="m11.3086 10.751h20.6721v21.7828h-20.6721z"/></clipPath><clipPath id="m"><path d="m11.3086 10.751h20.67v21.78h-20.67z"/></clipPath><clipPath id="n"><path d="m11.3086 10.751h20.6721v21.7827h-20.6721z"/></clipPath><clipPath id="o"><path d="m19.9609 21.9717h9.80746v7.21251h-9.80746z"/></clipPath><clipPath id="p"><path d="m29.7954 20.0869h3.97939v3.97939h-3.97939z"/></clipPath><mask id="q" height="44" maskUnits="userSpaceOnUse" width="44" x="0" y="0"><path clip-rule="evenodd" d="m22 44c12.15 0 22-9.85 22-22s-9.85-22-22-22-22 9.85-22 22 9.85 22 22 22z" fill="#fff" fill-rule="evenodd"/></mask><mask height="23" maskUnits="userSpaceOnUse" width="21" x="11" y="10"><path clip-rule="evenodd" d="m22.1186 32.531c4.07 0 7.76-2.26 9.62-5.91l-6.91-4.65 7.15-4.8c-1.74-3.9-5.61-6.42-9.86-6.42-2.89 0-5.6 1.13-7.64 3.19s-3.17 4.79-3.17 7.7c0 6.01 4.85 10.89 10.81 10.89zm-1.0636-15.1616c.27 0 .5-.22.5-.5v-.75h.75c.28 0 .5-.23.5-.5v-.26c0-.27-.22-.5-.5-.5h-.75v-.75c0-.28-.23-.5-.5-.5h-.26c-.27 0-.5.22-.5.5v.75h-.75c-.28 0-.5.23-.5.5v.26c0 .27.22.5.5.5h.75v.75c0 .28.23.5.5.5z" fill="#fff" fill-rule="evenodd"/></mask><g clip-path="url(#f)"><g clip-path="url(#g)"><g clip-path="url(#h)"><g clip-path="url(#i)" clip-rule="evenodd" fill-rule="evenodd"><path d="m22 0c-12.15 0-22 9.85-22 22s9.85 22 22 22 22-9.85 22-22-9.85-22-22-22z" fill="#6236ff"/><path d="m22 0c-12.15 0-22 9.85-22 22s9.85 22 22 22 22-9.85 22-22-9.85-22-22-22z" fill="url(#a)"/></g><g clip-path="url(#j)"><g clip-rule="evenodd" fill="#2632a2" fill-rule="evenodd" mask="url(#q)"><path d="m-5.56055 16.3323 3.35 25.93 11.24-10.05v-31.1l-12.23 8.32z" opacity=".24"/><path d="m35.5869 31.94 11.24 10.32 3.35-26.63-2.36-7.08-12.23-8.55z" opacity=".24"/></g></g></g><g clip-path="url(#k)"><g clip-path="url(#l)"><g clip-path="url(#m)" clip-rule="evenodd" fill-rule="evenodd"><path d="m21.5569 14.111c0-.2762-.2239-.5-.5-.5h-.2542c-.2761 0-.5.2238-.5.5v.7541h-.7541c-.2762 0-.5.2239-.5.5v.2542c0 .2762.2238.5.5.5h.7541v.7542c0 .2761.2239.5.5.5h.2542c.2761 0 .5-.2239.5-.5v-.7542h.7542c.2761 0 .5-.2238.5-.5v-.2542c0-.2761-.2239-.5-.5-.5h-.7542zm.5617-3.36c-5.97 0-10.81 4.88-10.81 10.89 0 6.02 4.84 10.89 10.81 10.89s10.82-4.87 10.82-10.89c0-6.01-4.85-10.89-10.82-10.89zm18.9236.3318-16.22 10.89 16.22 10.89z" fill="#fff"/><path d="m21.5569 14.111c0-.2762-.2239-.5-.5-.5h-.2542c-.2761 0-.5.2238-.5.5v.7541h-.7541c-.2762 0-.5.2239-.5.5v.2542c0 .2762.2238.5.5.5h.7541v.7542c0 .2761.2239.5.5.5h.2542c.2761 0 .5-.2239.5-.5v-.7542h.7542c.2761 0 .5-.2238.5-.5v-.2542c0-.2761-.2239-.5-.5-.5h-.7542zm.5617-3.36c-5.97 0-10.81 4.88-10.81 10.89 0 6.02 4.84 10.89 10.81 10.89s10.82-4.87 10.82-10.89c0-6.01-4.85-10.89-10.82-10.89zm18.9236.3318-16.22 10.89 16.22 10.89z" fill="url(#b)"/><path d="m21.5569 14.111c0-.2762-.2239-.5-.5-.5h-.2542c-.2761 0-.5.2238-.5.5v.7541h-.7541c-.2762 0-.5.2239-.5.5v.2542c0 .2762.2238.5.5.5h.7541v.7542c0 .2761.2239.5.5.5h.2542c.2761 0 .5-.2239.5-.5v-.7542h.7542c.2761 0 .5-.2238.5-.5v-.2542c0-.2761-.2239-.5-.5-.5h-.7542zm.5617-3.36c-5.97 0-10.81 4.88-10.81 10.89 0 6.02 4.84 10.89 10.81 10.89s10.82-4.87 10.82-10.89c0-6.01-4.85-10.89-10.82-10.89zm18.9236.3318-16.22 10.89 16.22 10.89z" fill="url(#c)"/></g><g clip-path="url(#n)"><g clip-path="url(#o)" opacity=".88"><path clip-rule="evenodd" d="m21.1909 29.1817 4.21-.73 4.37-5.06-2.84-1.42h-2.11l-4.86 3.61z" fill="url(#d)" fill-rule="evenodd"/></g></g></g><g clip-path="url(#p)" clip-rule="evenodd" fill-rule="evenodd"><path d="m31.7854 20.0869c-1.1 0-1.99.89-1.99 1.99s.89 1.99 1.99 1.99 1.99-.89 1.99-1.99-.89-1.99-1.99-1.99z" fill="#fff"/><path d="m31.7854 20.0869c-1.1 0-1.99.89-1.99 1.99s.89 1.99 1.99 1.99 1.99-.89 1.99-1.99-.89-1.99-1.99-1.99z" fill="url(#e)"/></g></g></g></g></svg>