<svg width="44" height="44" viewBox="0 0 44 44" fill="none" xmlns="http://www.w3.org/2000/svg">
<g clip-path="url(#clip0_0_1782)">
<path fill-rule="evenodd" clip-rule="evenodd" d="M22.2397 18.9502C21.6597 18.9502 21.1797 19.4302 21.1797 20.0102C21.1797 20.6002 21.6597 21.0802 22.2397 21.0802C22.8297 21.0802 23.3097 20.6002 23.3097 20.0102C23.3097 19.4302 22.8297 18.9502 22.2397 18.9502Z" fill="#FFB9A6"/>
<g clip-path="url(#clip1_0_1782)">
<g clip-path="url(#clip2_0_1782)">
<path fill-rule="evenodd" clip-rule="evenodd" d="M22 0C9.85 0 0 9.85 0 22C0 34.15 9.85 44 22 44C34.15 44 44 34.15 44 22C44 9.85 34.15 0 22 0Z" fill="#36BE20"/>
<path fill-rule="evenodd" clip-rule="evenodd" d="M22 0C9.85 0 0 9.85 0 22C0 34.15 9.85 44 22 44C34.15 44 44 34.15 44 22C44 9.85 34.15 0 22 0Z" fill="url(#paint0_linear_0_1782)"/>
</g>
<g clip-path="url(#clip3_0_1782)">
<mask id="mask0_0_1782" style="mask-type:luminance" maskUnits="userSpaceOnUse" x="0" y="0" width="44" height="44">
<path fill-rule="evenodd" clip-rule="evenodd" d="M22 44C34.15 44 44 34.15 44 22C44 9.85 34.15 0 22 0C9.85 0 0 9.85 0 22C0 34.15 9.85 44 22 44Z" fill="white"/>
</mask>
<g mask="url(#mask0_0_1782)">
<path fill-rule="evenodd" clip-rule="evenodd" d="M21.6812 25.5781C4.18121 25.5781 -10.0088 32.2981 -10.0088 40.5881C-10.0088 48.8781 4.18121 55.6081 21.6812 55.6081C39.1912 55.6081 53.3812 48.8781 53.3812 40.5881C53.3812 32.2981 39.1912 25.5781 21.6812 25.5781Z" fill="#3EB217"/>
</g>
</g>
</g>
<g clip-path="url(#clip4_0_1782)">
<g clip-path="url(#clip5_0_1782)">
<path fill-rule="evenodd" clip-rule="evenodd" d="M24.0893 19.2832C23.3093 19.2832 22.6693 19.9232 22.6693 20.7032C22.6693 21.4832 23.3093 22.1132 24.0893 22.1132C24.8693 22.1132 25.4993 21.4832 25.4993 20.7032C25.4993 19.9232 24.8693 19.2832 24.0893 19.2832ZM28.8142 23.0582C29.5942 23.0582 30.2242 22.4282 30.2242 21.6482C30.2242 20.8682 29.5942 20.2282 28.8142 20.2282C28.0342 20.2282 27.3942 20.8682 27.3942 21.6482C27.3942 22.4282 28.0342 23.0582 28.8142 23.0582ZM22.468 31C22.868 29.67 22.538 28.6 21.078 27.99C19.608 27.37 19.478 25.08 20.518 24.16C21.548 23.24 22.848 23.06 23.988 23.08C27.038 23.13 28.338 24.41 28.338 27.71C28.338 30.75 27.318 33.46 24.428 33.46C22.748 33.46 22.078 32.32 22.468 31Z" fill="#83F262"/>
</g>
</g>
<g clip-path="url(#clip6_0_1782)">
<path fill-rule="evenodd" clip-rule="evenodd" d="M21.8482 24.1068C24.1082 25.0568 24.6082 26.6968 23.9982 28.7368C23.3982 30.7768 24.4282 32.5268 27.0082 32.5268C31.4582 32.5268 33.0282 28.3568 33.0282 23.6868C33.0282 18.6068 31.0282 16.6268 26.3282 16.5568C24.5782 16.5268 22.5882 16.7968 20.9882 18.2168C19.3982 19.6268 19.5982 23.1568 21.8482 24.1068Z" fill="white"/>
<path fill-rule="evenodd" clip-rule="evenodd" d="M21.8482 24.1068C24.1082 25.0568 24.6082 26.6968 23.9982 28.7368C23.3982 30.7768 24.4282 32.5268 27.0082 32.5268C31.4582 32.5268 33.0282 28.3568 33.0282 23.6868C33.0282 18.6068 31.0282 16.6268 26.3282 16.5568C24.5782 16.5268 22.5882 16.7968 20.9882 18.2168C19.3982 19.6268 19.5982 23.1568 21.8482 24.1068Z" fill="url(#paint1_linear_0_1782)"/>
</g>
<path fill-rule="evenodd" clip-rule="evenodd" d="M14.9738 19.2832C15.7538 19.2832 16.3938 19.9232 16.3938 20.7032C16.3938 21.4832 15.7538 22.1132 14.9738 22.1132C14.1938 22.1132 13.5638 21.4832 13.5638 20.7032C13.5638 19.9232 14.1938 19.2832 14.9738 19.2832ZM10.2488 23.0582C9.46882 23.0582 8.83882 22.4282 8.83882 21.6482C8.83882 20.8682 9.46882 20.2282 10.2488 20.2282C11.0288 20.2282 11.6688 20.8682 11.6688 21.6482C11.6688 22.4282 11.0288 23.0582 10.2488 23.0582ZM16.595 31C16.195 29.67 16.525 28.6 17.985 27.99C19.455 27.37 19.585 25.08 18.545 24.16C17.515 23.24 16.215 23.06 15.075 23.08C12.025 23.13 10.725 24.41 10.725 27.71C10.725 30.75 11.745 33.46 14.635 33.46C16.315 33.46 16.985 32.32 16.595 31Z" fill="url(#paint2_linear_0_1782)"/>
<path opacity="0.56" d="M22.6851 22.8994C22.6851 22.8994 24.1384 23.3339 24.8558 24.9015" stroke="#49C724" stroke-linecap="round"/>
<g clip-path="url(#clip7_0_1782)">
<path fill-rule="evenodd" clip-rule="evenodd" d="M15.6099 12.9901C15.6099 14.5901 16.9099 15.9001 18.5199 15.9001C20.1199 15.9001 21.4299 14.5901 21.4299 12.9901C21.4299 11.3801 20.1199 10.0801 18.5199 10.0801C16.9099 10.0801 15.6099 11.3801 15.6099 12.9901ZM26.5129 10.0801C25.3129 10.0801 24.3329 11.0601 24.3329 12.2601C24.3329 13.4601 25.3129 14.4401 26.5129 14.4401C27.7129 14.4401 28.6929 13.4601 28.6929 12.2601C28.6929 11.0601 27.7129 10.0801 26.5129 10.0801ZM35.9621 13.7139C35.9621 14.9139 34.9821 15.8939 33.7821 15.8939C32.5821 15.8939 31.6021 14.9139 31.6021 13.7139C31.6021 12.5139 32.5821 11.5339 33.7821 11.5339C34.9821 11.5339 35.9621 12.5139 35.9621 13.7139Z" fill="white"/>
<path fill-rule="evenodd" clip-rule="evenodd" d="M15.6099 12.9901C15.6099 14.5901 16.9099 15.9001 18.5199 15.9001C20.1199 15.9001 21.4299 14.5901 21.4299 12.9901C21.4299 11.3801 20.1199 10.0801 18.5199 10.0801C16.9099 10.0801 15.6099 11.3801 15.6099 12.9901ZM26.5129 10.0801C25.3129 10.0801 24.3329 11.0601 24.3329 12.2601C24.3329 13.4601 25.3129 14.4401 26.5129 14.4401C27.7129 14.4401 28.6929 13.4601 28.6929 12.2601C28.6929 11.0601 27.7129 10.0801 26.5129 10.0801ZM35.9621 13.7139C35.9621 14.9139 34.9821 15.8939 33.7821 15.8939C32.5821 15.8939 31.6021 14.9139 31.6021 13.7139C31.6021 12.5139 32.5821 11.5339 33.7821 11.5339C34.9821 11.5339 35.9621 12.5139 35.9621 13.7139Z" fill="url(#paint3_linear_0_1782)"/>
</g>
</g>
<defs>
<linearGradient id="paint0_linear_0_1782" x1="1.52585" y1="3.05169" x2="1.52585" y2="44" gradientUnits="userSpaceOnUse">
<stop stop-color="#54CB2B"/>
<stop offset="1" stop-color="#37C019"/>
</linearGradient>
<linearGradient id="paint1_linear_0_1782" x1="19.0287" y1="20.8654" x2="25.7816" y2="34.019" gradientUnits="userSpaceOnUse">
<stop stop-color="white" stop-opacity="0.502"/>
<stop offset="1" stop-color="#B9FFA6"/>
</linearGradient>
<linearGradient id="paint2_linear_0_1782" x1="19.2241" y1="19.2832" x2="19.2241" y2="33.46" gradientUnits="userSpaceOnUse">
<stop stop-color="white" stop-opacity="0.502"/>
<stop offset="1" stop-color="#B9FFA6"/>
</linearGradient>
<linearGradient id="paint3_linear_0_1782" x1="17.8834" y1="10.0801" x2="17.8834" y2="14.5997" gradientUnits="userSpaceOnUse">
<stop stop-color="white" stop-opacity="0.502"/>
<stop offset="1" stop-color="#B9FFA6"/>
</linearGradient>
<clipPath id="clip0_0_1782">
<rect width="44" height="44" fill="white"/>
</clipPath>
<clipPath id="clip1_0_1782">
<rect width="44" height="44" fill="white"/>
</clipPath>
<clipPath id="clip2_0_1782">
<rect width="44" height="44" fill="white"/>
</clipPath>
<clipPath id="clip3_0_1782">
<rect width="43.9996" height="43.9996" fill="white"/>
</clipPath>
<clipPath id="clip4_0_1782">
<rect width="10.39" height="14.17" fill="white" transform="translate(9.44727 19.2832)"/>
</clipPath>
<clipPath id="clip5_0_1782">
<rect width="10.39" height="14.17" fill="white" transform="translate(9.44727 19.2832)"/>
</clipPath>
<clipPath id="clip6_0_1782">
<rect width="13.08" height="15.97" fill="white" transform="translate(19.9482 16.5566)"/>
</clipPath>
<clipPath id="clip7_0_1782">
<rect width="20.35" height="5.82" fill="white" transform="translate(15.6099 10.0801)"/>
</clipPath>
</defs>
</svg>
