<svg width="44" height="44" viewBox="0 0 44 44" fill="none" xmlns="http://www.w3.org/2000/svg">
<g clip-path="url(#clip0_0_1859)">
<g clip-path="url(#clip1_0_1859)">
<g clip-path="url(#clip2_0_1859)">
<path fill-rule="evenodd" clip-rule="evenodd" d="M22 0C9.85 0 0 9.85 0 22C0 34.15 9.85 44 22 44C34.15 44 44 34.15 44 22C44 9.85 34.15 0 22 0Z" fill="#FD7059"/>
<path fill-rule="evenodd" clip-rule="evenodd" d="M22 0C9.85 0 0 9.85 0 22C0 34.15 9.85 44 22 44C34.15 44 44 34.15 44 22C44 9.85 34.15 0 22 0Z" fill="url(#paint0_linear_0_1859)"/>
</g>
<g clip-path="url(#clip3_0_1859)">
<mask id="mask0_0_1859" style="mask-type:luminance" maskUnits="userSpaceOnUse" x="0" y="0" width="44" height="44">
<path fill-rule="evenodd" clip-rule="evenodd" d="M22 44C34.15 44 44 34.15 44 22C44 9.85 34.15 0 22 0C9.85 0 0 9.85 0 22C0 34.15 9.85 44 22 44Z" fill="white"/>
</mask>
<g mask="url(#mask0_0_1859)">
<path fill-rule="evenodd" clip-rule="evenodd" d="M-4.44824 23.3535H48.932V40.0348H-4.44824V23.3535Z" fill="#E97F23"/>
<path fill-rule="evenodd" clip-rule="evenodd" d="M5.56055 23.3516H10.0105L7.78055 16.6816L5.56055 23.3516Z" fill="#E97F23"/>
<path fill-rule="evenodd" clip-rule="evenodd" d="M35.5869 24.4647H40.0369L37.8069 13.3447L35.5869 24.4647Z" fill="#E97F23"/>
</g>
</g>
</g>
<g clip-path="url(#clip4_0_1859)">
<g clip-path="url(#clip5_0_1859)">
<g clip-path="url(#clip6_0_1859)">
<path fill-rule="evenodd" clip-rule="evenodd" d="M10.4722 30.2963C10.4722 31.9563 11.8122 33.2963 13.4722 33.2963H32.2022C33.8522 33.2963 35.2022 31.9563 35.2022 30.2963V16.8163C35.2022 14.5363 33.3522 12.6963 31.0722 12.6963H14.5922C12.3122 12.6963 10.4722 14.5363 10.4722 16.8163V30.2963Z" fill="white"/>
<path fill-rule="evenodd" clip-rule="evenodd" d="M10.4722 30.2963C10.4722 31.9563 11.8122 33.2963 13.4722 33.2963H32.2022C33.8522 33.2963 35.2022 31.9563 35.2022 30.2963V16.8163C35.2022 14.5363 33.3522 12.6963 31.0722 12.6963H14.5922C12.3122 12.6963 10.4722 14.5363 10.4722 16.8163V30.2963Z" fill="url(#paint1_linear_0_1859)"/>
</g>
<g clip-path="url(#clip7_0_1859)">
<mask id="mask1_0_1859" style="mask-type:luminance" maskUnits="userSpaceOnUse" x="10" y="12" width="26" height="22">
<path fill-rule="evenodd" clip-rule="evenodd" d="M32.2022 33.2963C33.8522 33.2963 35.1922 31.9563 35.1922 30.2963V16.8163C35.1922 14.5363 33.3522 12.6963 31.0722 12.6963H14.5922C12.3122 12.6963 10.4722 14.5363 10.4722 16.8163V30.2963C10.4722 31.9563 11.8122 33.2963 13.4722 33.2963H32.2022Z" fill="white"/>
</mask>
<g mask="url(#mask1_0_1859)">
<g opacity="0.49">
<path fill-rule="evenodd" clip-rule="evenodd" d="M10.4711 20.4911H35.2011V18.8411C35.2011 15.4011 35.6811 12.6211 33.4011 12.6211H11.3411C9.06114 12.6211 10.4711 15.4011 10.4711 18.8411V20.4911Z" fill="white"/>
<path fill-rule="evenodd" clip-rule="evenodd" d="M10.4711 20.4911H35.2011V18.8411C35.2011 15.4011 35.6811 12.6211 33.4011 12.6211H11.3411C9.06114 12.6211 10.4711 15.4011 10.4711 18.8411V20.4911Z" fill="url(#paint2_linear_0_1859)"/>
</g>
</g>
</g>
</g>
<path fill-rule="evenodd" clip-rule="evenodd" d="M10.4722 21.5083H20.5822V25.2883C20.5822 25.2883 20.5422 26.6583 22.8322 26.6583C22.8322 26.6583 25.0722 26.7883 25.0722 25.2883V21.5283H35.1822V20.4883H35.2022H10.4722V21.5083Z" fill="#FD8B26"/>
<path opacity="0.82" fill-rule="evenodd" clip-rule="evenodd" d="M23.8601 24.8794C23.8601 24.3194 23.4001 23.8594 22.8301 23.8594C22.2701 23.8594 21.8101 24.3194 21.8101 24.8794C21.8101 25.4494 22.2701 25.9094 22.8301 25.9094C23.4001 25.9094 23.8601 25.4494 23.8601 24.8794Z" fill="white"/>
</g>
</g>
<defs>
<linearGradient id="paint0_linear_0_1859" x1="1.89667" y1="-1.60097" x2="-1.30528" y2="45.0096" gradientUnits="userSpaceOnUse">
<stop stop-color="#FFD54C"/>
<stop offset="1" stop-color="#FC8020"/>
</linearGradient>
<linearGradient id="paint1_linear_0_1859" x1="0.235896" y1="35.4805" x2="28.9452" y2="46.9605" gradientUnits="userSpaceOnUse">
<stop stop-color="white" stop-opacity="0.502"/>
<stop offset="1" stop-color="#FEB43B"/>
</linearGradient>
<linearGradient id="paint2_linear_0_1859" x1="7.62633" y1="13.7972" x2="7.94333" y2="22.4603" gradientUnits="userSpaceOnUse">
<stop stop-color="white" stop-opacity="0.502"/>
<stop offset="1" stop-color="#FEB43B"/>
</linearGradient>
<clipPath id="clip0_0_1859">
<rect width="44" height="44" fill="white"/>
</clipPath>
<clipPath id="clip1_0_1859">
<rect width="44" height="44" fill="white"/>
</clipPath>
<clipPath id="clip2_0_1859">
<rect width="44" height="44" fill="white"/>
</clipPath>
<clipPath id="clip3_0_1859">
<rect width="43.9996" height="43.9996" fill="white"/>
</clipPath>
<clipPath id="clip4_0_1859">
<rect width="24.73" height="20.604" fill="white" transform="translate(10.4722 12.6963)"/>
</clipPath>
<clipPath id="clip5_0_1859">
<rect width="24.73" height="20.604" fill="white" transform="translate(10.4722 12.6963)"/>
</clipPath>
<clipPath id="clip6_0_1859">
<rect width="24.73" height="20.6" fill="white" transform="translate(10.4722 12.6963)"/>
</clipPath>
<clipPath id="clip7_0_1859">
<rect width="24.7248" height="20.6037" fill="white" transform="translate(10.4722 12.6963)"/>
</clipPath>
</defs>
</svg>
