<svg width="44" height="44" viewBox="0 0 44 44" fill="none" xmlns="http://www.w3.org/2000/svg">
<g clip-path="url(#clip0_0_1943)">
<g clip-path="url(#clip1_0_1943)">
<g clip-path="url(#clip2_0_1943)">
<path fill-rule="evenodd" clip-rule="evenodd" d="M22 0C9.85 0 0 9.85 0 22C0 34.15 9.85 44 22 44C34.15 44 44 34.15 44 22C44 9.85 34.15 0 22 0Z" fill="#00D9BF"/>
<path fill-rule="evenodd" clip-rule="evenodd" d="M22 0C9.85 0 0 9.85 0 22C0 34.15 9.85 44 22 44C34.15 44 44 34.15 44 22C44 9.85 34.15 0 22 0Z" fill="#01CAB7"/>
</g>
<g clip-path="url(#clip3_0_1943)">
<mask id="mask0_0_1943" style="mask-type:luminance" maskUnits="userSpaceOnUse" x="0" y="0" width="44" height="44">
<path fill-rule="evenodd" clip-rule="evenodd" d="M22 44C34.15 44 44 34.15 44 22C44 9.85 34.15 0 22 0C9.85 0 0 9.85 0 22C0 34.15 9.85 44 22 44Z" fill="white"/>
</mask>
<g mask="url(#mask0_0_1943)">
<path fill-rule="evenodd" clip-rule="evenodd" d="M38.3717 18.9053C29.4617 18.9053 22.2417 26.1253 22.2417 35.0353C22.2417 43.9353 29.4617 51.1553 38.3717 51.1553C47.2717 51.1553 54.4917 43.9353 54.4917 35.0353C54.4917 26.1253 47.2717 18.9053 38.3717 18.9053Z" fill="#06BAA9"/>
<path fill-rule="evenodd" clip-rule="evenodd" d="M5.55945 -2.22461C-0.580547 -2.22461 -5.56055 2.75539 -5.56055 8.89539C-5.56055 15.0354 -0.580547 20.0154 5.55945 20.0154C11.6995 20.0154 16.6795 15.0354 16.6795 8.89539C16.6795 2.75539 11.6995 -2.22461 5.55945 -2.22461Z" fill="#06BAA9"/>
</g>
</g>
</g>
<g clip-path="url(#clip4_0_1943)">
<g clip-path="url(#clip5_0_1943)">
<g clip-path="url(#clip6_0_1943)">
<g clip-path="url(#clip7_0_1943)">
<g clip-path="url(#clip8_0_1943)">
<path fill-rule="evenodd" clip-rule="evenodd" d="M24.4313 13.2344H20.9082V15.1459C20.9082 16.2505 20.0127 17.1459 18.9082 17.1459H18.6082C17.5036 17.1459 16.6082 16.2505 16.6082 15.1459V13.2344H13.5312C12.4267 13.2344 11.5312 14.1298 11.5312 15.2344V29.5094C11.5312 30.6139 12.4267 31.5094 13.5313 31.5094H31.8697C32.9743 31.5094 33.8697 30.6139 33.8697 29.5094V15.2344C33.8697 14.1298 32.9743 13.2344 31.8697 13.2344H28.7313V15.1459C28.7313 16.2505 27.8358 17.1459 26.7313 17.1459H26.4313C25.3267 17.1459 24.4313 16.2505 24.4313 15.1459V13.2344Z" fill="white"/>
<path fill-rule="evenodd" clip-rule="evenodd" d="M24.4313 13.2344H20.9082V15.1459C20.9082 16.2505 20.0127 17.1459 18.9082 17.1459H18.6082C17.5036 17.1459 16.6082 16.2505 16.6082 15.1459V13.2344H13.5312C12.4267 13.2344 11.5312 14.1298 11.5312 15.2344V29.5094C11.5312 30.6139 12.4267 31.5094 13.5313 31.5094H31.8697C32.9743 31.5094 33.8697 30.6139 33.8697 29.5094V15.2344C33.8697 14.1298 32.9743 13.2344 31.8697 13.2344H28.7313V15.1459C28.7313 16.2505 27.8358 17.1459 26.7313 17.1459H26.4313C25.3267 17.1459 24.4313 16.2505 24.4313 15.1459V13.2344Z" fill="url(#paint0_linear_0_1943)"/>
</g>
<g clip-path="url(#clip9_0_1943)">
<mask id="mask1_0_1943" style="mask-type:luminance" maskUnits="userSpaceOnUse" x="11" y="13" width="23" height="19">
<path fill-rule="evenodd" clip-rule="evenodd" d="M31.8713 31.5144C32.9713 31.5144 33.8713 30.6144 33.8713 29.5144V15.2344C33.8713 14.1344 32.9713 13.2344 31.8713 13.2344H28.7313V15.1444C28.7313 16.2544 27.8312 17.1444 26.7312 17.1444H26.4312C25.3312 17.1444 24.4312 16.2544 24.4312 15.1444V13.2344H20.9113V15.1444C20.9113 16.2544 20.0113 17.1444 18.9113 17.1444H18.6112C17.5012 17.1444 16.6112 16.2544 16.6112 15.1444V13.2344H13.5312C12.4312 13.2344 11.5312 14.1344 11.5312 15.2344V29.5144C11.5312 30.6144 12.4312 31.5144 13.5312 31.5144H31.8713Z" fill="white"/>
</mask>
<g mask="url(#mask1_0_1943)">
</g>
<g clip-path="url(#clip10_0_1943)">
<path fill-rule="evenodd" clip-rule="evenodd" d="M11.5312 12.2012H34.1063V19.7262H11.5312V12.2012Z" fill="url(#paint1_linear_0_1943)"/>
</g>
</g>
</g>
<g clip-path="url(#clip11_0_1943)">
<path fill-rule="evenodd" clip-rule="evenodd" d="M17.3154 12.7637C17.3154 11.9417 17.9818 11.2754 18.8038 11.2754C19.6258 11.2754 20.2921 11.9417 20.2921 12.7637V15.0129C20.2921 15.8349 19.6258 16.5012 18.8038 16.5012C17.9818 16.5012 17.3154 15.8349 17.3154 15.0129V12.7637Z" fill="white"/>
<path fill-rule="evenodd" clip-rule="evenodd" d="M17.3154 12.7637C17.3154 11.9417 17.9818 11.2754 18.8038 11.2754C19.6258 11.2754 20.2921 11.9417 20.2921 12.7637V15.0129C20.2921 15.8349 19.6258 16.5012 18.8038 16.5012C17.9818 16.5012 17.3154 15.8349 17.3154 15.0129V12.7637Z" fill="url(#paint2_linear_0_1943)"/>
</g>
<g clip-path="url(#clip12_0_1943)">
<path fill-rule="evenodd" clip-rule="evenodd" d="M25.1382 12.7637C25.1382 11.9417 25.8045 11.2754 26.6265 11.2754C27.4485 11.2754 28.1149 11.9417 28.1149 12.7637V15.0129C28.1149 15.8349 27.4485 16.5012 26.6265 16.5012C25.8045 16.5012 25.1382 15.8349 25.1382 15.0129V12.7637Z" fill="white"/>
<path fill-rule="evenodd" clip-rule="evenodd" d="M25.1382 12.7637C25.1382 11.9417 25.8045 11.2754 26.6265 11.2754C27.4485 11.2754 28.1149 11.9417 28.1149 12.7637V15.0129C28.1149 15.8349 27.4485 16.5012 26.6265 16.5012C25.8045 16.5012 25.1382 15.8349 25.1382 15.0129V12.7637Z" fill="url(#paint3_linear_0_1943)"/>
</g>
</g>
</g>
<g clip-path="url(#clip13_0_1943)">
<path fill-rule="evenodd" clip-rule="evenodd" d="M20.4925 23.8586L19.6219 24.5152L22.4588 28.347C23.1418 26.8509 25.1193 23.9823 27.4086 22.0244L27.2629 21.5097C24.8457 22.8642 23.0095 24.6911 22.1761 25.612L20.4925 23.8586Z" fill="#01CAB7"/>
</g>
</g>
</g>
<defs>
<linearGradient id="paint0_linear_0_1943" x1="14.3836" y1="21.8724" x2="17.31" y2="37.7703" gradientUnits="userSpaceOnUse">
<stop stop-color="white" stop-opacity="0.8353"/>
<stop offset="1" stop-color="#65F5E8"/>
</linearGradient>
<linearGradient id="paint1_linear_0_1943" x1="7.84978" y1="15.3413" x2="7.84978" y2="24.763" gradientUnits="userSpaceOnUse">
<stop stop-color="white" stop-opacity="0.01"/>
<stop offset="1" stop-color="#01CAB7"/>
</linearGradient>
<linearGradient id="paint2_linear_0_1943" x1="17.1049" y1="12.5239" x2="17.1049" y2="18.489" gradientUnits="userSpaceOnUse">
<stop stop-color="white" stop-opacity="0.01"/>
<stop offset="1" stop-color="#01CAB7"/>
</linearGradient>
<linearGradient id="paint3_linear_0_1943" x1="24.9277" y1="12.5239" x2="24.9277" y2="18.489" gradientUnits="userSpaceOnUse">
<stop stop-color="white" stop-opacity="0.01"/>
<stop offset="1" stop-color="#01CAB7"/>
</linearGradient>
<clipPath id="clip0_0_1943">
<rect width="44" height="44" fill="white"/>
</clipPath>
<clipPath id="clip1_0_1943">
<rect width="44" height="44" fill="white"/>
</clipPath>
<clipPath id="clip2_0_1943">
<rect width="44" height="44" fill="white"/>
</clipPath>
<clipPath id="clip3_0_1943">
<rect width="43.9996" height="43.9996" fill="white"/>
</clipPath>
<clipPath id="clip4_0_1943">
<rect width="22.34" height="20.2389" fill="white" transform="translate(11.5312 11.2754)"/>
</clipPath>
<clipPath id="clip5_0_1943">
<rect width="22.34" height="20.2389" fill="white" transform="translate(11.5312 11.2754)"/>
</clipPath>
<clipPath id="clip6_0_1943">
<rect width="22.34" height="20.2389" fill="white" transform="translate(11.5312 11.2754)"/>
</clipPath>
<clipPath id="clip7_0_1943">
<rect width="22.34" height="18.28" fill="white" transform="translate(11.5312 13.2344)"/>
</clipPath>
<clipPath id="clip8_0_1943">
<rect width="22.34" height="18.28" fill="white" transform="translate(11.5312 13.2344)"/>
</clipPath>
<clipPath id="clip9_0_1943">
<rect width="22.3389" height="18.2754" fill="white" transform="translate(11.5312 13.2344)"/>
</clipPath>
<clipPath id="clip10_0_1943">
<rect width="22.575" height="7.525" fill="white" transform="translate(11.5312 12.2012)"/>
</clipPath>
<clipPath id="clip11_0_1943">
<rect width="2.97668" height="5.22583" fill="white" transform="translate(17.3154 11.2754)"/>
</clipPath>
<clipPath id="clip12_0_1943">
<rect width="2.97668" height="5.22583" fill="white" transform="translate(25.1382 11.2754)"/>
</clipPath>
<clipPath id="clip13_0_1943">
<rect width="8.14473" height="7.86328" fill="white" transform="translate(19.3105 20.8691)"/>
</clipPath>
</defs>
</svg>
