<svg width="24" height="24" viewBox="0 0 24 24" fill="none" xmlns="http://www.w3.org/2000/svg">
<g clip-path="url(#clip0_0_5239)">
<mask id="mask0_0_5239" style="mask-type:luminance" maskUnits="userSpaceOnUse" x="0" y="0" width="24" height="24">
<path fill-rule="evenodd" clip-rule="evenodd" d="M0 0H24V24H0V0Z" fill="white"/>
</mask>
<g mask="url(#mask0_0_5239)">
</g>
<g clip-path="url(#clip1_0_5239)">
<g clip-path="url(#clip2_0_5239)">
<g clip-path="url(#clip3_0_5239)">
<path fill-rule="evenodd" clip-rule="evenodd" d="M13.078 5.24686H18.3336C18.6955 4.23078 18.7712 3.33886 18.5105 2.97794C17.783 1.9981 15.9028 2.1092 14.3165 3.42474C13.7098 3.9287 13.3344 4.49646 13.078 5.24686ZM19.92 5.24686H20.1712C21.8612 5.24686 23.2213 6.60686 23.2213 8.28686V8.43686C23.2613 10.1169 21.9113 11.4769 20.2213 11.4769H3.82125C2.14125 11.4769 0.78125 10.1169 0.78125 8.43686V8.28686C0.78125 6.60686 2.14125 5.24686 3.82125 5.24686H11.5159C11.8412 4.01458 12.3942 3.06994 13.3615 2.26735C15.5344 0.468148 18.3836 0.29792 19.7092 2.09212C20.2872 2.86899 20.2886 3.99308 19.92 5.24686ZM3.0296 12.4309V21.4409C3.0296 22.3809 3.7296 23.1709 4.6196 23.1709H19.1396C19.9896 23.1709 20.7396 22.3809 20.7396 21.4409V12.4309H3.0296Z" fill="#00C757"/>
<path fill-rule="evenodd" clip-rule="evenodd" d="M12.8107 5.57738C12.8958 5.98082 12.6389 6.37755 12.2354 6.46261C11.8257 6.55544 11.429 6.29852 11.3439 5.89508C11.1312 4.88648 10.6506 4.03402 9.86124 3.35622C8.29807 2.01319 6.42012 1.86929 5.67567 2.83629C5.25698 3.3851 5.33305 4.51471 5.88693 5.65809C6.07526 6.02934 5.91641 6.47975 5.53738 6.66179C5.17242 6.84235 4.72201 6.6835 4.53368 6.31224C3.76853 4.7147 3.65369 3.01325 4.48478 1.92339C5.8493 0.158889 8.6951 0.378815 10.8363 2.21567C11.8914 3.12151 12.5311 4.27008 12.8107 5.57738Z" fill="#00C757"/>
</g>
</g>
<path d="M12.0283 15.835V19.405" stroke="white" stroke-width="1.452" stroke-linecap="round"/>
</g>
</g>
<defs>
<clipPath id="clip0_0_5239">
<rect width="24" height="24" fill="white"/>
</clipPath>
<clipPath id="clip1_0_5239">
<rect width="22.4409" height="24.2703" fill="white" transform="translate(0.78125 -1.09961)"/>
</clipPath>
<clipPath id="clip2_0_5239">
<rect width="22.4409" height="24.2703" fill="white" transform="translate(0.78125 -1.09961)"/>
</clipPath>
<clipPath id="clip3_0_5239">
<rect width="22.4409" height="24.2703" fill="white" transform="translate(0.78125 -1.09961)"/>
</clipPath>
</defs>
</svg>
