<svg width="17" height="20" viewBox="0 0 17 20" fill="none" xmlns="http://www.w3.org/2000/svg">
<path fill-rule="evenodd" clip-rule="evenodd" d="M0 18.6C0 19.5 0.95 20.08 1.76 19.67L8.47 16.26L15.18 19.67C15.99 20.08 16.94 19.5 16.94 18.6V1.21C16.94 0.54 16.4 0 15.73 0H1.21C0.54 0 0 0.54 0 1.21V18.6Z" stroke="#121834" stroke-width="1.452" stroke-linejoin="round"/>
<path opacity="0.24" fill-rule="evenodd" clip-rule="evenodd" d="M10.8845 12.155C11.0545 12.255 11.2645 12.105 11.2345 11.905L10.7745 9.215L12.7245 7.315C12.8645 7.175 12.7845 6.935 12.5845 6.905L9.89449 6.515L8.68449 4.065C8.59449 3.895 8.34449 3.895 8.25449 4.065L7.04449 6.515L4.35449 6.905C4.15449 6.935 4.07449 7.175 4.21449 7.315L6.16449 9.215L5.70449 11.905C5.67449 12.105 5.88449 12.255 6.05449 12.155L8.47449 10.895L10.8845 12.155Z" stroke="#121834" stroke-width="1.452"/>
</svg>
