<svg width="22" height="23" viewBox="0 0 22 23" fill="none" xmlns="http://www.w3.org/2000/svg">
<path d="M4.05205 5.61021C3.44948 4.41609 3.39435 3.15476 4.03562 2.28524C5.0261 0.952513 7.30792 1.08554 9.13857 2.59194C10.1147 3.40535 10.7702 4.45048 11.0005 5.45522" stroke="#121834" stroke-width="1.452" stroke-linecap="round"/>
<path d="M17.8389 5.38177C18.3407 4.25366 18.3479 3.09329 17.7418 2.28509C16.7513 0.952363 14.4695 1.08539 12.6389 2.59179C11.6548 3.41136 11.0055 4.46437 10.7752 5.46911" stroke="#121834" stroke-width="1.452" stroke-linecap="round"/>
<path d="M19.3172 11.2969V20.5969C19.3172 21.4969 18.5972 22.2769 17.7772 22.2769H3.71725C2.85725 22.2769 2.17725 21.4969 2.17725 20.5969V11.2969" stroke="#121834" stroke-width="1.452"/>
<path fill-rule="evenodd" clip-rule="evenodd" d="M21.72 8.67961V8.54961C21.72 6.91961 20.41 5.59961 18.78 5.59961H2.95C1.32 5.59961 0 6.91961 0 8.54961V8.67961C0 10.3196 1.32 11.6296 2.95 11.6296H18.82C20.45 11.6296 21.77 10.3196 21.72 8.67961Z" stroke="#121834" stroke-width="1.452"/>
<path opacity="0.24" d="M10.8901 15.1689V18.6259" stroke="#121834" stroke-width="1.452" stroke-linecap="round"/>
</svg>
