<svg width="18" height="18" viewBox="0 0 18 18" fill="none" xmlns="http://www.w3.org/2000/svg">
  <path d="M12 6.75C13.2426 6.75 14.25 5.74264 14.25 4.5C14.25 3.25736 13.2426 2.25 12 2.25C10.7574 2.25 9.75 3.25736 9.75 4.5C9.75 5.74264 10.7574 6.75 12 6.75Z" fill="#754A00"/>
  <path d="M6 11.25C7.24264 11.25 8.25 10.2426 8.25 9C8.25 7.75736 7.24264 6.75 6 6.75C4.75736 6.75 3.75 7.75736 3.75 9C3.75 10.2426 4.75736 11.25 6 11.25Z" fill="#754A00"/>
  <path d="M12 15.75C13.2426 15.75 14.25 14.7426 14.25 13.5C14.25 12.2574 13.2426 11.25 12 11.25C10.7574 11.25 9.75 12.2574 9.75 13.5C9.75 14.7426 10.7574 15.75 12 15.75Z" fill="#754A00"/>
  <path d="M7.95 7.95L10.05 5.55" stroke="#754A00" stroke-width="1.2"/>
  <path d="M7.95 10.05L10.05 12.45" stroke="#754A00" stroke-width="1.2"/>
</svg>
