<svg width="18" height="18" viewBox="0 0 18 18" fill="none" xmlns="http://www.w3.org/2000/svg">
  <path d="M13.5 6.75C13.5 6.75 12.375 5.25 9 5.25C5.625 5.25 4.5 6.75 4.5 6.75V3.75C4.5 3.75 5.625 2.25 9 2.25C12.375 2.25 13.5 3.75 13.5 3.75V6.75Z" fill="#121834"/>
  <path d="M4.5 6.75C4.5 6.75 5.625 8.25 9 8.25C12.375 8.25 13.5 6.75 13.5 6.75V9.75C13.5 9.75 12.375 11.25 9 11.25C5.625 11.25 4.5 9.75 4.5 9.75V6.75Z" fill="#121834" opacity="0.7"/>
  <path d="M4.5 9.75C4.5 9.75 5.625 11.25 9 11.25C12.375 11.25 13.5 9.75 13.5 9.75V12.75C13.5 12.75 12.375 14.25 9 14.25C5.625 14.25 4.5 12.75 4.5 12.75V9.75Z" fill="#121834" opacity="0.4"/>
</svg>
