<svg width="24" height="24" viewBox="0 0 24 24" fill="none" xmlns="http://www.w3.org/2000/svg">
<g clip-path="url(#clip0_0_5227)">
<g clip-path="url(#clip1_0_5227)">
<g clip-path="url(#clip2_0_5227)">
<path fill-rule="evenodd" clip-rule="evenodd" d="M2.82617 21.5019C2.82617 22.4919 3.85617 23.1319 4.72617 22.6819L11.9962 18.9519L19.2662 22.6819C20.1362 23.1319 21.1762 22.4919 21.1762 21.5019V2.49188C21.1762 1.76188 20.5862 1.17188 19.8662 1.17188H4.13617C3.41617 1.17188 2.82617 1.76188 2.82617 2.49188V21.5019Z" fill="#00C757"/>
</g>
<path fill-rule="evenodd" clip-rule="evenodd" d="M14.3351 14.4636C14.5251 14.5636 14.7451 14.4036 14.7051 14.1836L14.2251 11.2536L16.2551 9.17363C16.4051 9.01363 16.3251 8.75363 16.1151 8.72363L13.3051 8.29363L12.0551 5.62363C11.9551 5.42363 11.6951 5.42363 11.5951 5.62363L10.3451 8.29363L7.53514 8.72363C7.32514 8.75363 7.24514 9.01363 7.39514 9.17363L9.42514 11.2536L8.94514 14.1836C8.90514 14.4036 9.12514 14.5636 9.31514 14.4636L11.8251 13.0736L14.3351 14.4636Z" fill="white"/>
</g>
</g>
<defs>
<clipPath id="clip0_0_5227">
<rect width="24" height="24" fill="white"/>
</clipPath>
<clipPath id="clip1_0_5227">
<rect width="18.3471" height="21.6572" fill="white" transform="translate(2.82617 1.17188)"/>
</clipPath>
<clipPath id="clip2_0_5227">
<rect width="18.3471" height="21.6572" fill="white" transform="translate(2.82617 1.17188)"/>
</clipPath>
</defs>
</svg>
