<svg width="24" height="24" viewBox="0 0 24 24" fill="none" xmlns="http://www.w3.org/2000/svg">
<g clip-path="url(#clip0_0_5326)">
<path d="M5.18877 5.71079C4.5862 4.51668 4.53107 3.25534 5.17234 2.38582C6.16282 1.0531 8.44464 1.18613 10.2753 2.69253C11.2514 3.50594 11.9069 4.55107 12.1372 5.55581" stroke="#121834" stroke-width="1.452" stroke-linecap="round"/>
<path d="M18.9756 5.48334C19.4775 4.35522 19.4846 3.19485 18.8785 2.38665C17.888 1.05393 15.6062 1.18695 13.7756 2.69335C12.7915 3.51292 12.1422 4.56593 11.912 5.57067" stroke="#121834" stroke-width="1.452" stroke-linecap="round"/>
<path d="M20.454 11.3975V20.6975C20.454 21.5975 19.734 22.3775 18.914 22.3775H4.85396C3.99396 22.3775 3.31396 21.5975 3.31396 20.6975V11.3975" stroke="#121834" stroke-width="1.452"/>
<path fill-rule="evenodd" clip-rule="evenodd" d="M22.8567 8.7802V8.6502C22.8567 7.0202 21.5467 5.7002 19.9167 5.7002H4.08672C2.45672 5.7002 1.13672 7.0202 1.13672 8.6502V8.7802C1.13672 10.4202 2.45672 11.7302 4.08672 11.7302H19.9567C21.5867 11.7302 22.9067 10.4202 22.8567 8.7802Z" stroke="#121834" stroke-width="1.452"/>
<path opacity="0.24" d="M12.0269 15.2695V18.7265" stroke="#121834" stroke-width="1.452" stroke-linecap="round"/>
</g>
<defs>
<clipPath id="clip0_0_5326">
<rect width="24" height="24" fill="white"/>
</clipPath>
</defs>
</svg>
